<svg width="60" height="60" viewBox="0 0 60 60" fill="none" xmlns="http://www.w3.org/2000/svg">
<g clip-path="url(#clip0_593_599)">
<path d="M60 29.9999C60 46.5697 46.5679 60 29.9999 60C13.4311 60 0 46.5697 0 29.9999C0 13.4318 13.4311 0 29.9999 0C46.5679 0 60 13.4318 60 29.9999Z" fill="#DBA111"/>
<path d="M58.9991 29.9999C58.9991 46.0162 46.0162 58.9992 29.9999 58.9992C13.9834 58.9992 1.00024 46.0163 1.00024 29.9999C1.00024 13.9834 13.9834 1.00031 29.9999 1.00031C46.016 1.00031 58.9991 13.9834 58.9991 29.9999Z" fill="#034694"/>
<path d="M50.6657 29.9999C50.6657 41.4135 41.4132 50.6644 29.9998 50.6644C18.5858 50.6644 9.33301 41.4135 9.33301 29.9999C9.33301 18.5854 18.5858 9.33313 29.9998 9.33313C41.4135 9.333 50.6657 18.5854 50.6657 29.9999Z" fill="#DBA111"/>
<path d="M50.0405 29.9999C50.0405 41.0681 41.0666 50.0404 29.9999 50.0404C18.9317 50.0404 9.95935 41.068 9.95935 29.9999C9.95935 18.9318 18.9317 9.9592 29.9999 9.9592C41.0669 9.9592 50.0405 18.9317 50.0405 29.9999Z" fill="white"/>
<path d="M12.8281 47.2894C13.0499 47.5011 13.5955 48.0206 13.5955 48.0206L14.1184 47.47L12.5585 45.9828L12.3578 46.1934L10.2634 48.389L11.0586 49.1459C11.0586 49.1459 11.7303 48.4415 11.976 48.1849C12.1814 48.3799 12.6742 48.8497 12.6742 48.8497L13.1975 48.3003C13.1975 48.3003 12.7055 47.8309 12.5003 47.6345C12.6305 47.4973 12.6966 47.4278 12.8281 47.2894Z" fill="#DBA111"/>
<path d="M16.5899 49.7969C16.5193 49.3759 16.2829 49.0039 15.9252 48.7497C15.5691 48.4967 15.1417 48.3969 14.7206 48.4659C14.2671 48.543 13.8597 48.8074 13.5727 49.209C13.2866 49.6133 13.1711 50.0845 13.2481 50.5398C13.3189 50.9596 13.5537 51.3292 13.9103 51.5834C14.2671 51.8371 14.6977 51.9386 15.1181 51.8679C15.5714 51.7915 15.9791 51.5267 16.2651 51.1238C16.4941 50.8043 16.6135 50.4384 16.6135 50.0726C16.6136 49.9815 16.6059 49.8878 16.5899 49.7969ZM14.3499 50.9632C13.9854 50.7054 14.2863 50.1663 14.4986 49.8699C14.7104 49.5711 15.121 49.1091 15.4856 49.3668C15.866 49.6389 15.5105 50.2269 15.3399 50.4655C15.1687 50.7069 14.7311 51.2352 14.3499 50.9632Z" fill="#DBA111"/>
<path d="M19.0416 50.6295C18.2023 50.2047 17.2314 50.5529 16.7854 51.4367C16.562 51.8785 16.5183 52.3634 16.6622 52.7998C16.7951 53.2053 17.0833 53.5361 17.474 53.7327C17.8646 53.9316 18.3042 53.9662 18.7106 53.8328C19.1467 53.6905 19.5104 53.3683 19.7325 52.9267C20.1803 52.0413 19.8827 51.0542 19.0416 50.6295ZM18.1133 53.0857C18.0148 53.118 17.9214 53.1079 17.8154 53.0551C17.6489 52.9703 17.5903 52.8187 17.5903 52.6493C17.5903 52.4149 17.703 52.1387 17.7986 51.9504C17.9642 51.623 18.3005 51.1058 18.6994 51.3072C18.8047 51.3609 18.8677 51.4307 18.8996 51.5281C18.9664 51.7295 18.8994 52.0603 18.7194 52.4145C18.5404 52.7688 18.314 53.0193 18.1133 53.0857Z" fill="#DBA111"/>
<path d="M20.7752 51.8449L20.6207 52.2877C20.6207 52.2877 21.0158 52.4263 21.1357 52.4659C20.9845 52.8983 20.2875 54.8878 20.2875 54.8878L21.3224 55.2507C21.3224 55.2507 22.0205 53.263 22.1713 52.8306C22.292 52.8727 22.6872 53.01 22.6872 53.01L22.938 52.2954L20.8714 51.5703L20.7752 51.8449Z" fill="#DBA111"/>
<path d="M25.0721 52.8051L23.6735 52.5097L23.6137 52.7942L22.9886 55.7625L24.4119 56.0643C24.8668 56.1582 25.1664 56.0465 25.3371 55.936C25.554 55.7945 25.706 55.5625 25.7644 55.2852C25.7804 55.2097 25.7882 55.1365 25.7882 55.0648C25.7882 54.8644 25.7247 54.6836 25.6098 54.5284C25.7701 54.4011 25.8845 54.2214 25.932 53.9971C25.9442 53.9392 25.9513 53.8738 25.9513 53.8055C25.9513 53.4256 25.7344 52.9432 25.0721 52.8051ZM24.6871 55.0711C24.6722 55.1389 24.6449 55.2287 24.5936 55.2622C24.5461 55.293 24.4549 55.297 24.3367 55.2713C24.3367 55.2713 24.2829 55.2595 24.2193 55.2469C24.2648 55.0327 24.2952 54.8902 24.3395 54.6758C24.4003 54.69 24.4781 54.7053 24.4781 54.7053C24.6616 54.7441 24.6968 54.8799 24.6968 54.9785C24.697 55.0181 24.6919 55.0517 24.6871 55.0711ZM24.5916 53.4825C24.7144 53.5104 24.8046 53.5555 24.8393 53.608C24.8552 53.6321 24.863 53.6659 24.863 53.7058C24.863 53.7299 24.8598 53.7578 24.8534 53.7914C24.8346 53.8783 24.8091 53.999 24.5672 53.9494C24.5672 53.9494 24.537 53.9414 24.4955 53.9326C24.5341 53.753 24.5524 53.6633 24.5916 53.4825Z" fill="#DBA111"/>
<path d="M27.654 53.2885L26.1349 56.3993L27.0024 56.4658C27.0024 56.4658 27.2372 55.9702 27.331 55.7728C27.5145 55.7881 27.6984 55.801 27.8783 55.8155C27.9456 56.0232 28.1151 56.5506 28.1151 56.5506L29.2692 56.6403L27.9796 52.6429L27.654 53.2885Z" fill="#DBA111"/>
<path d="M31.0792 55.7715C31.06 55.3169 30.9727 53.2473 30.9727 53.2473L29.8766 53.2934L30.0152 56.6148L32.2118 56.5236L32.1789 55.7266C32.1789 55.7267 31.3943 55.7602 31.0792 55.7715Z" fill="#DBA111"/>
<path d="M34.0859 55.4533C34.0152 55.0039 33.6945 52.9578 33.6945 52.9578L33.4072 53.0039L32.6097 53.1281L33.1245 56.4133L35.2974 56.0721L35.1729 55.284C35.1729 55.284 34.3978 55.4063 34.0859 55.4533Z" fill="#DBA111"/>
<path d="M40.3763 53.2437C40.3674 53.5284 40.1995 53.7737 39.9376 53.8773C39.7925 53.935 39.6539 53.935 39.515 53.8762C39.302 53.7849 39.1046 53.5542 38.986 53.2577C38.8466 52.9079 38.8182 52.6108 38.9097 52.402C38.9725 52.2559 39.0959 52.1467 39.2842 52.0712C39.4883 51.99 39.682 52.0648 39.9476 52.2211L40.1912 52.3649L40.5958 51.7269L40.3557 51.5691C39.9144 51.2791 39.3681 51.22 38.8955 51.4088C38.4569 51.5836 38.1169 51.9108 37.9371 52.3291C37.7547 52.7533 37.7547 53.2388 37.9397 53.6992C38.2888 54.5719 39.2754 55.0018 40.138 54.6565C40.7614 54.4074 41.1142 53.9339 41.1591 53.287L41.1796 52.9983L40.3855 52.9394L40.3763 53.2437Z" fill="#DBA111"/>
<path d="M42.9351 52.3364C42.7106 51.9373 41.7018 50.1277 41.7018 50.1277L41.4491 50.2703L40.7433 50.6644L42.3655 53.5668L44.2834 52.4954L43.8952 51.7987C43.8953 51.7987 43.2088 52.1814 42.9351 52.3364Z" fill="#DBA111"/>
<path d="M45.0683 47.8602L44.8331 48.0322L44.4211 48.335L45.7674 50.17C45.829 50.2531 45.829 50.3086 45.8236 50.3409C45.8107 50.4356 45.7121 50.5382 45.6249 50.6011C45.5838 50.6304 45.4886 50.6704 45.3911 50.6551C45.3216 50.645 45.2667 50.6073 45.2178 50.5413L43.8873 48.7268L43.0006 49.376L44.3247 51.1813C44.5212 51.4485 44.7652 51.6066 45.05 51.65C45.3694 51.6999 45.7326 51.5911 46.0701 51.3416C46.7643 50.8341 46.753 50.1601 46.45 49.7471L45.0683 47.8602Z" fill="#DBA111"/>
<path d="M49.1079 47.1931C48.9038 46.9813 48.6521 46.8861 48.3878 46.9005C48.3723 46.6951 48.2926 46.4988 48.1338 46.3345C47.8565 46.0482 47.2365 45.8252 46.6657 46.3808L45.6389 47.3738L47.9526 49.7625L48.9971 48.7499C49.3309 48.4265 49.4044 48.1134 49.4075 47.9109C49.4131 47.6511 49.3063 47.3969 49.1079 47.1931ZM47.36 47.1125C47.3944 47.1493 47.4366 47.1922 47.4366 47.2519C47.4366 47.3009 47.4099 47.3613 47.3298 47.4379C47.3298 47.4379 47.3081 47.4599 47.2788 47.4893C47.1492 47.3549 47.0877 47.2918 46.9563 47.1567C47.1879 46.9443 47.2841 47.035 47.36 47.1125ZM47.9078 47.9349C48.0953 47.7539 48.2758 47.9129 48.3273 47.9669C48.3772 48.0169 48.4339 48.0875 48.4339 48.1486C48.4339 48.1486 48.4339 48.1486 48.4339 48.1506C48.4327 48.207 48.385 48.2851 48.2991 48.3686C48.2991 48.3686 48.2592 48.4073 48.2118 48.4519C48.0605 48.2954 47.9581 48.1903 47.8065 48.0347C47.8513 47.9902 47.9078 47.9349 47.9078 47.9349Z" fill="#DBA111"/>
<path d="M12.8209 46.9813C12.9114 47.0684 13.587 47.7127 13.587 47.7127L13.8098 47.4778L12.5651 46.2908L12.515 46.3433L10.5721 48.3813L11.0508 48.8381C11.0508 48.8381 11.8785 47.9706 11.9677 47.8757C12.0582 47.9618 12.6672 48.5418 12.6672 48.5418L12.8903 48.3076C12.8903 48.3076 12.2813 47.728 12.1908 47.6419C12.2716 47.5573 12.7409 47.065 12.8209 46.9813Z" fill="white"/>
<path d="M15.7981 48.927C15.4896 48.7074 15.1204 48.6196 14.758 48.6802C14.3602 48.7485 14.0033 48.9808 13.7508 49.3362C13.4974 49.6928 13.3958 50.1062 13.4634 50.5025C13.5241 50.8659 13.7283 51.1866 14.037 51.4055C14.3474 51.6264 14.7181 51.7127 15.0822 51.6518C15.4779 51.5852 15.8352 51.352 16.0874 50.9989C16.289 50.7142 16.3955 50.3917 16.3955 50.0722C16.3955 49.9926 16.3886 49.9119 16.3756 49.8324C16.3138 49.4695 16.1092 49.1479 15.7981 48.927ZM15.5173 50.5928C15.3085 50.8847 14.7651 51.5263 14.2242 51.1416C13.6853 50.759 14.1132 50.0356 14.321 49.7418C14.5296 49.4479 15.0732 48.8075 15.6114 49.19C16.1524 49.576 15.7258 50.2998 15.5173 50.5928Z" fill="white"/>
<path d="M18.9434 50.825C18.215 50.4567 17.3713 50.7632 16.98 51.537C16.7829 51.9261 16.7441 52.3494 16.8691 52.7333C16.984 53.0819 17.2337 53.367 17.5723 53.5374C17.9117 53.711 18.2923 53.7418 18.6428 53.6264C19.0241 53.5004 19.3425 53.2179 19.5395 52.8292C19.9297 52.0554 19.6737 51.1931 18.9434 50.825ZM17.7172 53.2486C17.1275 52.952 17.4413 52.1718 17.6043 51.8513C17.7667 51.5293 18.2081 50.8142 18.7969 51.1134C18.9537 51.1918 19.0583 51.3085 19.1082 51.4611C19.2238 51.8144 19.0362 52.2709 18.9138 52.5135C18.792 52.7543 18.5348 53.1767 18.1811 53.2925C18.0298 53.3438 17.8732 53.3283 17.7172 53.2486Z" fill="white"/>
<path d="M20.9819 51.9163L20.8983 52.1527C20.8983 52.1527 21.3104 52.2976 21.4137 52.334C21.368 52.4634 20.5647 54.7539 20.5647 54.7539L21.189 54.9733C21.189 54.9733 21.9929 52.6829 22.0378 52.5531C22.1411 52.5891 22.5532 52.7331 22.5532 52.7331L22.6609 52.4289L21.0048 51.8477L20.9819 51.9163Z" fill="white"/>
<path d="M25.028 53.0176L23.8427 52.7675L23.8268 52.8394L23.2474 55.5958L24.4569 55.8498C24.7644 55.9142 25.0202 55.8821 25.2182 55.7525C25.3893 55.6408 25.5042 55.4626 25.5511 55.2407C25.5631 55.1801 25.5703 55.1223 25.5703 55.0658C25.5703 54.8248 25.4508 54.6207 25.2373 54.4744C25.4845 54.4033 25.6614 54.2214 25.7184 53.9514C25.7281 53.9093 25.7339 53.8594 25.7339 53.803C25.7338 53.5272 25.5887 53.1359 25.028 53.0176ZM24.6137 53.2616C24.813 53.3038 24.9509 53.38 25.0211 53.4884C25.0615 53.55 25.0814 53.6221 25.0814 53.7059C25.0814 53.7468 25.0761 53.7892 25.0666 53.8353C24.9896 54.2024 24.6931 54.1984 24.5225 54.1612C24.5225 54.1612 24.342 54.124 24.2374 54.102C24.2617 53.9889 24.3993 53.3346 24.4231 53.2219C24.4988 53.2373 24.6137 53.2616 24.6137 53.2616ZM24.5225 54.492C24.8593 54.5628 24.9124 54.8285 24.9124 54.99C24.9124 55.0593 24.9016 55.1088 24.9002 55.117C24.8663 55.2763 24.8055 55.3839 24.7123 55.4441C24.6137 55.5099 24.4717 55.5225 24.2921 55.4853C24.2921 55.4853 24.0765 55.4392 23.961 55.4162C23.9858 55.2977 24.147 54.5342 24.1714 54.4178C24.2701 54.4384 24.5225 54.492 24.5225 54.492Z" fill="white"/>
<path d="M27.8505 53.3842L26.4718 56.2064L26.8689 56.2359C26.8689 56.2359 27.1607 55.6226 27.1993 55.5442C27.2833 55.5507 27.9582 55.6032 28.041 55.6099C28.0674 55.6908 28.2779 56.345 28.2779 56.345L28.9618 56.3977L27.9377 53.223L27.8505 53.3842ZM27.6992 54.5189C27.7658 54.7321 27.8941 55.1431 27.9365 55.2773C27.8003 55.2672 27.4866 55.2428 27.3518 55.2326C27.4137 55.1057 27.6016 54.7194 27.6992 54.5189Z" fill="white"/>
<path d="M30.8698 55.9989C30.8644 55.8613 30.7631 53.4747 30.7631 53.4747L30.6926 53.4772L30.1024 53.5014L30.2237 56.3887L31.9852 56.314L31.9696 55.9536C31.9699 55.9537 30.9972 55.9947 30.8698 55.9989Z" fill="white"/>
<path d="M33.9049 55.705C33.8829 55.569 33.5123 53.2065 33.5123 53.2065L33.4416 53.2178L32.8593 53.31L33.307 56.1642L35.0485 55.8893L34.9923 55.5326C34.9922 55.5329 34.0295 55.6841 33.9049 55.705Z" fill="white"/>
<path d="M40.5933 53.2486C40.583 53.6246 40.3624 53.9431 40.0184 54.0817C39.8182 54.1613 39.6206 54.1585 39.4295 54.0765C39.1602 53.9626 38.9251 53.6929 38.7826 53.3388C38.6221 52.9346 38.5963 52.5805 38.7083 52.3158C38.7956 52.1156 38.9613 51.9658 39.2036 51.8696C39.5207 51.7426 39.8118 51.8874 40.0582 52.0336L40.1198 52.0696L40.297 51.7912L40.2377 51.7512C39.8553 51.5008 39.3831 51.4485 38.9767 51.6112C38.5916 51.7656 38.2926 52.0504 38.1373 52.4149C37.978 52.7842 37.9795 53.2129 38.1425 53.6169C38.4464 54.3794 39.3046 54.7539 40.0583 54.4536C40.6048 54.2343 40.9015 53.8378 40.9411 53.2718L40.9463 53.1989L40.5974 53.1747L40.5933 53.2486Z" fill="white"/>
<path d="M42.8506 52.6328C42.7825 52.5135 41.6173 50.4256 41.6173 50.4256L41.5531 50.4613L41.0399 50.7488L42.4476 53.2696L43.9863 52.4103L43.8113 52.0948C43.8115 52.095 42.9595 52.5696 42.8506 52.6328Z" fill="white"/>
<path d="M45.0206 48.1644L44.9612 48.208L44.7253 48.3813L45.9431 50.0405C46.0246 50.1522 46.0567 50.2637 46.0393 50.3729C46.0102 50.5706 45.8302 50.7223 45.7547 50.7762C45.6684 50.8413 45.5104 50.8952 45.359 50.8706C45.2305 50.8516 45.1253 50.7837 45.0408 50.6706L43.8386 49.0308L43.306 49.4234L44.5005 51.0517C44.6612 51.2713 44.8574 51.4008 45.083 51.4343C45.4387 51.4881 45.7725 51.29 45.9404 51.1676C46.5167 50.7439 46.5245 50.2137 46.2754 49.8765L45.0206 48.1644Z" fill="white"/>
<path d="M48.9511 47.3447C48.7276 47.1134 48.4416 47.0607 48.1449 47.1748C48.1684 47.1056 48.1824 47.0351 48.1824 46.9645C48.1824 46.793 48.1141 46.6256 47.9768 46.4843C47.7909 46.2931 47.3095 46.0568 46.8171 46.5356L45.9468 47.3788L47.956 49.453L48.8457 48.5904C49.07 48.3749 49.1872 48.1427 49.1899 47.9078C49.1935 47.7026 49.1102 47.5086 48.9511 47.3447ZM47.6537 47.2546C47.6537 47.3998 47.559 47.5191 47.4828 47.5936C47.4828 47.5936 47.3494 47.7232 47.274 47.7974C47.1928 47.7141 46.7272 47.2344 46.6476 47.1493C46.7016 47.097 46.7867 47.016 46.7867 47.016C47.0585 46.7512 47.2972 46.7336 47.5164 46.9607C47.6167 47.065 47.6537 47.1634 47.6537 47.2546ZM48.207 48.7598C48.1247 48.6749 47.5819 48.1131 47.4986 48.0283C47.5702 47.9593 47.7562 47.7784 47.7562 47.7784C48.1107 47.4367 48.4701 47.7988 48.4854 47.8156C48.5971 47.931 48.652 48.0402 48.652 48.1487C48.652 48.1507 48.652 48.1519 48.652 48.1529C48.6505 48.2721 48.5814 48.397 48.4503 48.5266C48.4506 48.5266 48.2774 48.6931 48.207 48.7598Z" fill="white"/>
<path d="M16.6715 10.2368L15.4589 10.5638L15.5981 10.9981C15.7656 11.5247 15.614 12.0761 15.2035 12.4361C14.9752 12.6363 14.7115 12.7281 14.4207 12.7082C13.9788 12.6785 13.48 12.3925 13.0869 11.9427C12.6237 11.412 12.3925 10.9012 12.422 10.4683C12.4424 10.1526 12.5959 9.87527 12.8904 9.61727C13.2156 9.33238 13.6281 9.34349 14.1877 9.45444L14.6027 9.53649L14.871 8.37511L14.4533 8.27325C13.5549 8.05097 12.6181 8.26933 11.9498 8.85438C10.6408 9.99972 10.534 11.8702 11.7015 13.2053C12.7864 14.4455 14.6687 14.5807 15.8956 13.5076C16.7793 12.7357 17.0871 11.7482 16.787 10.6547L16.6715 10.2368Z" fill="#DBA111"/>
<path d="M19.9644 4.15461L18.7258 4.73788C18.7258 4.73788 19.4172 6.2032 19.6549 6.70822C19.3016 6.87433 18.9594 7.03602 18.6057 7.20301C18.3672 6.69837 17.6754 5.23243 17.6754 5.23243L16.0444 6.00238L18.5282 11.2709L20.1605 10.5013C20.1605 10.5013 19.391 8.8718 19.1434 8.34343C19.497 8.17795 19.8389 8.01639 20.1932 7.84952C20.4415 8.37638 21.2101 10.0062 21.2101 10.0062L22.842 9.23608L20.359 3.96881L19.9644 4.15461Z" fill="#DBA111"/>
<path d="M25.4865 7.41862C25.407 7.02632 25.3262 6.6272 25.2477 6.23541C25.7516 6.13405 27.0906 5.86368 27.0906 5.86368L26.855 4.69347C26.855 4.69347 25.5154 4.96422 25.0112 5.06608C24.9386 4.70736 24.8785 4.40606 24.8054 4.04784C25.3288 3.94232 26.7616 3.65277 26.7616 3.65277L26.5255 2.48306L26.0968 2.56915L22.8008 3.23573L23.9531 8.94565L27.7079 8.18655L27.472 7.01748C27.472 7.01748 26.0134 7.31145 25.4865 7.41862Z" fill="#DBA111"/>
<path d="M30.8124 2.34761L29.0067 2.31012L28.9977 2.74559L28.8849 8.13352L32.6753 8.21304L32.7025 6.95145C32.7025 6.95145 31.2473 6.92014 30.7155 6.90929C30.7306 6.19613 30.8124 2.34761 30.8124 2.34761Z" fill="#DBA111"/>
<path d="M36.6639 5.2852C36.1955 4.94112 36.0584 4.80316 36.1057 4.61521C36.129 4.51777 36.2351 4.20663 36.5716 4.28994C36.7741 4.34194 36.9755 4.4486 37.0653 4.88432L37.1639 5.36801L38.3562 4.9651L38.2819 4.58972C38.1353 3.85245 37.5117 3.22487 36.729 3.02936C36.1685 2.89013 35.6065 2.9646 35.1453 3.24166C34.722 3.49524 34.4242 3.89549 34.3064 4.36921C34.0072 5.56327 34.8121 6.13821 35.3442 6.51915C35.8899 6.90931 36.0286 7.06204 35.9453 7.38794C35.9192 7.4898 35.8592 7.57021 35.7653 7.62714C35.6561 7.69138 35.5191 7.71461 35.4076 7.68558C35.121 7.61502 34.9969 7.47958 34.8761 7.10887L34.7297 6.66444L33.5333 7.15368L33.6492 7.53348C33.8735 8.2715 34.4089 8.73663 35.2852 8.95613C36.27 9.20252 37.4647 8.74963 37.7623 7.56718C38.0728 6.32124 37.2248 5.69694 36.6639 5.2852Z" fill="#DBA111"/>
<path d="M40.9717 8.39176C41.4312 8.62401 42.6493 9.23998 42.6493 9.23998L43.188 8.17491C43.188 8.17491 41.969 7.55895 41.5109 7.32746C41.6749 7.00079 41.8138 6.72613 41.9775 6.4001C42.4529 6.64017 43.7594 7.30045 43.7594 7.30045L44.2966 6.23538L40.9062 4.52203L40.7101 4.91017L38.2781 9.72038L41.6969 11.4471L42.236 10.3827C42.236 10.3827 40.9075 9.71155 40.4275 9.46983C40.6073 9.11237 40.7919 8.74935 40.9717 8.39176Z" fill="#DBA111"/>
<path d="M47.7241 8.93579L42.2914 11.7469L43.3307 12.6508C43.3307 12.6508 44.2274 12.174 44.5533 12.0029C44.7956 12.2139 45.1528 12.5247 45.3913 12.7318C45.2744 13.0784 44.9423 14.053 44.9423 14.053L46.3742 15.2988L48.6969 8.44958L47.7241 8.93579Z" fill="#DBA111"/>
<path d="M16.4679 10.5912L15.8276 10.7653L15.8746 10.9102C16.078 11.5493 15.8945 12.218 15.394 12.6556C15.1066 12.9078 14.7715 13.0232 14.4013 12.9994C13.8765 12.9642 13.3183 12.6491 12.8678 12.1339C12.3527 11.5442 12.0973 10.9612 12.1312 10.4477C12.1577 10.0578 12.3488 9.70461 12.6992 9.39814C13.1593 8.99587 13.7385 9.06946 14.2443 9.16955L14.3832 9.19645L14.5233 8.58944L14.3841 8.55473C13.5768 8.35656 12.7391 8.55032 12.141 9.07388C10.9578 10.1102 10.8628 11.8027 11.9208 13.0134C12.9 14.133 14.5972 14.2557 15.7052 13.2881C16.5086 12.5835 16.7786 11.7244 16.5064 10.7319L16.4679 10.5912Z" fill="white"/>
<path d="M20.0881 4.41628L19.1136 4.877C19.1136 4.877 19.934 6.61773 20.0419 6.84657C19.8334 6.94541 18.6759 7.49157 18.4659 7.58965C18.3582 7.36043 17.5384 5.61982 17.5384 5.61982L16.4308 6.14162L18.6668 10.8832L19.7737 10.3621C19.7737 10.3621 18.8659 8.43786 18.7566 8.20498C18.9665 8.10615 20.1225 7.56137 20.3324 7.46216C20.4415 7.69441 21.3496 9.61981 21.3496 9.61981L22.455 9.0975L20.2191 4.35519L20.0881 4.41628Z" fill="white"/>
<path d="M25.2584 7.76105C25.213 7.53322 24.9509 6.23591 24.9055 6.00807C25.148 5.95935 26.7481 5.63597 26.7481 5.63597L26.627 5.03692C26.627 5.03692 25.0274 5.35891 24.7836 5.40826C24.7393 5.18485 24.5084 4.04342 24.4641 3.82026C24.7085 3.77015 26.4192 3.42569 26.4192 3.42569L26.2979 2.82639L23.1436 3.46292L24.1811 8.6022L27.3656 7.95935L27.2445 7.36005C27.2443 7.36017 25.5048 7.71119 25.2584 7.76105Z" fill="white"/>
<path d="M30.5151 2.63276L29.2923 2.60626L29.2897 2.75066L29.1814 7.84841L32.3916 7.91644L32.4059 7.23598C32.4059 7.23598 30.668 7.19925 30.4191 7.19395C30.4254 6.92194 30.5151 2.63276 30.5151 2.63276Z" fill="white"/>
<path d="M36.6422 4.0087C37.031 4.10602 37.2555 4.36579 37.3507 4.82587L37.3838 4.98668L38.0216 4.77109L37.9974 4.64524C37.8715 4.01703 37.334 3.48034 36.659 3.31057C36.1737 3.18952 35.6902 3.25301 35.296 3.48968C34.9394 3.704 34.688 4.04165 34.5889 4.43988C34.3377 5.44145 34.9906 5.90797 35.5141 6.28222C36.0441 6.66127 36.3636 6.92002 36.2275 7.45761C36.1735 7.6814 36.0274 7.80926 35.9146 7.87654C35.7399 7.98118 35.5256 8.01387 35.3373 7.96767C34.9507 7.87073 34.7516 7.66284 34.6007 7.1991L34.5514 7.05092L33.8895 7.32091L33.928 7.44801C34.1204 8.08052 34.588 8.48152 35.3576 8.67414C36.2031 8.88531 37.2276 8.50273 37.4801 7.4956C37.7431 6.44 37.0501 5.92918 36.4893 5.51921C36.0133 5.1678 35.7258 4.9329 35.8236 4.54464C35.9093 4.19753 36.1968 3.89712 36.6422 4.0087Z" fill="white"/>
<path d="M41.8496 6.01021C42.0728 6.12242 43.6296 6.90916 43.6296 6.90916L43.9066 6.363L41.0351 4.91232L40.9693 5.04183L38.6699 9.59228L41.5684 11.0571L41.8445 10.5112C41.8445 10.5112 40.2621 9.71105 40.0379 9.59732C40.1424 9.38956 40.7396 8.20976 40.8433 8.00187C41.0642 8.11345 42.5205 8.84933 42.5205 8.84933L42.798 8.30316C42.798 8.30316 41.3403 7.56792 41.1194 7.45571C41.2221 7.25299 41.7471 6.21292 41.8496 6.01021Z" fill="white"/>
<path d="M47.8577 9.19456L42.8057 11.8091L43.3703 12.3C43.3703 12.3 44.4416 11.732 44.5932 11.6517C44.7189 11.7615 45.6069 12.534 45.73 12.6412C45.6765 12.8009 45.2796 13.9611 45.2796 13.9611L46.2384 14.7947L48.1904 9.03854L47.8577 9.19456ZM45.1781 11.3509C45.4171 11.2274 46.0276 10.9102 46.4 10.7164C46.2614 11.1123 46.0329 11.7641 45.9453 12.0178C45.7516 11.8481 45.3721 11.5184 45.1781 11.3509Z" fill="white"/>
<path d="M44.3323 29.2128C43.918 28.1154 42.4913 27.6387 41.1426 28.1477C40.5803 28.3593 40.1197 28.713 39.8056 29.1305C40.6961 26.5889 44.3235 26.0496 44.3235 23.685C44.3235 19.7218 38.6952 20.8319 39.5142 23.6856C39.5142 22.3908 41.5749 22.1535 41.5749 23.6856C41.5749 25.2179 37.9817 26.2228 37.9817 28.8115C37.9817 31.6653 40.836 31.9293 40.5471 34.5393C40.498 34.9893 40.014 35.5807 39.3135 35.5807C34.9418 35.5807 36.5024 30.1991 34.9748 28.5614L35.0547 27.4557C35.9378 27.9972 38.2806 26.7287 36.7383 24.795C36.7383 25.7459 34.7581 25.6933 34.7581 23.8966C34.7581 21.4656 37.0309 22.7341 37.1413 23.271C37.0324 22.3856 36.9912 21.8238 37.1374 21.3136C35.9122 21.7087 35.7975 21.0005 35.9525 20.7264C36.13 20.4095 36.3674 20.0393 36.8448 20.0393C37.1028 20.0393 37.2577 20.0753 37.3489 20.1381C37.5015 20.2425 37.6131 20.0041 37.5913 20.2258C37.7224 20.0263 37.6699 20.2754 37.7964 20.0753C37.9253 19.8765 38.0988 19.6517 38.4038 19.3521L38.3907 18.9037L38.7476 19.0346L39.0903 18.4803C38.7205 17.7135 38.2186 18.0828 37.849 17.1321C37.5399 17.0518 32.7257 17.5754 32.8653 15.6549C32.4727 15.6549 31.5428 15.87 32.1183 16.652C31.6708 16.7059 31.3483 16.1977 30.6738 17.5721C31.5187 17.4137 31.0814 18.3583 31.0814 18.627C31.0814 20.3683 28.7632 20.3389 28.7632 19.5233C28.2045 20.0662 28.5215 21.2533 29.3664 21.5458C29.3664 21.5458 29.045 22.8155 28.2518 23.6206C27.0744 23.5736 25.1855 23.369 24.0989 22.3418C23.6302 21.8992 23.2581 21.658 22.9412 21.534V20.9584C23.4052 20.7314 23.914 20.3295 24.4427 19.6578C24.8552 19.1541 25.0785 18.5081 25.0184 17.8221C25.0106 17.7401 24.9985 17.6592 24.9841 17.5803C24.9797 17.5552 24.9735 17.5309 24.9677 17.5059C24.9561 17.4506 24.9427 17.3976 24.9266 17.3429C24.9189 17.3165 24.9117 17.2895 24.9034 17.2634C24.8855 17.2086 24.8658 17.1562 24.8445 17.1042C24.8355 17.0824 24.8292 17.0592 24.8187 17.0387C24.7893 16.9687 24.7565 16.9028 24.721 16.8364C24.7059 16.8095 24.6898 16.7844 24.6751 16.7596C24.6507 16.7198 24.6276 16.6794 24.602 16.6409C24.5813 16.6103 24.5596 16.5794 24.5377 16.5486C24.5153 16.5192 24.4915 16.489 24.4684 16.4595C24.4428 16.4279 24.4176 16.3945 24.3902 16.3632C24.372 16.3425 24.3523 16.3225 24.3331 16.3035C24.2645 16.2276 24.19 16.1571 24.1122 16.0897C24.1058 16.0841 24.0981 16.0769 24.0905 16.0711C24.0471 16.034 24.0008 15.9985 23.9552 15.9647C23.9436 15.9559 23.9315 15.9473 23.9185 15.9382C23.8698 15.9039 23.8199 15.8703 23.7679 15.8382C23.7648 15.8362 23.7618 15.835 23.7596 15.8327C23.2648 15.5297 22.6669 15.3712 22.0354 15.4213C20.5149 15.5424 19.3847 16.8128 19.5117 18.259C19.6105 19.3858 20.4416 20.2858 21.522 20.5728C21.143 20.7844 20.8228 20.9064 20.7504 20.9064C20.7624 20.9141 20.7781 20.9231 20.7951 20.9341C20.7995 20.9361 20.8047 20.9393 20.81 20.9419C20.8246 20.9513 20.8421 20.9611 20.8599 20.9707C20.8643 20.9733 20.8697 20.9757 20.874 20.9784C20.8984 20.9906 20.9235 21.0034 20.9518 21.0169C20.9562 21.0189 20.9615 21.0205 20.9659 21.0227C20.9909 21.0343 21.0164 21.0464 21.0434 21.0568C21.0511 21.0603 21.0595 21.0635 21.0678 21.0663C21.1339 21.0939 21.2084 21.1188 21.2898 21.142C21.3014 21.1451 21.3137 21.1478 21.3236 21.1509C21.3566 21.1593 21.39 21.167 21.4246 21.1753C21.436 21.1773 21.4476 21.1797 21.4598 21.1822C21.5035 21.19 21.5492 21.1978 21.595 21.2033C21.5989 21.2033 21.6028 21.2053 21.6066 21.2053V21.5326C21.5894 21.5364 21.5739 21.5382 21.5579 21.5407C21.0633 21.6221 20.742 21.7743 20.5967 22.2146C20.4523 22.6565 20.6006 22.8162 20.8322 23.1262C20.6366 23.4759 20.1239 23.6067 20.793 24.3794C20.7442 24.6713 20.806 25.136 21.2307 25.277C21.3693 25.324 21.4848 25.3489 21.6066 25.37L21.606 31.1631C21.1824 31.3876 20.9734 31.6675 20.8578 31.9284C20.8578 31.9284 20.5177 31.1735 20.5402 32.669C20.9266 32.3692 20.7745 33.0161 20.7745 33.0161C20.2484 33.6977 20.9166 33.6607 20.9166 33.6607C21.3697 33.2081 21.2773 33.8658 21.2773 33.8658C21.2773 34.6679 21.6031 34.9819 21.6059 34.9831V39.3965L21.2211 39.3976L21.2247 40.6154L21.8977 40.6143C21.5201 40.7711 21.2709 41.1441 21.3073 41.5563C21.353 42.0759 21.833 42.4621 22.3797 42.4199C22.9258 42.376 23.3317 41.9204 23.2852 41.3995C23.2542 41.04 23.0161 40.7467 22.6922 40.6119L23.3132 40.6102L23.3106 39.3924L22.9403 39.3941L22.9409 35.4784C23.0172 35.5203 23.0998 35.5494 23.1894 35.5689C23.2251 35.5756 23.2606 35.5805 23.2971 35.5829C23.3131 35.5855 23.3297 35.5855 23.3458 35.586C23.2462 35.0712 23.5537 34.7301 23.5537 34.7301C23.7116 34.4924 23.9399 34.3071 24.1998 34.1763C24.9769 33.7864 26.0375 33.885 26.3544 34.5198C28.3627 33.9904 30.0886 31.9717 30.0886 31.9717L31.0772 33.6543C28.9812 34.355 24.416 38.3237 27.585 39.6983C27.5838 40.0984 27.5302 43.0679 25.626 42.832C22.8837 42.4943 22.1998 43.6289 22.7264 44.9043C22.4789 45.9799 23.3071 46.3533 23.3071 46.3533C23.1828 45.732 23.4816 45.2173 24.6149 45.2238C24.6091 46.3572 25.3411 46.5615 25.3411 46.5615C25.3463 45.591 26.0207 45.2315 26.6199 45.2342C26.6154 46.0339 27.5446 46.3379 27.5446 46.3379C27.5446 46.3379 27.309 45.4162 28.3593 45.2342C31.0181 44.7709 28.521 42.0364 32.5643 41.2829C32.5643 41.2829 30.5509 40.9793 30.5509 39.8787C30.5509 38.8768 32.3735 38.1918 33.0009 38.1918C34.2877 40.6505 35.6858 40.67 36.0522 40.6875C36.6221 41.324 36.4311 43.4696 35.6084 43.4274C32.5966 43.2657 32.7068 45.0977 33.0443 45.4725C33.0058 46.1836 33.5591 46.5943 33.5591 46.5943C33.5591 45.8321 34.2843 45.6178 35.2145 45.6681C35.1656 46.5993 35.7589 46.7384 35.7589 46.7384C35.7751 45.8013 36.4684 45.6424 36.9609 45.6681C36.9249 46.3249 37.5767 46.5182 37.5767 46.5182C37.5767 46.5182 37.5126 45.6847 38.3901 45.6847C40.0547 45.6835 37.6372 42.1161 40.886 38.5879C38.0321 39.909 36.5138 36.6067 36.5138 35.973C37.9806 37.6895 42.7365 38.0322 42.7365 35.1C42.7365 32.2989 39.6578 31.2551 41.0982 30.1838C41.9359 29.5609 43.5834 30.8193 42.6408 32.1193C43.9925 31.6184 44.7458 30.3096 44.3323 29.2128ZM26.0904 29.3011C25.0144 29.9337 24.2931 30.7341 23.3122 31.0842C23.1633 31.1365 23.0445 31.1514 22.9412 31.1447V25.6773C23.2011 25.7016 23.8755 25.7939 24.664 26.1199C25.445 26.546 25.445 27.4268 24.4594 27.6356C25.0823 28.8283 27.2401 28.2444 27.7104 27.273C27.9408 27.2525 28.1444 27.6637 28.3359 28.0525C28.033 28.2098 27.4134 28.5223 26.0904 29.3011ZM38.1331 20.2374C38.0147 20.398 37.8981 20.5577 37.7958 20.6945C38.0687 21.148 38.5821 21.4315 39.1445 21.3795C39.9218 21.3059 40.494 20.616 40.4225 19.8379C40.4184 19.8097 40.4145 19.7842 40.4107 19.7565C40.3274 20.1594 39.8525 20.5006 39.2486 20.5564C38.7912 20.5993 38.3772 20.468 38.1331 20.2374Z" fill="#D1D3D4"/>
<path d="M20.7495 16.9473C20.7495 16.9481 20.7475 16.9501 20.7475 16.9519H20.7469C20.759 16.923 20.7718 16.8941 20.7865 16.8658C20.7725 16.8927 20.76 16.9191 20.7495 16.9473ZM20.7989 39.8792C20.8 39.8784 20.8022 39.8784 20.8026 39.8769C20.8017 39.8787 20.8002 39.8787 20.7989 39.8792ZM20.3535 39.7447L21.0265 39.7438C20.9443 39.7782 20.8701 39.8232 20.8026 39.8769C20.8695 39.8513 20.9404 39.8358 21.0156 39.8358C21.3531 39.8358 21.6264 40.1092 21.6264 40.447C21.6264 40.7843 21.3531 41.0577 21.0156 41.0577C20.7423 41.0577 20.5138 40.8784 20.4364 40.6304V40.6857C20.4826 41.2066 20.9613 41.593 21.5086 41.548C22.0543 41.5054 22.4601 41.0486 22.415 40.5289C22.3831 40.171 22.1454 39.8772 21.8215 39.7424L22.4422 39.7399L22.4393 38.5219L22.069 38.5239V34.6081C21.7071 34.4203 21.4981 34.0111 21.5789 33.5909C21.8106 33.5909 22.0179 33.6511 22.1566 33.746C21.9426 34.2167 22.4748 34.7153 22.4748 34.7153C22.3752 34.2008 22.682 33.8604 22.682 33.8604C22.8412 33.6222 23.0694 33.4367 23.3282 33.3057C24.1063 32.9155 25.1662 33.0141 25.4832 33.6486C27.4916 33.12 29.2176 31.1004 29.2176 31.1004L30.2067 32.7818C32.525 32.7818 31.7181 31.0458 31.5666 30.8944C32.1003 30.8944 32.8509 31.2871 32.8509 32.1566C32.8509 34.2918 26.6438 34.596 26.6438 37.1877C26.6438 38.2759 27.7224 38.6898 27.7224 38.6898C27.7224 41.0528 26.0998 42.4565 24.9899 42.4565C23.2151 42.4565 21.856 42.0971 21.856 44.0323H22.4748C21.887 44.62 22.4355 45.4821 22.4355 45.4821C22.3117 44.8616 22.6114 44.3479 23.7445 44.3533H24.4514C24.0022 44.8023 24.2646 45.4839 24.4714 45.6919C24.4753 44.7201 25.1491 44.3608 25.749 44.3644C25.9666 44.3644 26.2621 44.3644 26.2621 44.3644C26.1225 44.502 26.3468 45.1408 26.6742 45.4669C26.6742 45.4669 26.4375 44.5464 27.489 44.3644C30.1468 43.9011 27.6493 41.1667 31.6928 40.412C31.6928 40.412 29.6807 40.1093 29.6807 39.0075C29.6807 38.0073 31.5023 37.3208 32.1288 37.3208C32.6226 37.2502 33.0929 37.268 33.4955 37.3544C33.6592 38.9417 35.4815 38.8646 35.8787 38.8646C37.4247 40.4108 35.4857 42.8929 35.4857 42.8929C33.1129 42.8929 32.1738 43.2203 32.1738 44.6021H32.6229C32.3713 44.855 32.514 45.5505 32.6873 45.7241C32.6873 44.9613 33.4139 44.7482 34.344 44.7973H34.8331C34.5944 45.0358 34.6366 45.6158 34.8893 45.8676C34.9032 44.9304 35.5974 44.7713 36.0907 44.7973H36.4984C36.3458 44.9514 36.4984 45.4401 36.7075 45.6493C36.7075 45.6493 36.6431 44.8151 37.5201 44.8141C39.1854 44.8141 36.7665 41.2455 40.0172 37.7175C37.1634 39.0392 35.6438 35.7359 35.6438 35.1021C37.1109 36.8192 41.8677 37.1617 41.8677 34.2304C41.8677 31.8652 39.6736 30.7536 39.8554 29.8198C39.9185 29.105 40.518 28.5447 41.2503 28.5447C42.0231 28.5447 42.6496 29.1725 42.6496 29.9455C42.6496 30.5348 42.2877 31.0381 41.7722 31.2448C41.7733 31.2448 41.7733 31.2434 41.7733 31.2434C41.7722 31.2448 41.7704 31.2463 41.7704 31.2488C43.1209 30.7478 43.8751 29.4385 43.4631 28.342C43.0474 27.2446 41.6207 26.7668 40.2731 27.2756C39.7085 27.4886 39.2495 27.8409 38.9359 28.2592C39.8248 25.7177 43.453 25.1793 43.453 22.8137C43.453 18.8505 37.8245 19.9611 38.6434 22.8149C38.6434 22.772 38.646 22.7297 38.6512 22.6884C38.7947 21.0753 41.6783 20.7456 41.6783 22.8483C41.6783 24.6448 37.9851 25.6406 37.9851 28.0576C37.9851 30.5401 40.7133 31.161 40.7133 33.7733C40.7133 34.0844 40.5489 35.424 38.7367 35.424C36.988 35.424 36.1473 34.4465 35.6698 33.1709C34.7791 31.4501 35.1063 28.7639 34.1033 27.6898L34.1829 26.5851C35.0665 27.1273 37.4101 25.8576 35.8707 23.9239C35.8707 24.8758 33.8888 24.8219 33.8888 23.026C33.8888 20.595 36.1603 21.8635 36.2708 22.3999C36.1617 21.515 36.1189 20.9517 36.2682 20.4434C35.0417 20.8373 34.9289 20.1297 35.0815 19.855C35.261 19.5374 35.4981 19.1678 35.9746 19.1678C36.6634 19.1678 36.6197 19.4206 36.5835 19.7768C36.8466 19.379 36.9213 19.0799 37.5335 18.4813L37.5205 18.0317L37.8757 18.1637L38.221 17.6088C37.8517 16.842 37.3496 17.2129 36.9785 16.2614C36.6707 16.1806 32.623 15.8071 32.7631 13.886C32.4049 13.886 31.4298 15.1212 32.0896 15.7821C32.0896 15.7821 31.5674 15.7821 31.2492 15.7821C30.7997 15.8353 29.7508 15.5216 29.0777 16.8953C30.7351 15.2381 31.811 19.1917 28.7582 19.1917V19.1911C28.3077 19.1922 27.9214 19.0044 27.8952 18.6867C27.591 20.0211 29.5142 20.4364 29.5142 20.4364C29.5142 20.8329 28.5508 22.9791 28.0827 23.4468C28.3982 23.7625 28.4963 25.6682 27.0373 25.6682C27.5634 24.2455 26.016 23.0401 24.5131 22.2428C24.5145 22.2428 24.5145 22.2428 24.5151 22.2428C24.243 22.1393 23.9838 22.0135 23.7438 21.8621C22.8211 21.4405 22.0711 21.2032 22.0711 21.2032V20.088C22.5351 19.8604 23.0439 19.4585 23.5726 18.7869C23.9857 18.2837 24.2079 17.6377 24.1476 16.9511C24.1411 16.8691 24.129 16.7894 24.1127 16.7092C24.109 16.6842 24.1032 16.6604 24.0979 16.6355C24.0858 16.5802 24.0723 16.5258 24.0564 16.4726C24.0492 16.4455 24.0415 16.42 24.0321 16.3931C24.0146 16.3383 23.9947 16.2848 23.9743 16.2328C23.9652 16.2107 23.9576 16.1896 23.9485 16.1678C23.9183 16.0991 23.8853 16.0316 23.8504 15.9669C23.8365 15.9392 23.8195 15.9143 23.805 15.888C23.7806 15.8483 23.757 15.8091 23.7316 15.7706C23.7106 15.7398 23.6895 15.7082 23.6669 15.6776C23.6446 15.6481 23.6221 15.6178 23.5982 15.5896C23.5727 15.5561 23.547 15.5234 23.5193 15.4921C23.5014 15.4714 23.4822 15.4515 23.4629 15.4318C23.3935 15.3567 23.3198 15.2861 23.2423 15.22C23.2345 15.2137 23.2279 15.2051 23.2202 15.1995C23.1767 15.1629 23.1311 15.1276 23.0843 15.0943C23.0719 15.0862 23.0604 15.0757 23.0483 15.0674C22.9988 15.0322 22.9497 14.9999 22.8974 14.9674C22.8944 14.966 22.8913 14.9635 22.8884 14.9624C22.3938 14.6579 21.7957 14.5009 21.1644 14.5503C21.0285 14.5611 20.8962 14.5855 20.7668 14.6131C19.8915 14.9486 19.2544 15.9733 19.2544 17.186C19.2544 18.3289 19.821 19.3034 20.6179 19.6923C20.6287 19.6953 20.6403 19.6998 20.6517 19.7025C20.2719 19.9141 19.9518 20.0363 19.8791 20.0363C19.8915 20.0441 19.9075 20.0529 19.9248 20.0645C19.9292 20.0665 19.9339 20.0689 19.9389 20.0717C19.9542 20.0806 19.9702 20.0895 19.9894 20.0997C19.9941 20.1023 19.9985 20.1049 20.0038 20.1067C20.0265 20.1188 20.053 20.1331 20.0806 20.1466C20.0856 20.148 20.0908 20.1503 20.0947 20.1531C20.1188 20.1645 20.1448 20.1747 20.173 20.1863C20.1807 20.1896 20.1879 20.1929 20.1962 20.196C20.2637 20.2227 20.3373 20.2487 20.4196 20.2716C20.431 20.2742 20.4419 20.2774 20.4536 20.2807C20.4855 20.289 20.5189 20.2968 20.5535 20.3039C20.5651 20.3071 20.5773 20.309 20.5895 20.3116C20.633 20.32 20.6779 20.3275 20.7249 20.3332C20.7282 20.3332 20.7319 20.3338 20.7352 20.3361C21.0251 20.3599 21.3678 20.2879 21.3678 20.2879V20.9348C21.3158 20.9348 20.8601 20.7879 20.7352 20.6629C20.7198 20.6652 20.7031 20.6681 20.6864 20.6712C20.193 20.752 19.8714 20.9039 19.7265 21.3449C19.5821 21.7868 19.7304 21.9465 19.9619 22.2565C19.7649 22.605 19.2537 22.7365 19.9215 23.5097C19.8741 23.8009 19.935 24.2668 20.3593 24.4081C20.4982 24.455 20.6139 24.4786 20.7352 24.5003C20.9866 24.5003 21.3678 24.7104 21.3678 25.2323V30.2108C21.5968 30.224 21.8452 30.2549 22.071 30.2744V24.8063C22.3309 24.8313 23.0059 24.9237 23.7932 25.2484C23.8022 25.2529 23.8092 25.2579 23.817 25.2631C23.8164 25.2625 23.8156 25.2625 23.8156 25.2619C23.8875 25.2708 23.9606 25.2863 24.0329 25.3079C24.5573 25.4691 24.8837 25.9241 24.7612 26.327C24.6388 26.7291 24.1126 26.925 23.5891 26.7644C24.2109 27.958 26.3699 27.374 26.8401 26.4026C27.0693 26.3822 27.2733 26.7935 27.4652 27.1817C27.4652 27.1817 28.0059 27.3888 29.3451 27.3888C29.3451 27.3888 23.9235 30.8502 22.3554 30.8502C21.6854 30.8502 20.1994 30.8502 20.1994 31.3568C19.7911 31.3568 19.2023 32.0508 19.2023 32.4475C19.5884 32.1462 19.9029 32.1462 19.9029 32.1462C20.2321 32.1462 20.4175 32.2446 20.4175 32.2446C20.2969 32.3637 19.7559 32.9743 19.7559 33.4483C20.2089 32.9946 20.4066 32.9965 20.4066 32.9965C20.4066 32.9965 20.88 32.9354 21.0488 33.105C20.9347 33.2182 20.7351 33.6287 20.7351 34.1143C20.7351 34.1143 21.0161 33.5719 21.3677 33.5719V38.7759C21.3677 38.935 20.6497 39.0876 20.3539 39.0876M20.5744 24C20.4408 24.005 20.3773 23.8313 20.3761 23.7685C20.3728 23.7049 20.423 23.5279 20.5564 23.5226C20.874 23.5117 21.5092 23.6641 21.5118 23.7267C21.5143 23.7888 20.8919 23.9885 20.5744 24ZM20.3696 23.141C20.1854 23.128 20.1246 22.8791 20.1308 22.7916C20.1366 22.7058 20.2335 22.4677 20.4175 22.4813C20.8572 22.5142 21.7093 22.8207 21.7021 22.9073C21.6967 22.9951 20.8086 23.1735 20.3696 23.141ZM20.294 22.0405C20.099 21.9892 20.0829 21.71 20.1065 21.6178C20.1309 21.5259 20.2817 21.2905 20.4775 21.3412C20.9422 21.463 21.7967 21.9627 21.7723 22.0544C21.7485 22.1463 20.7591 22.1623 20.294 22.0405ZM21.7338 18.9396C21.8146 18.747 21.7974 18.4839 21.7473 18.2364C21.739 18.2364 21.7306 18.237 21.7222 18.237C21.1629 18.237 20.7098 17.7834 20.7098 17.2252C20.7014 17.1296 20.7147 17.037 20.7469 16.9519H20.7475C20.7475 16.9499 20.7486 16.948 20.7495 16.9473C20.8704 16.5239 21.2591 16.2121 21.7225 16.2121C22.2801 16.2121 22.7346 16.6656 22.7346 17.2252C22.7343 17.8705 22.2798 18.4646 21.7338 18.9396Z" fill="#034694"/>
<path d="M36.9257 19.8238C37.1965 20.2773 37.7111 20.5608 38.2735 20.5084C39.052 20.4357 39.6227 19.7454 39.5515 18.9665C39.5486 18.9389 39.5435 18.9124 39.5399 18.8849C39.4573 19.2873 38.9802 19.6294 38.3775 19.6853C37.9189 19.7282 37.5055 19.5967 37.2614 19.3663C37.1438 19.5274 37.0258 19.6869 36.9257 19.8238Z" fill="#ED1C24"/>
<path d="M35.0354 17.1987L35.5243 17.2245L35.2797 17.5599C35.2797 17.5599 34.9531 17.6632 35.0354 17.1987ZM33.8693 17.1987H34.5736C34.5736 17.1987 34.5482 17.7671 35.0625 17.8179L34.9533 17.999C34.9533 17.999 33.5711 17.6377 33.8693 17.1987Z" fill="white"/>
<path d="M21.7723 22.0545C21.7967 21.9628 20.9423 21.463 20.4776 21.3413C20.2818 21.2906 20.1309 21.526 20.1066 21.6179C20.0828 21.7101 20.0989 21.9893 20.294 22.0406C20.7592 22.1624 21.7486 22.1463 21.7723 22.0545ZM21.7023 22.9072C21.7095 22.8206 20.8574 22.5142 20.4177 22.4812C20.2337 22.4677 20.1368 22.7058 20.1309 22.7916C20.1248 22.8791 20.1855 23.128 20.3698 23.141C20.8086 23.1736 21.6967 22.9952 21.7023 22.9072ZM20.7348 20.3358V20.6625C20.8598 20.7876 21.3154 20.9344 21.3674 20.9344V20.2875C21.3675 20.2876 21.0249 20.3594 20.7348 20.3358ZM20.5564 23.5226C20.423 23.5279 20.3729 23.7048 20.3762 23.7685C20.3773 23.8313 20.4409 24.0051 20.5745 23.9999C20.8919 23.9886 21.5143 23.7888 21.5118 23.7265C21.5092 23.6641 20.874 23.5116 20.5564 23.5226ZM19.9026 32.146C19.3771 32.8269 19.7556 33.4481 19.7556 33.4481C19.7556 32.9739 20.2965 32.3634 20.4172 32.2443C20.4172 32.2444 20.2319 32.146 19.9026 32.146ZM21.5791 33.5907C21.4983 34.0108 21.7073 34.4199 22.0692 34.6079C22.1462 34.6478 22.2298 34.6794 22.3175 34.6967C22.3551 34.7053 22.3903 34.7098 22.4268 34.714C22.4428 34.7142 22.459 34.7145 22.475 34.7151C22.475 34.7151 21.9429 34.2169 22.1568 33.746C22.018 33.6507 21.8108 33.5907 21.5791 33.5907ZM20.6174 19.6922C19.8206 19.3033 19.254 18.3288 19.254 17.1861C19.254 15.9735 19.891 14.9487 20.7663 14.6132C19.4521 14.9043 18.525 16.0723 18.641 17.3888C18.7393 18.504 19.5541 19.3957 20.6174 19.6922ZM29.0773 16.8953C29.923 16.7361 30.2099 17.488 30.2099 17.7571C30.2099 18.7765 29.416 19.1872 28.7579 19.1911V19.1917C31.8107 19.1917 30.7349 15.2381 29.0773 16.8953ZM27.0368 25.6682C28.4958 25.6682 28.3978 23.7626 28.0822 23.4468C28.5504 22.9791 29.5137 20.8329 29.5137 20.4364C29.5137 20.4364 27.588 20.0212 27.8955 18.6848C27.8949 18.684 27.8949 18.6834 27.8949 18.6823L27.8692 18.6776C27.3444 19.2313 27.6635 20.3863 28.496 20.6744C28.496 20.6744 28.1747 21.9442 27.3815 22.7494C26.5918 22.7187 25.485 22.6149 24.5128 22.2427C26.0156 23.0403 27.5631 24.2457 27.0368 25.6682ZM21.3373 16.5187C21.7145 16.4886 22.0468 16.756 22.0789 17.1165C22.1102 17.4752 21.8293 17.7923 21.4514 17.8222C21.0727 17.8527 20.7398 17.5852 20.7097 17.2251C20.7097 17.7832 21.1628 18.2369 21.7221 18.2369C21.7304 18.2369 21.7388 18.2363 21.7472 18.2363C21.7973 18.4838 21.8145 18.7469 21.7337 18.9395C22.2799 18.4645 22.7342 17.8704 22.7342 17.225C22.7342 16.6655 22.2799 16.2119 21.7221 16.2119C21.2564 16.2119 20.8663 16.5256 20.7471 16.9517C20.8355 16.7175 21.0594 16.5412 21.3373 16.5187ZM32.0893 15.7821C31.4295 15.1212 32.4046 13.886 32.7628 13.886C32.371 13.886 30.6722 14.9983 31.2489 15.7821C31.5671 15.7821 32.0893 15.7821 32.0893 15.7821ZM23.5888 26.7641C24.1121 26.9248 24.6383 26.7289 24.7609 26.3267C24.8835 25.9238 24.5569 25.4688 24.0326 25.3076C23.9603 25.286 23.8872 25.2705 23.8153 25.2617C24.5723 25.6933 24.5635 26.5594 23.5888 26.7641ZM22.0706 21.2032C22.0706 21.2032 22.8206 21.4405 23.7433 21.8621C23.558 21.7472 23.3842 21.6177 23.2281 21.4707C22.7597 21.028 22.387 20.7868 22.0706 20.6643V21.2032ZM22.3551 30.85C23.9232 30.85 29.3448 27.3885 29.3448 27.3885C28.0057 27.3885 27.4648 27.1814 27.4648 27.1814C27.1625 27.3389 26.5422 27.6502 25.2197 28.4291C24.1437 29.0625 23.4224 29.8634 22.4413 30.2129C22.2919 30.267 22.1731 30.2796 22.0706 30.274C21.8448 30.2545 21.5964 30.2238 21.3674 30.2102V25.2319C21.3674 24.7098 20.9862 24.4999 20.7348 24.4999V30.2934C20.3107 30.5182 20.102 30.7975 19.9873 31.0587C19.9873 31.0587 19.1788 30.9509 19.2019 32.4471C19.2019 32.0503 19.7908 31.3563 20.1991 31.3563C20.1991 30.85 21.6851 30.85 22.3551 30.85ZM35.8788 38.8645C35.4817 38.8645 33.6593 38.9417 33.4956 37.3543C33.0929 37.2678 32.6227 37.2504 32.1289 37.3206C33.4172 39.7794 34.8158 39.7991 35.1817 39.8179C35.7512 40.4532 35.5604 42.5984 34.7377 42.5553C31.7259 42.3949 31.8363 44.2272 32.1737 44.602C32.1737 43.2204 33.1129 42.8928 35.4855 42.8928C35.4857 42.8928 37.4249 40.4108 35.8788 38.8645ZM36.4982 44.7974H36.0905C36.0561 45.4556 36.7076 45.6494 36.7076 45.6494C36.4982 45.4401 36.3456 44.9514 36.4982 44.7974ZM32.6871 45.7241C32.5137 45.5505 32.371 44.8551 32.6227 44.602H32.1737C32.1362 45.3143 32.6871 45.7241 32.6871 45.7241ZM41.6775 22.8484C41.6775 20.745 38.7928 21.0755 38.6504 22.6906C38.7777 21.5068 40.705 21.3321 40.705 22.815C40.705 24.3473 37.1105 25.3512 37.1105 27.941C37.1105 30.7948 39.964 31.0588 39.6754 33.6678C39.6265 34.1195 39.1426 34.7097 38.442 34.7097C36.9399 34.7097 36.1358 34.0721 35.6689 33.1711C36.1464 34.4466 36.9868 35.4243 38.7358 35.4243C40.5479 35.4243 40.7124 34.0849 40.7124 33.7737C40.7124 31.1616 37.9842 30.5405 37.9842 28.058C37.9845 25.6407 41.6775 24.6449 41.6775 22.8484ZM20.4062 32.9963C20.4062 33.8018 20.7348 34.1142 20.7348 34.1142C20.7348 33.6286 20.9344 33.2181 21.0485 33.1049C20.8798 32.9351 20.4062 32.9963 20.4062 32.9963ZM41.25 28.5446C40.5178 28.5446 39.9182 29.1049 39.8551 29.8197C39.8884 29.6481 40.0028 29.4814 40.2261 29.3145C41.0649 28.691 42.7091 29.9469 41.7713 31.2449C42.2868 31.0379 42.6489 30.5349 42.6489 29.9454C42.6492 29.1724 42.0229 28.5446 41.25 28.5446ZM34.8328 44.7974H34.3437C34.2937 45.7276 34.889 45.8676 34.889 45.8676C34.6364 45.6158 34.5943 45.0357 34.8328 44.7974ZM21.0158 39.8359C20.9402 39.8359 20.8696 39.8515 20.8023 39.8771C20.5698 40.0541 20.4281 40.329 20.4365 40.6305C20.514 40.8785 20.7425 41.0578 21.0158 41.0578C21.3533 41.0578 21.6266 40.7844 21.6266 40.4471C21.6266 40.1093 21.3533 39.8359 21.0158 39.8359ZM24.4517 44.3533H23.7447C23.7386 45.4864 24.4715 45.6919 24.4715 45.6919C24.2649 45.4839 24.0026 44.8022 24.4517 44.3533ZM26.644 37.1878C26.644 34.5961 32.8511 34.2919 32.8511 32.1567C32.8511 31.2871 32.1005 30.8945 31.5668 30.8945C31.7179 31.0458 32.5252 32.7819 30.2069 32.7819C28.1105 33.4835 23.5453 37.4519 26.7141 38.8276C26.7126 39.2264 26.6589 42.1962 24.7557 41.9628C22.0141 41.6235 21.3301 42.7569 21.8563 44.0323C21.8563 42.0971 23.2153 42.4566 24.9901 42.4566C26.1 42.4566 27.7226 41.053 27.7226 38.6898C27.7226 38.6898 26.644 38.276 26.644 37.1878ZM21.3675 38.7762V33.572C21.0158 33.572 20.7348 34.1142 20.7348 34.1142L20.7349 38.5544V38.526L20.3504 38.5271L20.3537 39.0877C20.6495 39.0876 21.3675 38.9351 21.3675 38.7762ZM22.4359 45.4821C22.4359 45.4821 21.8872 44.62 22.4751 44.0323H21.8563C21.6079 45.1091 22.4359 45.4821 22.4359 45.4821ZM26.2623 44.3646C26.2623 44.3646 25.9668 44.3646 25.7492 44.3646C25.7453 45.1643 26.6744 45.4671 26.6744 45.4671C26.347 45.1412 26.1227 44.5021 26.2623 44.3646Z" fill="#6A7AB5"/>
<path d="M9.0027 35.7245L8.9685 35.6195L8.95386 35.5102C8.90375 35.1359 8.81325 34.4388 8.27503 34.3141C8.13114 34.2806 7.98245 34.2978 7.82379 34.3631C7.86696 34.1975 7.86191 34.0475 7.8099 33.9101C7.61148 33.3941 6.90905 33.4006 6.53165 33.4055H6.42069L6.31139 33.3853C5.94067 33.3171 5.2491 33.1879 4.96535 33.6615C4.88911 33.788 4.85882 33.9344 4.87182 34.1049C4.72818 34.0123 4.5834 33.9708 4.43736 33.9778C3.88501 34.0072 3.67384 34.6775 3.56087 35.0382L3.52641 35.143L3.47517 35.2403C3.29416 35.5727 2.95854 36.1887 3.32105 36.606C3.41786 36.7175 3.54812 36.7922 3.71449 36.8316C3.58296 36.9405 3.49801 37.0651 3.4609 37.2076C3.31663 37.7405 3.88943 38.1481 4.19615 38.3665L4.28615 38.4329L4.36365 38.5112C4.62354 38.7863 5.10647 39.2952 5.61502 39.0798C5.74957 39.0218 5.86115 38.9215 5.95052 38.7757C6.01413 38.9347 6.10564 39.0526 6.22896 39.1339C6.6922 39.4339 7.25629 39.0159 7.55973 38.7927L7.64947 38.727L7.74906 38.6781C8.08986 38.5149 8.72476 38.2136 8.6768 37.6632C8.66405 37.5155 8.60232 37.3799 8.49188 37.25C8.6619 37.2399 8.80251 37.1884 8.91662 37.0959C9.34679 36.7484 9.12286 36.0826 9.0027 35.7245Z" fill="white"/>
<path d="M6.58301 36.171C9.67319 37.9974 8.72147 35.9889 8.65356 35.6919C8.58515 35.396 8.55915 33.1743 6.58301 36.171Z" fill="#ED1C24"/>
<path d="M6.38871 36.6281C5.60664 40.1301 7.22266 38.6055 7.48331 38.4503C7.74384 38.2936 9.84872 37.5818 6.38871 36.6281Z" fill="#ED1C24"/>
<path d="M5.89253 36.5857C2.31892 36.923 4.26944 37.9894 4.49853 38.1886C4.72826 38.3872 6.05448 40.1701 5.89253 36.5857Z" fill="#ED1C24"/>
<path d="M5.78052 36.0994C4.3542 32.8056 3.94284 34.9898 3.82407 35.2704C3.70529 35.5486 2.41946 37.362 5.78052 36.0994Z" fill="#ED1C24"/>
<path d="M56.8237 35.2406L56.7727 35.1432L56.7377 35.0385C56.6248 34.6776 56.4136 34.0075 55.8628 33.978C55.7151 33.971 55.5711 34.0122 55.4274 34.1039C55.4405 33.9345 55.4085 33.7881 55.3343 33.6616C55.0493 33.1878 54.3587 33.3171 53.988 33.3853L53.8775 33.4055H53.7671C53.3911 33.4006 52.688 33.3942 52.4903 33.9102C52.4366 34.0475 52.4327 34.1976 52.4748 34.3631C52.3186 34.2979 52.1696 34.281 52.0247 34.3142C51.487 34.4387 51.3946 35.1359 51.347 35.5102L51.3305 35.6196L51.2972 35.7246C51.1764 36.0826 50.9532 36.7484 51.3833 37.0963C51.4974 37.1887 51.637 37.2403 51.808 37.2504C51.6976 37.3803 51.636 37.516 51.6231 37.6635C51.5755 38.214 52.2094 38.5153 52.5508 38.6785L52.6494 38.7273L52.7391 38.7931C53.0436 39.0165 53.6082 39.4343 54.0699 39.1343C54.1949 39.053 54.2856 38.9351 54.3485 38.7761C54.4385 38.9218 54.5489 39.0222 54.6847 39.0803C55.193 39.2956 55.6765 38.7867 55.9361 38.5116L56.0142 38.4334L56.103 38.3668C56.4107 38.1486 56.9831 37.7409 56.8394 37.2081C56.8009 37.0652 56.7175 36.9409 56.5851 36.832C56.7509 36.7925 56.8815 36.7179 56.9778 36.6064C57.341 36.189 57.0058 35.573 56.8237 35.2406Z" fill="white"/>
<path d="M54.0918 35.8439C51.4008 33.4698 53.6042 33.7532 53.9072 33.7265C54.2087 33.7012 56.3309 33.0385 54.0918 35.8439Z" fill="#ED1C24"/>
<path d="M53.7173 36.171C50.6271 37.9974 51.5769 35.9889 51.6462 35.6919C51.714 35.396 51.7396 33.1743 53.7173 36.171Z" fill="#ED1C24"/>
<path d="M53.9108 36.6281C54.6933 40.1301 53.0771 38.6055 52.816 38.4503C52.5557 38.2936 50.4516 37.5818 53.9108 36.6281Z" fill="#ED1C24"/>
<path d="M54.4063 36.5857C57.9801 36.923 56.0309 37.9894 55.801 38.1886C55.5726 38.3872 54.2445 40.1701 54.4063 36.5857Z" fill="#ED1C24"/>
<path d="M54.5177 36.0994C55.9449 32.8056 56.3554 34.9898 56.4747 35.2704C56.5928 35.5486 57.8786 37.362 54.5177 36.0994Z" fill="#ED1C24"/>
<path d="M55.2119 36.2021C55.2085 36.1735 55.1993 36.1479 55.1954 36.1201C55.4823 35.9093 55.7923 35.6835 55.7923 35.6835L55.7625 35.6167C55.7625 35.6167 55.4009 35.6798 55.054 35.7403C54.88 35.455 54.5832 35.2615 54.2434 35.2284C54.1355 34.9041 54.0277 34.5736 54.0277 34.5736L53.955 34.5798C53.955 34.5798 53.9062 34.9241 53.8569 35.2614C53.6482 35.3178 53.4607 35.436 53.3182 35.6051C53.2422 35.6962 53.1873 35.7994 53.1437 35.907C52.7943 35.907 52.4251 35.9082 52.4251 35.9082L52.4095 35.9801C52.4095 35.9801 52.7538 36.1479 53.0717 36.3035C53.0729 36.3325 53.0691 36.3612 53.0717 36.3905C53.0961 36.6706 53.2272 36.922 53.4388 37.1054C53.3271 37.4545 53.2013 37.8447 53.2013 37.8447L53.2629 37.8819C53.2629 37.8819 53.5529 37.5816 53.811 37.3166C53.9458 37.3609 54.0893 37.3783 54.2343 37.3654C54.3805 37.3543 54.5191 37.3105 54.6448 37.2453C54.9441 37.4607 55.2816 37.7048 55.2816 37.7048L55.3369 37.6572C55.3369 37.6572 55.1455 37.2956 54.975 36.9719C55.1519 36.7535 55.2352 36.4816 55.2119 36.2021Z" fill="white"/>
<path d="M54.0865 35.6644C53.9171 35.6775 53.7645 35.7576 53.6555 35.8885C53.5466 36.0182 53.4939 36.1822 53.5094 36.3507C53.5389 36.6996 53.8479 36.959 54.1958 36.9282C54.3664 36.9126 54.5178 36.833 54.6282 36.7037C54.7361 36.5728 54.7886 36.4099 54.7744 36.2402C54.744 35.8912 54.4346 35.6329 54.0865 35.6644Z" fill="#ED1C24"/>
<path d="M6.20762 35.8439C8.89957 33.4698 6.69484 33.7532 6.39279 33.7265C6.08973 33.7012 3.96793 33.0385 6.20762 35.8439Z" fill="#ED1C24"/>
<path d="M7.22678 36.3035C7.547 36.148 7.88957 35.98 7.88957 35.98L7.87353 35.908C7.87353 35.908 7.50509 35.9069 7.15482 35.9069C7.11241 35.7994 7.05725 35.6961 6.98089 35.6051C6.83851 35.436 6.6512 35.3179 6.44192 35.2613C6.39395 34.9238 6.3451 34.5798 6.3451 34.5798L6.27114 34.5736C6.27114 34.5736 6.16398 34.9038 6.0577 35.2284C5.71576 35.2615 5.41863 35.455 5.24482 35.7403C4.89935 35.6798 4.53558 35.6167 4.53558 35.6167L4.50757 35.6835C4.50757 35.6835 4.81682 35.9093 5.10359 36.1201C5.09892 36.148 5.09059 36.1736 5.08755 36.202C5.06384 36.483 5.14902 36.7535 5.32561 36.9718C5.1537 37.2953 4.96234 37.6572 4.96234 37.6572L5.01901 37.7048C5.01901 37.7048 5.3559 37.4607 5.65492 37.2452C5.78064 37.3109 5.91911 37.353 6.06489 37.3654C6.21106 37.3785 6.3542 37.3608 6.489 37.3165C6.74637 37.5817 7.03593 37.8819 7.03593 37.8819L7.09942 37.8447C7.09942 37.8447 6.97344 37.4543 6.86111 37.1064C7.07228 36.9217 7.20329 36.6703 7.22816 36.3902C7.2312 36.3612 7.22678 36.3325 7.22678 36.3035Z" fill="white"/>
<path d="M6.64424 35.8886C6.53493 35.7577 6.38309 35.6774 6.21294 35.6645C5.8652 35.633 5.55583 35.8914 5.52553 36.2405C5.51115 36.4101 5.56353 36.5731 5.67145 36.704C5.7805 36.8332 5.93386 36.9129 6.10313 36.9284C6.45087 36.9592 6.76011 36.6997 6.79028 36.3509C6.80455 36.1823 6.75254 36.0183 6.64424 35.8886Z" fill="#ED1C24"/>
<path d="M6.60103 20.91C5.09658 20.6443 3.656 21.6542 3.39018 23.1587C3.12473 24.6641 4.1335 26.1046 5.63807 26.3703C7.14391 26.6358 8.58512 25.6264 8.85006 24.1212C9.11639 22.6165 8.10699 21.1761 6.60103 20.91Z" fill="white"/>
<path d="M7.22863 23.0068C7.20429 22.9919 7.16186 22.9644 7.11049 22.9305C6.88316 22.7798 6.43747 22.485 6.42523 22.4762C6.3635 22.4338 6.30342 22.3934 6.24422 22.3535C6.04605 22.2207 5.86884 22.1052 5.70222 22.0091C5.63798 21.9726 5.57587 21.9385 5.51339 21.9079C5.24845 21.7743 4.99449 21.6935 4.69471 21.6671C4.4636 21.834 4.26303 22.0406 4.10059 22.2794C4.78989 22.5283 5.46291 22.9269 6.86423 23.7974C6.94438 23.6121 7.2126 23.0416 7.22863 23.0068Z" fill="#ED1C24"/>
<path d="M6.58254 24.4927C6.61055 24.4229 6.73375 24.1111 6.78411 23.9911C5.34808 23.0991 4.68125 22.7044 3.99043 22.4601C3.88327 22.6525 3.80299 22.8624 3.75061 23.0858C4.14493 23.6272 5.20166 24.1591 6.58254 24.4927Z" fill="#ED1C24"/>
<path d="M6.42696 22.2259C6.96467 21.9078 7.57559 21.9944 8.04716 22.1553C7.87133 21.9283 7.65839 21.7298 7.41074 21.5753C6.96531 21.4867 6.35009 21.4728 5.86035 21.8621C6.03845 21.9667 6.22236 22.0888 6.42696 22.2259Z" fill="#ED1C24"/>
<path d="M4.2815 24.795C4.35344 24.8444 4.42716 24.8913 4.50554 24.9354C4.66382 25.0229 4.83523 25.0985 5.01233 25.1632C5.08743 25.1916 5.16379 25.218 5.24079 25.2429C5.51015 25.3315 6.12826 25.492 6.17433 25.5028C6.18381 25.479 6.41541 24.9062 6.50326 24.6886C5.43264 24.423 4.26029 23.9583 3.70327 23.3539C3.66982 23.633 3.68282 23.9091 3.74177 24.1709C3.85928 24.4268 4.04798 24.6308 4.2815 24.795Z" fill="#ED1C24"/>
<path d="M6.21046 25.7266L5.98704 25.669C5.77991 25.6164 5.55536 25.5574 5.32703 25.4874C5.43835 25.7247 5.61355 25.9096 5.80036 26.0527C6.05066 26.0859 6.29768 26.0796 6.5351 26.0386C6.36356 25.9052 6.21046 25.7266 6.21046 25.7266Z" fill="#ED1C24"/>
<path d="M8.44954 22.9333C8.39867 22.767 8.3319 22.606 8.24796 22.4559C7.82587 22.2677 7.18302 22.0838 6.62158 22.3584L7.39596 22.8698C7.5574 22.8554 7.70596 22.8509 7.8419 22.8542C7.91612 22.8554 7.98504 22.8594 8.05093 22.8658C8.20252 22.8792 8.3319 22.9036 8.44954 22.9333Z" fill="#ED1C24"/>
<path d="M8.05311 23.0749C8.03051 24.3474 7.43058 25.3289 6.91357 25.943C7.72278 25.6618 8.36097 24.9644 8.52013 24.0636C8.57466 23.7557 8.56507 23.4529 8.50802 23.1647C8.3823 23.1256 8.23197 23.0929 8.05311 23.0749Z" fill="#ED1C24"/>
<path d="M5.66698 21.7543C6.02937 21.4348 6.45739 21.3269 6.85208 21.3181C6.75186 21.286 6.64975 21.2584 6.54334 21.2403C5.98052 21.141 5.42993 21.2456 4.96228 21.499C5.21132 21.5477 5.43637 21.635 5.66698 21.7543Z" fill="#ED1C24"/>
<path d="M7.4255 23.0761C7.24134 23.4597 7.13304 23.6946 7.04317 23.9083C7.01553 23.973 6.98864 24.0359 6.9615 24.1013C6.91859 24.2085 6.7863 24.5416 6.7863 24.5416L6.70742 24.7371L6.36548 25.5842C6.45977 25.7092 6.574 25.8112 6.68634 25.8909C7.19438 25.3114 7.82663 24.3375 7.84594 23.0626C7.71808 23.0581 7.57747 23.0627 7.4255 23.0761Z" fill="#ED1C24"/>
<path d="M5.0707 25.4032C4.90017 25.3445 4.7299 25.2776 4.56909 25.1992C4.62917 25.3847 4.71576 25.5495 4.80298 25.6908C4.98537 25.8078 5.18556 25.9001 5.39925 25.966C5.26079 25.81 5.14126 25.6254 5.0707 25.4032Z" fill="#ED1C24"/>
<path d="M4.31824 25.0621C4.20262 24.9928 4.09507 24.9157 3.99548 24.831C4.1082 25.0326 4.2502 25.2174 4.41492 25.3794C4.37579 25.2783 4.34146 25.1737 4.31824 25.0621Z" fill="#ED1C24"/>
<path d="M51.1489 24.1214C51.4149 25.6266 52.855 26.636 54.3599 26.3704C55.8652 26.1048 56.8738 24.6642 56.6094 23.1588C56.3437 21.6543 54.9029 20.6444 53.3975 20.9101C51.8923 21.1761 50.8836 22.6165 51.1489 24.1214Z" fill="white"/>
<path d="M52.7701 23.0068C52.794 22.9919 52.8367 22.9644 52.8892 22.9305C53.1167 22.7798 53.5617 22.485 53.573 22.4762C53.6362 22.4338 53.6964 22.3934 53.7554 22.3535C53.9515 22.2207 54.1302 22.1052 54.2971 22.0091C54.3612 21.9726 54.424 21.9385 54.4854 21.9079C54.7497 21.7743 55.005 21.6935 55.3043 21.6671C55.5353 21.834 55.7367 22.0406 55.8969 22.2794C55.2081 22.5283 54.5371 22.9269 53.134 23.7974C53.0536 23.6121 52.7867 23.0416 52.7701 23.0068Z" fill="#ED1C24"/>
<path d="M53.4167 24.4927C53.3883 24.4229 53.2641 24.1111 53.2166 23.9911C54.6498 23.0991 55.3187 22.7044 56.009 22.4601C56.1155 22.6525 56.1963 22.8624 56.2488 23.0858C55.8538 23.6272 54.7972 24.1591 53.4167 24.4927Z" fill="#ED1C24"/>
<path d="M53.5722 22.2259C53.034 21.9078 52.4236 21.9944 51.9513 22.1553C52.1274 21.9283 52.3416 21.7298 52.5891 21.5753C53.034 21.4867 53.6489 21.4728 54.138 21.8621C53.9613 21.9667 53.7761 22.0888 53.5722 22.2259Z" fill="#ED1C24"/>
<path d="M55.7163 24.795C55.646 24.8444 55.5726 24.8913 55.4928 24.9354C55.3353 25.0229 55.1641 25.0985 54.9874 25.1632C54.9117 25.1916 54.8348 25.218 54.7579 25.2429C54.49 25.3315 53.8712 25.492 53.8248 25.5028C53.8144 25.479 53.5822 24.9062 53.4961 24.6886C54.5663 24.423 55.7378 23.9583 56.2965 23.3539C56.3298 23.633 56.3154 23.9091 56.2575 24.1709C56.1396 24.4268 55.9512 24.6308 55.7163 24.795Z" fill="#ED1C24"/>
<path d="M53.7892 25.7266L54.0111 25.669C54.2189 25.6164 54.4448 25.5574 54.6733 25.4874C54.5603 25.7247 54.3859 25.9096 54.1994 26.0527C53.9495 26.0859 53.7017 26.0796 53.4656 26.0386C53.6351 25.9052 53.7892 25.7266 53.7892 25.7266Z" fill="#ED1C24"/>
<path d="M51.5496 22.9333C51.6008 22.767 51.6664 22.606 51.7524 22.4559C52.1732 22.2677 52.8147 22.0838 53.3765 22.3584L52.6029 22.8698C52.4412 22.8554 52.2928 22.8509 52.1564 22.8542C52.0832 22.8554 52.0139 22.8594 51.9472 22.8658C51.7958 22.8792 51.6678 22.9036 51.5496 22.9333Z" fill="#ED1C24"/>
<path d="M51.9462 23.0749C51.9681 24.3474 52.5696 25.3289 53.0871 25.943C52.2757 25.6618 51.6368 24.9644 51.4793 24.0636C51.4252 23.7557 51.4329 23.4529 51.4919 23.1647C51.6166 23.1256 51.7679 23.0929 51.9462 23.0749Z" fill="#ED1C24"/>
<path d="M54.3328 21.7543C53.9702 21.4348 53.5413 21.3269 53.1472 21.3181C53.2471 21.286 53.3487 21.2584 53.4561 21.2403C54.0184 21.141 54.5689 21.2456 55.0364 21.499C54.7884 21.5477 54.5628 21.635 54.3328 21.7543Z" fill="#ED1C24"/>
<path d="M52.5739 23.0761C52.7585 23.4597 52.8648 23.6946 52.9577 23.9083C52.9844 23.973 53.01 24.0359 53.0371 24.1013C53.0808 24.2085 53.2129 24.5416 53.2129 24.5416L53.2913 24.7371L53.634 25.5842C53.5391 25.7092 53.4257 25.8112 53.313 25.8909C52.8052 25.3114 52.1719 24.3375 52.1541 23.0626C52.2813 23.0581 52.4225 23.0627 52.5739 23.0761Z" fill="#ED1C24"/>
<path d="M54.9286 25.4032C55.0993 25.3445 55.2683 25.2776 55.4306 25.1992C55.3688 25.3847 55.284 25.5495 55.1955 25.6908C55.0133 25.8078 54.8132 25.9001 54.6003 25.966C54.7386 25.81 54.858 25.6254 54.9286 25.4032Z" fill="#ED1C24"/>
<path d="M55.6818 25.0621C55.7959 24.9928 55.9037 24.9157 56.0038 24.831C55.8908 25.0326 55.7498 25.2174 55.5845 25.3794C55.6228 25.2783 55.6574 25.1737 55.6818 25.0621Z" fill="#ED1C24"/>
</g>
<defs>
<clipPath id="clip0_593_599">
<rect width="60" height="60" fill="white"/>
</clipPath>
</defs>
</svg>
