<svg width="271" height="152" viewBox="0 0 271 152" fill="none" xmlns="http://www.w3.org/2000/svg">
<path d="M177.261 147.057C215.933 142.724 250.169 124.506 264.445 98.9928C265.115 97.7985 265.738 96.5915 266.315 95.3716C271.424 84.5686 272.412 72.4919 265.314 62.6943C258.216 52.8968 241.719 46.2329 225.839 48.9683C209.958 51.7037 198.342 65.4231 205.68 75.1261C205.708 54.4771 205.425 32.8024 187.708 16.0703C177.992 7.35828 165.738 2.03738 152.775 0.901331C119.185 -2.64999 98.477 17.7646 95.3966 37.1168C93.1252 51.4117 98.6211 65.393 104.072 78.9998C89.1244 63.5475 55.796 58.5378 31.1913 68.05C6.58657 77.5623 -5.83055 100.251 4.02136 117.7C15.6226 138.224 50.1157 146.839 81.8488 150.449C108.06 153.432 146.828 150.466 177.261 147.057Z" fill="#F2F2F2"/>
</svg>
