<svg width="787" height="586" viewBox="0 0 787 586" fill="none" xmlns="http://www.w3.org/2000/svg">
<g clip-path="url(#clip0_592_191)">
<path d="M458.426 69.5126C473.176 69.5126 485.133 57.2712 485.133 42.1706C485.133 27.0701 473.176 14.8287 458.426 14.8287C443.677 14.8287 431.719 27.0701 431.719 42.1706C431.719 57.2712 443.677 69.5126 458.426 69.5126Z" fill="#F2F2F2"/>
<path d="M665.6 475.298C705.297 444.343 724.257 392.327 712.387 342.706C712.092 341.473 711.781 340.243 711.453 339.016C703.584 309.562 684.115 281.568 655.74 272.157C631.915 264.255 605.909 270.331 581.054 267.189C532.261 261.02 494.433 220.602 467.817 178.285C441.2 135.967 420.744 88.5981 385.376 53.6375C327.078 -3.98931 231.979 -16.3964 159.698 21.1143C87.4167 58.6251 41.3743 141.846 43.3379 224.786C45.3016 307.726 93.3956 387.022 163.24 429.094C188.898 444.55 218.574 455.499 248.108 451.667C273.734 448.343 297.018 434.246 322.524 430.061C362.624 423.481 402.469 442.043 437.152 463.673C471.836 485.303 505.338 510.941 544.751 520.969C583.022 530.706 630.435 502.719 665.6 475.298Z" fill="#F2F2F2"/>
<path d="M608.565 22.856C607.695 22.2621 606.815 21.6988 605.944 21.1254C580.79 4.65492 553.828 -8.72552 525.616 -18.7395L519.075 73.6471H477.605V-32.2257C474.995 -32.7787 472.364 -33.301 469.733 -33.7925V73.6471H420.452C393.322 73.6471 367.303 62.6135 348.12 42.9736C328.936 23.3337 318.159 -3.30371 318.159 -31.0787C315.518 -30.495 312.897 -29.8705 310.277 -29.2049V73.6471H270.138L263.906 -14.4488C234.914 -3.0656 207.39 11.9039 181.947 30.1265C181.507 30.4337 181.067 30.7511 180.637 31.0584C178.427 32.6456 176.246 34.2635 174.076 35.9019V388.357H292.373L290.282 358.712L278.78 195.945H510.423L498.92 358.712L496.83 388.357H613.816V26.4196C612.076 25.2113 610.325 24.0234 608.565 22.856ZM310.277 169.065H276.879L270.708 81.7163H310.277V169.065ZM469.733 169.065H413.641V167.334C413.641 166.502 413.48 165.678 413.169 164.91C412.858 164.141 412.402 163.443 411.827 162.856C411.252 162.268 410.569 161.802 409.818 161.484C409.067 161.167 408.262 161.004 407.449 161.006H383.064C382.252 161.005 381.448 161.169 380.698 161.487C379.948 161.805 379.266 162.271 378.692 162.859C378.118 163.446 377.663 164.144 377.352 164.912C377.041 165.68 376.882 166.503 376.882 167.334V169.065H318.159V81.7163H469.733V169.065ZM477.605 169.065V81.7163H518.505L512.333 169.065H477.605Z" fill="#3F3D56"/>
<path d="M0 410.927C8.68924 421.468 18.0876 431.374 28.1264 440.573L758.874 441.597C768.912 432.398 778.311 422.492 787 411.952L0 410.927Z" fill="#3F3D56"/>
<path d="M495.543 316.002V403.764C495.544 404.882 495.979 405.955 496.751 406.746C497.524 407.536 498.571 407.981 499.663 407.982H626.697C627.789 407.981 628.837 407.536 629.609 406.746C630.382 405.955 630.816 404.882 630.817 403.764V316.002C630.814 314.885 630.379 313.814 629.607 313.024C628.835 312.234 627.788 311.79 626.697 311.789H499.663C498.572 311.79 497.525 312.234 496.753 313.024C495.981 313.814 495.546 314.885 495.543 316.002Z" fill="#3F3D56"/>
<path d="M498.523 317.094V402.681C498.524 403.279 498.757 403.852 499.169 404.274C499.582 404.697 500.142 404.935 500.725 404.936H625.639C626.223 404.935 626.783 404.697 627.195 404.274C627.608 403.852 627.84 403.279 627.841 402.681V317.094C627.841 316.496 627.609 315.922 627.197 315.498C626.784 315.075 626.224 314.836 625.639 314.835H500.725C500.141 314.836 499.581 315.075 499.168 315.498C498.755 315.922 498.523 316.496 498.523 317.094Z" fill="#6C63FF"/>
<path d="M492.887 420.88C493.119 421.179 493.415 421.42 493.752 421.584C494.088 421.749 494.457 421.834 494.83 421.832H630.854C631.226 421.832 631.593 421.746 631.928 421.582C632.264 421.418 632.56 421.18 632.794 420.884C633.029 420.588 633.196 420.243 633.283 419.872C633.371 419.502 633.376 419.117 633.3 418.744L631.189 408.476C631.101 408.057 630.913 407.668 630.64 407.342C630.368 407.017 630.021 406.767 629.63 406.614C629.347 406.501 629.046 406.443 628.742 406.443H496.934C496.63 406.443 496.328 406.501 496.045 406.614C495.655 406.767 495.307 407.017 495.035 407.342C494.763 407.668 494.574 408.057 494.487 408.476L492.375 418.744C492.3 419.117 492.307 419.502 492.396 419.871C492.484 420.241 492.652 420.585 492.887 420.88Z" fill="#2F2E41"/>
<path d="M624.075 410.866H627.288C627.557 410.866 627.776 410.642 627.776 410.366V408.792C627.776 408.516 627.557 408.292 627.288 408.292H624.075C623.805 408.292 623.586 408.516 623.586 408.792V410.366C623.586 410.642 623.805 410.866 624.075 410.866Z" fill="#3F3D56"/>
<path d="M615.696 410.866H618.909C619.178 410.866 619.397 410.642 619.397 410.366V408.792C619.397 408.516 619.178 408.292 618.909 408.292H615.696C615.426 408.292 615.208 408.516 615.208 408.792V410.366C615.208 410.642 615.426 410.866 615.696 410.866Z" fill="#3F3D56"/>
<path d="M607.317 410.866H610.53C610.799 410.866 611.018 410.642 611.018 410.366V408.792C611.018 408.516 610.799 408.292 610.53 408.292H607.317C607.047 408.292 606.829 408.516 606.829 408.792V410.366C606.829 410.642 607.047 410.866 607.317 410.866Z" fill="#3F3D56"/>
<path d="M598.938 410.866H602.151C602.421 410.866 602.639 410.642 602.639 410.366V408.792C602.639 408.516 602.421 408.292 602.151 408.292H598.938C598.668 408.292 598.45 408.516 598.45 408.792V410.366C598.45 410.642 598.668 410.866 598.938 410.866Z" fill="#3F3D56"/>
<path d="M590.559 410.866H593.772C594.042 410.866 594.26 410.642 594.26 410.366V408.792C594.26 408.516 594.042 408.292 593.772 408.292H590.559C590.289 408.292 590.071 408.516 590.071 408.792V410.366C590.071 410.642 590.289 410.866 590.559 410.866Z" fill="#3F3D56"/>
<path d="M582.18 410.866H585.393C585.663 410.866 585.881 410.642 585.881 410.366V408.792C585.881 408.516 585.663 408.292 585.393 408.292H582.18C581.911 408.292 581.692 408.516 581.692 408.792V410.366C581.692 410.642 581.911 410.866 582.18 410.866Z" fill="#3F3D56"/>
<path d="M573.801 410.866H577.014C577.284 410.866 577.502 410.642 577.502 410.366V408.792C577.502 408.516 577.284 408.292 577.014 408.292H573.801C573.532 408.292 573.313 408.516 573.313 408.792V410.366C573.313 410.642 573.532 410.866 573.801 410.866Z" fill="#3F3D56"/>
<path d="M565.422 410.866H568.635C568.905 410.866 569.124 410.642 569.124 410.366V408.792C569.124 408.516 568.905 408.292 568.635 408.292H565.422C565.153 408.292 564.934 408.516 564.934 408.792V410.366C564.934 410.642 565.153 410.866 565.422 410.866Z" fill="#3F3D56"/>
<path d="M557.044 410.866H560.256C560.526 410.866 560.745 410.642 560.745 410.366V408.792C560.745 408.516 560.526 408.292 560.256 408.292H557.044C556.774 408.292 556.555 408.516 556.555 408.792V410.366C556.555 410.642 556.774 410.866 557.044 410.866Z" fill="#3F3D56"/>
<path d="M548.665 410.866H551.877C552.147 410.866 552.366 410.642 552.366 410.366V408.792C552.366 408.516 552.147 408.292 551.877 408.292H548.665C548.395 408.292 548.176 408.516 548.176 408.792V410.366C548.176 410.642 548.395 410.866 548.665 410.866Z" fill="#3F3D56"/>
<path d="M540.286 410.866H543.499C543.768 410.866 543.987 410.642 543.987 410.366V408.792C543.987 408.516 543.768 408.292 543.499 408.292H540.286C540.016 408.292 539.797 408.516 539.797 408.792V410.366C539.797 410.642 540.016 410.866 540.286 410.866Z" fill="#3F3D56"/>
<path d="M531.907 410.866H535.12C535.39 410.866 535.608 410.642 535.608 410.366V408.792C535.608 408.516 535.39 408.292 535.12 408.292H531.907C531.637 408.292 531.419 408.516 531.419 408.792V410.366C531.419 410.642 531.637 410.866 531.907 410.866Z" fill="#3F3D56"/>
<path d="M523.528 410.866H526.741C527.01 410.866 527.229 410.642 527.229 410.366V408.792C527.229 408.516 527.01 408.292 526.741 408.292H523.528C523.258 408.292 523.04 408.516 523.04 408.792V410.366C523.04 410.642 523.258 410.866 523.528 410.866Z" fill="#3F3D56"/>
<path d="M515.149 410.866H518.362C518.632 410.866 518.85 410.642 518.85 410.366V408.792C518.85 408.516 518.632 408.292 518.362 408.292H515.149C514.879 408.292 514.661 408.516 514.661 408.792V410.366C514.661 410.642 514.879 410.866 515.149 410.866Z" fill="#3F3D56"/>
<path d="M506.77 410.866H509.983C510.253 410.866 510.471 410.642 510.471 410.366V408.792C510.471 408.516 510.253 408.292 509.983 408.292H506.77C506.5 408.292 506.282 408.516 506.282 408.792V410.366C506.282 410.642 506.5 410.866 506.77 410.866Z" fill="#3F3D56"/>
<path d="M498.391 410.866H501.604C501.874 410.866 502.092 410.642 502.092 410.366V408.792C502.092 408.516 501.874 408.292 501.604 408.292H498.391C498.122 408.292 497.903 408.516 497.903 408.792V410.366C497.903 410.642 498.122 410.866 498.391 410.866Z" fill="#3F3D56"/>
<path d="M624.174 415.155H627.387C627.656 415.155 627.875 414.931 627.875 414.655V413.081C627.875 412.805 627.656 412.581 627.387 412.581H624.174C623.904 412.581 623.686 412.805 623.686 413.081V414.655C623.686 414.931 623.904 415.155 624.174 415.155Z" fill="#3F3D56"/>
<path d="M615.795 415.155H619.008C619.278 415.155 619.496 414.931 619.496 414.655V413.081C619.496 412.805 619.278 412.581 619.008 412.581H615.795C615.525 412.581 615.307 412.805 615.307 413.081V414.655C615.307 414.931 615.525 415.155 615.795 415.155Z" fill="#3F3D56"/>
<path d="M607.416 415.155H610.629C610.899 415.155 611.117 414.931 611.117 414.655V413.081C611.117 412.805 610.899 412.581 610.629 412.581H607.416C607.146 412.581 606.928 412.805 606.928 413.081V414.655C606.928 414.931 607.146 415.155 607.416 415.155Z" fill="#3F3D56"/>
<path d="M599.037 415.155H602.25C602.52 415.155 602.738 414.931 602.738 414.655V413.081C602.738 412.805 602.52 412.581 602.25 412.581H599.037C598.767 412.581 598.549 412.805 598.549 413.081V414.655C598.549 414.931 598.767 415.155 599.037 415.155Z" fill="#3F3D56"/>
<path d="M590.658 415.155H593.871C594.141 415.155 594.359 414.931 594.359 414.655V413.081C594.359 412.805 594.141 412.581 593.871 412.581H590.658C590.389 412.581 590.17 412.805 590.17 413.081V414.655C590.17 414.931 590.389 415.155 590.658 415.155Z" fill="#3F3D56"/>
<path d="M582.279 415.155H585.492C585.762 415.155 585.98 414.931 585.98 414.655V413.081C585.98 412.805 585.762 412.581 585.492 412.581H582.279C582.01 412.581 581.791 412.805 581.791 413.081V414.655C581.791 414.931 582.01 415.155 582.279 415.155Z" fill="#3F3D56"/>
<path d="M573.9 415.155H577.113C577.383 415.155 577.602 414.931 577.602 414.655V413.081C577.602 412.805 577.383 412.581 577.113 412.581H573.9C573.631 412.581 573.412 412.805 573.412 413.081V414.655C573.412 414.931 573.631 415.155 573.9 415.155Z" fill="#3F3D56"/>
<path d="M565.521 415.155H568.734C569.004 415.155 569.223 414.931 569.223 414.655V413.081C569.223 412.805 569.004 412.581 568.734 412.581H565.521C565.252 412.581 565.033 412.805 565.033 413.081V414.655C565.033 414.931 565.252 415.155 565.521 415.155Z" fill="#3F3D56"/>
<path d="M557.143 415.155H560.355C560.625 415.155 560.844 414.931 560.844 414.655V413.081C560.844 412.805 560.625 412.581 560.355 412.581H557.143C556.873 412.581 556.654 412.805 556.654 413.081V414.655C556.654 414.931 556.873 415.155 557.143 415.155Z" fill="#3F3D56"/>
<path d="M548.764 415.155H551.977C552.246 415.155 552.465 414.931 552.465 414.655V413.081C552.465 412.805 552.246 412.581 551.977 412.581H548.764C548.494 412.581 548.275 412.805 548.275 413.081V414.655C548.275 414.931 548.494 415.155 548.764 415.155Z" fill="#3F3D56"/>
<path d="M540.385 415.155H543.598C543.867 415.155 544.086 414.931 544.086 414.655V413.081C544.086 412.805 543.867 412.581 543.598 412.581H540.385C540.115 412.581 539.897 412.805 539.897 413.081V414.655C539.897 414.931 540.115 415.155 540.385 415.155Z" fill="#3F3D56"/>
<path d="M532.006 415.155H535.219C535.488 415.155 535.707 414.931 535.707 414.655V413.081C535.707 412.805 535.488 412.581 535.219 412.581H532.006C531.736 412.581 531.518 412.805 531.518 413.081V414.655C531.518 414.931 531.736 415.155 532.006 415.155Z" fill="#3F3D56"/>
<path d="M523.627 415.155H526.84C527.11 415.155 527.328 414.931 527.328 414.655V413.081C527.328 412.805 527.11 412.581 526.84 412.581H523.627C523.357 412.581 523.139 412.805 523.139 413.081V414.655C523.139 414.931 523.357 415.155 523.627 415.155Z" fill="#3F3D56"/>
<path d="M515.248 415.155H518.461C518.731 415.155 518.949 414.931 518.949 414.655V413.081C518.949 412.805 518.731 412.581 518.461 412.581H515.248C514.978 412.581 514.76 412.805 514.76 413.081V414.655C514.76 414.931 514.978 415.155 515.248 415.155Z" fill="#3F3D56"/>
<path d="M506.869 415.155H510.082C510.352 415.155 510.57 414.931 510.57 414.655V413.081C510.57 412.805 510.352 412.581 510.082 412.581H506.869C506.599 412.581 506.381 412.805 506.381 413.081V414.655C506.381 414.931 506.599 415.155 506.869 415.155Z" fill="#3F3D56"/>
<path d="M498.49 415.155H501.703C501.973 415.155 502.191 414.931 502.191 414.655V413.081C502.191 412.805 501.973 412.581 501.703 412.581H498.49C498.221 412.581 498.002 412.805 498.002 413.081V414.655C498.002 414.931 498.221 415.155 498.49 415.155Z" fill="#3F3D56"/>
<path d="M554.629 420.302H587.168C587.438 420.302 587.656 420.078 587.656 419.802V418.228C587.656 417.952 587.438 417.728 587.168 417.728H554.629C554.359 417.728 554.141 417.952 554.141 418.228V419.802C554.141 420.078 554.359 420.302 554.629 420.302Z" fill="#3F3D56"/>
<path d="M520.155 333.559H517.31C516.448 333.559 515.749 334.275 515.749 335.158C515.749 336.041 516.448 336.757 517.31 336.757H520.155C521.017 336.757 521.716 336.041 521.716 335.158C521.716 334.275 521.017 333.559 520.155 333.559Z" fill="white"/>
<path d="M552.685 333.559H549.841C548.978 333.559 548.279 334.275 548.279 335.158C548.279 336.041 548.978 336.757 549.841 336.757H552.685C553.547 336.757 554.247 336.041 554.247 335.158C554.247 334.275 553.547 333.559 552.685 333.559Z" fill="white"/>
<path d="M561.902 333.559H559.058C558.196 333.559 557.497 334.275 557.497 335.158C557.497 336.041 558.196 336.757 559.058 336.757H561.902C562.765 336.757 563.464 336.041 563.464 335.158C563.464 334.275 562.765 333.559 561.902 333.559Z" fill="white"/>
<path d="M543.837 333.293H526.159C525.297 333.293 524.597 334.009 524.597 334.891C524.597 335.774 525.297 336.49 526.159 336.49H543.837C544.699 336.49 545.398 335.774 545.398 334.891C545.398 334.009 544.699 333.293 543.837 333.293Z" fill="white"/>
<path d="M587.211 333.293H569.533C568.671 333.293 567.972 334.009 567.972 334.891C567.972 335.774 568.671 336.49 569.533 336.49H587.211C588.073 336.49 588.773 335.774 588.773 334.891C588.773 334.009 588.073 333.293 587.211 333.293Z" fill="white"/>
<path d="M528.83 340.775H525.985C525.123 340.775 524.424 341.491 524.424 342.374C524.424 343.257 525.123 343.972 525.985 343.972H528.83C529.692 343.972 530.391 343.257 530.391 342.374C530.391 341.491 529.692 340.775 528.83 340.775Z" fill="white"/>
<path d="M561.36 340.775H558.516C557.653 340.775 556.954 341.491 556.954 342.374C556.954 343.257 557.653 343.972 558.516 343.972H561.36C562.222 343.972 562.921 343.257 562.921 342.374C562.921 341.491 562.222 340.775 561.36 340.775Z" fill="white"/>
<path d="M570.577 340.775H567.733C566.87 340.775 566.171 341.491 566.171 342.374C566.171 343.257 566.87 343.972 567.733 343.972H570.577C571.439 343.972 572.139 343.257 572.139 342.374C572.139 341.491 571.439 340.775 570.577 340.775Z" fill="white"/>
<path d="M552.512 340.509H534.834C533.971 340.509 533.272 341.224 533.272 342.107C533.272 342.99 533.971 343.706 534.834 343.706H552.512C553.374 343.706 554.073 342.99 554.073 342.107C554.073 341.224 553.374 340.509 552.512 340.509Z" fill="white"/>
<path d="M595.886 340.509H578.208C577.346 340.509 576.646 341.224 576.646 342.107C576.646 342.99 577.346 343.706 578.208 343.706H595.886C596.748 343.706 597.447 342.99 597.447 342.107C597.447 341.224 596.748 340.509 595.886 340.509Z" fill="white"/>
<path d="M537.504 347.991H534.66C533.798 347.991 533.099 348.707 533.099 349.59C533.099 350.473 533.798 351.188 534.66 351.188H537.504C538.367 351.188 539.066 350.473 539.066 349.59C539.066 348.707 538.367 347.991 537.504 347.991Z" fill="white"/>
<path d="M570.035 347.991H567.19C566.328 347.991 565.629 348.707 565.629 349.59C565.629 350.473 566.328 351.188 567.19 351.188H570.035C570.897 351.188 571.596 350.473 571.596 349.59C571.596 348.707 570.897 347.991 570.035 347.991Z" fill="white"/>
<path d="M579.252 347.991H576.408C575.545 347.991 574.846 348.707 574.846 349.59C574.846 350.473 575.545 351.188 576.408 351.188H579.252C580.114 351.188 580.813 350.473 580.813 349.59C580.813 348.707 580.114 347.991 579.252 347.991Z" fill="white"/>
<path d="M561.186 347.725H543.508C542.646 347.725 541.947 348.44 541.947 349.323C541.947 350.206 542.646 350.922 543.508 350.922H561.186C562.049 350.922 562.748 350.206 562.748 349.323C562.748 348.44 562.049 347.725 561.186 347.725Z" fill="white"/>
<path d="M604.561 347.725H586.882C586.02 347.725 585.321 348.44 585.321 349.323C585.321 350.206 586.02 350.922 586.882 350.922H604.561C605.423 350.922 606.122 350.206 606.122 349.323C606.122 348.44 605.423 347.725 604.561 347.725Z" fill="white"/>
<path d="M546.179 355.207H543.335C542.473 355.207 541.773 355.923 541.773 356.806C541.773 357.688 542.473 358.404 543.335 358.404H546.179C547.042 358.404 547.741 357.688 547.741 356.806C547.741 355.923 547.042 355.207 546.179 355.207Z" fill="white"/>
<path d="M578.71 355.207H575.865C575.003 355.207 574.304 355.923 574.304 356.806C574.304 357.688 575.003 358.404 575.865 358.404H578.71C579.572 358.404 580.271 357.688 580.271 356.806C580.271 355.923 579.572 355.207 578.71 355.207Z" fill="white"/>
<path d="M587.927 355.207H585.082C584.22 355.207 583.521 355.923 583.521 356.806C583.521 357.688 584.22 358.404 585.082 358.404H587.927C588.789 358.404 589.488 357.688 589.488 356.806C589.488 355.923 588.789 355.207 587.927 355.207Z" fill="white"/>
<path d="M569.861 354.941H552.183C551.321 354.941 550.622 355.656 550.622 356.539C550.622 357.422 551.321 358.138 552.183 358.138H569.861C570.724 358.138 571.423 357.422 571.423 356.539C571.423 355.656 570.724 354.941 569.861 354.941Z" fill="white"/>
<path d="M552.685 383.9H549.841C548.978 383.9 548.279 384.616 548.279 385.499C548.279 386.382 548.978 387.098 549.841 387.098H552.685C553.547 387.098 554.247 386.382 554.247 385.499C554.247 384.616 553.547 383.9 552.685 383.9Z" fill="white"/>
<path d="M561.902 383.9H559.058C558.196 383.9 557.497 384.616 557.497 385.499C557.497 386.382 558.196 387.098 559.058 387.098H561.902C562.765 387.098 563.464 386.382 563.464 385.499C563.464 384.616 562.765 383.9 561.902 383.9Z" fill="white"/>
<path d="M587.211 384.167H569.533C568.671 384.167 567.972 384.883 567.972 385.765C567.972 386.648 568.671 387.364 569.533 387.364H587.211C588.073 387.364 588.773 386.648 588.773 385.765C588.773 384.883 588.073 384.167 587.211 384.167Z" fill="white"/>
<path d="M520.155 383.9H517.31C516.448 383.9 515.749 384.616 515.749 385.499C515.749 386.382 516.448 387.098 517.31 387.098H520.155C521.017 387.098 521.716 386.382 521.716 385.499C521.716 384.616 521.017 383.9 520.155 383.9Z" fill="white"/>
<path d="M543.837 384.167H526.159C525.297 384.167 524.597 384.883 524.597 385.765C524.597 386.648 525.297 387.364 526.159 387.364H543.837C544.699 387.364 545.398 386.648 545.398 385.765C545.398 384.883 544.699 384.167 543.837 384.167Z" fill="white"/>
<path d="M528.83 376.685H525.985C525.123 376.685 524.424 377.4 524.424 378.283C524.424 379.166 525.123 379.882 525.985 379.882H528.83C529.692 379.882 530.391 379.166 530.391 378.283C530.391 377.4 529.692 376.685 528.83 376.685Z" fill="white"/>
<path d="M561.36 376.685H558.516C557.653 376.685 556.954 377.4 556.954 378.283C556.954 379.166 557.653 379.882 558.516 379.882H561.36C562.222 379.882 562.921 379.166 562.921 378.283C562.921 377.4 562.222 376.685 561.36 376.685Z" fill="white"/>
<path d="M570.577 376.685H567.733C566.87 376.685 566.171 377.4 566.171 378.283C566.171 379.166 566.87 379.882 567.733 379.882H570.577C571.439 379.882 572.139 379.166 572.139 378.283C572.139 377.4 571.439 376.685 570.577 376.685Z" fill="white"/>
<path d="M552.512 376.951H534.834C533.971 376.951 533.272 377.667 533.272 378.55C533.272 379.432 533.971 380.148 534.834 380.148H552.512C553.374 380.148 554.073 379.432 554.073 378.55C554.073 377.667 553.374 376.951 552.512 376.951Z" fill="white"/>
<path d="M537.504 369.469H534.66C533.798 369.469 533.099 370.184 533.099 371.067C533.099 371.95 533.798 372.666 534.66 372.666H537.504C538.367 372.666 539.066 371.95 539.066 371.067C539.066 370.184 538.367 369.469 537.504 369.469Z" fill="white"/>
<path d="M570.035 369.469H567.19C566.328 369.469 565.629 370.184 565.629 371.067C565.629 371.95 566.328 372.666 567.19 372.666H570.035C570.897 372.666 571.596 371.95 571.596 371.067C571.596 370.184 570.897 369.469 570.035 369.469Z" fill="white"/>
<path d="M579.252 369.469H576.408C575.545 369.469 574.846 370.184 574.846 371.067C574.846 371.95 575.545 372.666 576.408 372.666H579.252C580.114 372.666 580.813 371.95 580.813 371.067C580.813 370.184 580.114 369.469 579.252 369.469Z" fill="white"/>
<path d="M561.186 369.735H543.508C542.646 369.735 541.947 370.451 541.947 371.334C541.947 372.217 542.646 372.932 543.508 372.932H561.186C562.049 372.932 562.748 372.217 562.748 371.334C562.748 370.451 562.049 369.735 561.186 369.735Z" fill="white"/>
<path d="M546.179 362.253H543.335C542.473 362.253 541.773 362.968 541.773 363.851C541.773 364.734 542.473 365.45 543.335 365.45H546.179C547.042 365.45 547.741 364.734 547.741 363.851C547.741 362.968 547.042 362.253 546.179 362.253Z" fill="white"/>
<path d="M578.71 362.253H575.865C575.003 362.253 574.304 362.968 574.304 363.851C574.304 364.734 575.003 365.45 575.865 365.45H578.71C579.572 365.45 580.271 364.734 580.271 363.851C580.271 362.968 579.572 362.253 578.71 362.253Z" fill="white"/>
<path d="M587.927 362.253H585.082C584.22 362.253 583.521 362.968 583.521 363.851C583.521 364.734 584.22 365.45 585.082 365.45H587.927C588.789 365.45 589.488 364.734 589.488 363.851C589.488 362.968 588.789 362.253 587.927 362.253Z" fill="white"/>
<path d="M569.861 362.519H552.183C551.321 362.519 550.622 363.235 550.622 364.118C550.622 365.001 551.321 365.716 552.183 365.716H569.861C570.724 365.716 571.423 365.001 571.423 364.118C571.423 363.235 570.724 362.519 569.861 362.519Z" fill="white"/>
<path d="M505.033 468.468L491.68 446.859L533.592 412.654L550.891 393.033C553.139 390.484 556 388.583 559.19 387.521C562.38 386.459 565.786 386.272 569.068 386.98C572.351 387.688 575.394 389.265 577.894 391.554C580.394 393.843 582.264 396.764 583.317 400.025C584.876 404.857 584.54 410.12 582.381 414.704C580.222 419.287 576.408 422.833 571.744 424.592L544.389 434.909L505.033 468.468Z" fill="#FFB6B6"/>
<path d="M191.734 311.793V416.816H263.6V311.793C263.602 311.037 263.366 310.301 262.929 309.693C262.491 309.085 261.875 308.636 261.17 308.413C260.838 308.301 260.489 308.246 260.14 308.25H195.205C194.749 308.249 194.299 308.34 193.878 308.517C193.457 308.695 193.074 308.956 192.752 309.285C192.43 309.614 192.174 310.005 191.999 310.435C191.824 310.865 191.734 311.327 191.734 311.793ZM219.78 347.879C219.799 345.808 220.616 343.829 222.052 342.372C223.489 340.915 225.43 340.097 227.452 340.097C229.474 340.097 231.415 340.915 232.852 342.372C234.289 343.829 235.105 345.808 235.124 347.879V360.065C235.113 362.141 234.301 364.128 232.863 365.593C231.425 367.057 229.48 367.879 227.452 367.879C225.424 367.879 223.479 367.057 222.041 365.593C220.604 364.128 219.791 362.141 219.78 360.065V347.879Z" fill="#2F2E41"/>
<path d="M191.514 413.457V423.584C191.516 424.109 191.719 424.612 192.081 424.984C192.442 425.356 192.932 425.567 193.444 425.571H261.89C262.403 425.568 262.894 425.358 263.256 424.986C263.617 424.613 263.821 424.109 263.82 423.584V413.457H191.514Z" fill="#3F3D56"/>
<path d="M78.678 153.562V345.319C78.6799 347.763 79.6289 350.106 81.3167 351.834C83.0045 353.561 85.2931 354.533 87.68 354.535H365.244C367.63 354.533 369.919 353.562 371.607 351.834C373.295 350.106 374.244 347.763 374.246 345.319V153.562C374.24 151.121 373.289 148.781 371.602 147.055C369.915 145.33 367.628 144.359 365.244 144.356H87.68C85.2952 144.359 83.0088 145.33 81.3215 147.055C79.6342 148.781 78.6837 151.121 78.678 153.562Z" fill="#3F3D56"/>
<path d="M85.1895 155.948V342.953C85.1917 344.259 85.6992 345.511 86.601 346.434C87.5028 347.357 88.7252 347.877 90.0006 347.879H362.933C364.208 347.877 365.431 347.357 366.332 346.434C367.234 345.511 367.742 344.259 367.744 342.953V155.948C367.744 154.641 367.237 153.387 366.335 152.462C365.433 151.536 364.21 151.015 362.933 151.012H90.0006C88.7237 151.015 87.5001 151.536 86.5981 152.462C85.6962 153.387 85.1896 154.641 85.1895 155.948Z" fill="white"/>
<path d="M135.841 424.885C136.119 425.241 136.472 425.529 136.874 425.726C137.276 425.923 137.716 426.024 138.162 426.021H300.539C300.983 426.021 301.421 425.919 301.822 425.723C302.223 425.527 302.576 425.243 302.855 424.889C303.135 424.536 303.335 424.124 303.439 423.682C303.543 423.24 303.55 422.78 303.459 422.335L300.939 410.078C300.834 409.578 300.609 409.113 300.284 408.724C299.959 408.336 299.545 408.038 299.078 407.855C298.741 407.72 298.381 407.65 298.018 407.651H140.672C140.309 407.65 139.95 407.72 139.612 407.855C139.145 408.038 138.731 408.336 138.406 408.724C138.081 409.113 137.856 409.578 137.751 410.078L135.231 422.335C135.141 422.78 135.149 423.239 135.255 423.68C135.36 424.121 135.561 424.533 135.841 424.885Z" fill="#2F2E41"/>
<path d="M354.076 176.773H98.6937C98.4283 176.767 98.1757 176.655 97.99 176.461C97.8044 176.266 97.7004 176.005 97.7004 175.733C97.7004 175.462 97.8044 175.201 97.99 175.006C98.1757 174.812 98.4283 174.7 98.6937 174.694H354.076C354.341 174.7 354.594 174.812 354.779 175.006C354.965 175.201 355.069 175.462 355.069 175.733C355.069 176.005 354.965 176.266 354.779 176.461C354.594 176.655 354.341 176.767 354.076 176.773Z" fill="#3F3D56"/>
<path d="M116.078 169.385C119.365 169.385 122.03 166.596 122.03 163.156C122.03 159.716 119.365 156.927 116.078 156.927C112.791 156.927 110.126 159.716 110.126 163.156C110.126 166.596 112.791 169.385 116.078 169.385Z" fill="#3F3D56"/>
<path d="M136.639 169.385C139.926 169.385 142.59 166.596 142.59 163.156C142.59 159.716 139.926 156.927 136.639 156.927C133.351 156.927 130.687 159.716 130.687 163.156C130.687 166.596 133.351 169.385 136.639 169.385Z" fill="#3F3D56"/>
<path d="M157.199 169.385C160.486 169.385 163.151 166.596 163.151 163.156C163.151 159.716 160.486 156.927 157.199 156.927C153.912 156.927 151.248 159.716 151.248 163.156C151.248 166.596 153.912 169.385 157.199 169.385Z" fill="#3F3D56"/>
<path d="M341.695 158.467H327.091C326.803 158.474 326.528 158.596 326.326 158.808C326.124 159.019 326.011 159.303 326.011 159.599C326.011 159.894 326.124 160.178 326.326 160.39C326.528 160.601 326.803 160.723 327.091 160.73H341.695C341.985 160.726 342.262 160.605 342.466 160.393C342.67 160.181 342.784 159.896 342.784 159.599C342.784 159.301 342.67 159.016 342.466 158.804C342.262 158.592 341.985 158.471 341.695 158.467Z" fill="#3F3D56"/>
<path d="M341.694 162.717H327.091C326.802 162.723 326.527 162.845 326.325 163.057C326.123 163.268 326.01 163.553 326.01 163.848C326.01 164.144 326.123 164.428 326.325 164.64C326.527 164.851 326.802 164.973 327.091 164.98H341.694C341.985 164.976 342.263 164.855 342.467 164.644C342.672 164.432 342.786 164.146 342.786 163.848C342.786 163.551 342.672 163.265 342.467 163.053C342.263 162.841 341.985 162.72 341.694 162.717Z" fill="#3F3D56"/>
<path d="M341.695 166.966H327.091C326.803 166.973 326.528 167.096 326.326 167.307C326.124 167.518 326.011 167.802 326.011 168.098C326.011 168.394 326.124 168.677 326.326 168.889C326.528 169.1 326.803 169.223 327.091 169.229H341.695C341.985 169.225 342.262 169.104 342.466 168.892C342.67 168.681 342.784 168.395 342.784 168.098C342.784 167.801 342.67 167.515 342.466 167.303C342.262 167.092 341.985 166.971 341.695 166.966Z" fill="#3F3D56"/>
<path d="M693.755 417.901C694.195 419.215 695.031 420.352 696.142 421.149C697.253 421.946 698.583 422.361 699.939 422.337L726.437 421.638C727.803 421.611 729.124 421.132 730.203 420.272C731.281 419.413 732.059 418.219 732.419 416.87L736.169 375.82C737.499 376.437 738.948 376.741 740.408 376.711C741.677 376.679 742.926 376.391 744.086 375.864C745.246 375.336 746.293 374.581 747.168 373.639C748.042 372.698 748.727 371.589 749.183 370.377C749.639 369.164 749.858 367.872 749.826 366.573C749.794 365.274 749.513 363.994 748.998 362.807C748.483 361.619 747.744 360.547 746.825 359.652C745.905 358.757 744.822 358.056 743.638 357.589C742.454 357.122 741.191 356.898 739.923 356.931C739.339 356.929 738.757 356.991 738.186 357.116C737.566 356.428 736.811 355.881 735.971 355.511C735.132 355.14 734.226 354.953 733.311 354.962L692.551 356.04C692.213 356.053 691.877 356.095 691.546 356.168C690.652 356.338 689.804 356.703 689.06 357.237C688.315 357.771 687.691 358.463 687.229 359.264C686.767 360.066 686.478 360.96 686.382 361.886C686.286 362.811 686.385 363.747 686.672 364.631L693.755 417.901ZM736.938 373.032L739.606 363.25C739.91 362.12 739.917 360.928 739.627 359.795C739.756 359.794 739.87 359.732 740 359.731C741.829 359.692 743.599 360.398 744.921 361.693C746.243 362.988 747.01 364.768 747.053 366.64C747.096 368.513 746.411 370.327 745.15 371.684C743.888 373.042 742.153 373.831 740.323 373.88C739.141 373.918 737.97 373.625 736.938 373.032Z" fill="#2F2E41"/>
<path d="M691.546 356.168C692.414 361.251 702.177 364.824 713.917 364.203C724.712 363.694 733.539 359.813 735.156 355.214C734.557 355.033 733.935 354.948 733.311 354.962L692.551 356.04C692.213 356.053 691.877 356.095 691.546 356.168Z" fill="#3F3D56"/>
<path d="M716.068 395.344C716.122 395.33 716.173 395.307 716.219 395.276L721.974 391.42C722.043 391.374 722.101 391.31 722.14 391.236C722.18 391.161 722.2 391.077 722.2 390.992C722.2 390.907 722.18 390.823 722.14 390.749C722.101 390.674 722.044 390.61 721.974 390.564L715.993 386.553C715.938 386.516 715.877 386.49 715.812 386.477C715.747 386.465 715.681 386.465 715.616 386.479C715.552 386.492 715.491 386.519 715.436 386.557C715.382 386.595 715.335 386.643 715.299 386.699C715.263 386.756 715.238 386.819 715.226 386.885C715.214 386.951 715.214 387.019 715.228 387.085C715.242 387.151 715.268 387.214 715.305 387.269C715.342 387.325 715.39 387.372 715.445 387.409L720.787 390.991L715.672 394.42C715.573 394.486 715.5 394.586 715.466 394.702C715.433 394.818 715.44 394.943 715.488 395.054C715.535 395.165 715.62 395.255 715.726 395.308C715.832 395.361 715.954 395.374 716.068 395.344Z" fill="#6C63FF"/>
<path d="M706.979 395.773C707.076 395.748 707.163 395.694 707.229 395.618C707.296 395.542 707.338 395.448 707.352 395.347C707.366 395.246 707.349 395.143 707.305 395.051C707.261 394.96 707.192 394.884 707.105 394.833L701.801 391.72L706.928 387.821C706.981 387.781 707.025 387.731 707.059 387.673C707.092 387.615 707.115 387.551 707.124 387.485C707.134 387.418 707.13 387.351 707.114 387.285C707.098 387.22 707.07 387.159 707.031 387.105C706.992 387.051 706.943 387.006 706.886 386.971C706.83 386.937 706.768 386.914 706.703 386.904C706.638 386.894 706.572 386.898 706.508 386.914C706.444 386.93 706.384 386.959 706.332 387L700.592 391.365C700.525 391.415 700.472 391.482 700.437 391.559C700.402 391.636 700.386 391.721 700.391 391.806C700.395 391.89 700.421 391.973 700.465 392.045C700.508 392.117 700.569 392.177 700.641 392.219L706.608 395.721C706.72 395.787 706.853 395.806 706.979 395.773Z" fill="#6C63FF"/>
<path d="M715.496 398.723C715.544 398.711 715.59 398.691 715.633 398.664C715.689 398.629 715.738 398.583 715.777 398.529C715.816 398.475 715.844 398.413 715.859 398.348C715.875 398.283 715.878 398.215 715.867 398.148C715.857 398.082 715.835 398.018 715.8 397.961L707.643 384.23C707.574 384.115 707.463 384.032 707.334 384C707.205 383.968 707.069 383.99 706.956 384.06C706.843 384.131 706.761 384.244 706.73 384.376C706.699 384.508 706.72 384.647 706.788 384.763L714.946 398.494C715.001 398.587 715.085 398.66 715.184 398.701C715.283 398.743 715.392 398.75 715.496 398.723Z" fill="#6C63FF"/>
<path d="M256.898 233.298H212.697C210.894 233.298 209.432 234.795 209.432 236.641V241.062C209.432 242.908 210.894 244.404 212.697 244.404H256.898C258.701 244.404 260.163 242.908 260.163 241.062V236.641C260.163 234.795 258.701 233.298 256.898 233.298Z" fill="#6C63FF"/>
<path d="M282.663 255.511H186.933C185.13 255.511 183.668 257.007 183.668 258.853V263.274C183.668 265.12 185.13 266.617 186.933 266.617H282.663C284.466 266.617 285.928 265.12 285.928 263.274V258.853C285.928 257.007 284.466 255.511 282.663 255.511Z" fill="#E6E6E6"/>
<path d="M282.663 277.723H186.933C185.13 277.723 183.668 279.219 183.668 281.065V285.486C183.668 287.332 185.13 288.829 186.933 288.829H282.663C284.466 288.829 285.928 287.332 285.928 285.486V281.065C285.928 279.219 284.466 277.723 282.663 277.723Z" fill="#E6E6E6"/>
<path d="M290.778 352.103L290.995 352.804L291.006 352.827L297.533 373.142L305.041 396.552L319.167 440.545L319.303 447.378V447.402L320.353 502.375L317.444 509.828L320.718 522.047C320.718 522.047 319.212 503.577 311.134 514.184C306.558 520.212 301.207 526.38 296.814 532.162C303.215 534.814 309.719 537.212 316.325 539.358C317.752 539.825 319.189 540.269 320.627 540.713C320.935 540.806 321.243 540.9 321.551 540.993C343.451 547.624 366.091 551.349 388.918 552.079C390.104 552.114 391.268 552.138 392.398 552.161C392.797 552.173 393.185 552.184 393.573 552.184C394.851 552.196 396.118 552.208 397.395 552.208C399.974 552.208 402.542 552.169 405.097 552.091C424.015 551.545 442.822 548.941 461.202 544.323C461.076 536.554 460.734 527.478 460.243 517.782C460.015 513.028 454.892 507.876 454.584 502.9C454.367 499.161 458.965 495.645 458.726 491.849C457.174 468.474 455.234 477.447 453.796 460.894C453.648 459.27 453.511 457.717 453.386 456.233C452.461 445.603 451.823 438.956 451.823 438.956L457.961 399.344L467.603 337.151L466.861 335.901L466.028 335.48L415.173 309.711L412.411 302.468C411.607 300.381 410.211 298.589 408.403 297.321C406.596 296.053 404.459 295.368 402.268 295.354L368.767 295.214C367.029 295.206 365.313 295.622 363.763 296.429C362.213 297.235 360.874 298.409 359.856 299.851L350.785 312.713L290.778 352.103Z" fill="#3F3D56"/>
<path d="M326.891 430.755L319.303 447.378L314.123 458.733L305.212 506.499L300.75 511.347L296.928 494.185L256.921 503.279C255.609 495.815 256.57 503.532 255.76 495.343C255.988 495.109 256.227 494.876 256.467 494.642C257.106 494.035 257.642 493.462 257.631 492.913C257.174 464.667 258.544 416.597 269.977 387.475C271.767 382.72 274.128 378.211 277.005 374.053C277.234 373.737 277.45 373.422 277.667 373.107C282.939 365.549 286.271 358.107 290.994 352.816V352.804C291.024 352.78 291.051 352.752 291.074 352.722C291.092 352.713 291.107 352.702 291.12 352.687L323.571 335.071L324.963 375.116L325.956 403.899L326.891 430.755Z" fill="#3F3D56"/>
<path d="M443.903 435.477L453.381 456.239L456.689 463.469L465.598 511.231L470.045 516.067L473.876 498.909L475.677 498.531L508.142 491.647L517.605 522.415C519.738 518.777 520.578 514.497 519.984 510.297C519.389 506.098 517.397 502.238 514.343 499.369C513.697 498.771 513.158 498.188 513.174 497.636C513.712 464.414 511.727 403.751 493.802 378.783C488.109 370.86 484.693 362.968 479.723 357.454C479.708 357.439 479.708 357.423 479.693 357.423L467.599 337.149L466.86 335.905L466.029 335.48L443.903 435.477Z" fill="#3F3D56"/>
<path d="M386.485 285.453C411.099 285.453 431.053 265.025 431.053 239.825C431.053 214.625 411.099 194.196 386.485 194.196C361.871 194.196 341.917 214.625 341.917 239.825C341.917 265.025 361.871 285.453 386.485 285.453Z" fill="#FFB6B6"/>
<path d="M446.725 207.954C446.379 207.576 445.963 207.273 445.5 207.064C445.038 206.854 444.539 206.742 444.034 206.735L444.704 204.83C444.923 204.23 444.982 203.582 444.875 202.951C444.768 202.32 444.5 201.729 444.097 201.239C443.694 200.75 443.171 200.378 442.581 200.164C441.992 199.949 441.358 199.899 440.743 200.017L438.303 200.499L438.533 198.83C438.621 198.208 438.55 197.573 438.326 196.989C438.102 196.404 437.733 195.889 437.256 195.494C436.778 195.099 436.209 194.839 435.603 194.738C434.997 194.637 434.377 194.699 433.802 194.918C433.278 195.129 432.716 195.217 432.155 195.176C431.594 195.135 431.05 194.967 430.561 194.682C430.07 194.407 429.644 194.025 429.312 193.563C428.981 193.101 428.751 192.571 428.64 192.01L427.79 187.811L427.7 187.586C423.559 180.52 415.597 175.38 405.855 173.495C397.183 171.806 388.291 172.666 379.719 173.475C376.318 173.803 372.478 174.171 369.277 176.178C366.556 177.899 364.256 181.339 364.726 184.811C356.274 182.159 347.212 187.453 342.721 194.129C337.4 202.076 336.529 212.029 336.389 219.812C336.009 238.223 339.72 253.287 347.392 264.592C347.952 265.411 348.092 267.121 349.202 267.694L348.972 267.316C350.212 267.95 351.473 268.974 351.003 270.07C349.652 273.224 358.624 280.198 364.946 282.502C376.478 286.71 391.812 286.352 402.594 284.836L402.975 282.225C406.865 281.683 409.606 280.648 410.376 279.03C411.737 277.842 412.897 276.777 413.907 275.794L413.917 275.784C413.937 275.764 413.977 275.733 413.997 275.713C418.868 270.93 419.998 268.207 420.509 264.059C420.999 259.994 420.128 255.867 419.238 252.15C437.983 255.12 411.857 231.711 429.321 227.185C429.521 227.121 429.725 227.07 429.931 227.031C430.441 226.908 430.951 226.785 431.441 226.642C433.804 225.985 436.066 224.996 438.163 223.703C443.044 220.662 444.654 216.627 447.175 212.08C447.538 211.433 447.691 210.684 447.61 209.941C447.529 209.199 447.219 208.503 446.725 207.954Z" fill="#2F2E41"/>
<path d="M544.117 438.725C544.107 440.517 544.087 443.026 544.007 446.129C543.997 446.559 543.987 446.999 543.977 447.45C543.847 453.154 543.717 457.936 543.507 463.25C543.497 463.619 543.487 463.978 543.467 464.346C543.186 471.76 542.746 480.392 541.986 494.063C540.576 519.315 538.115 497.534 535.645 506.392C535.525 506.833 535.395 507.355 535.275 507.969C534.901 510.198 534.269 512.374 533.394 514.451C532.084 515.25 530.734 516.018 529.403 516.786C525.612 518.947 521.762 521.025 517.881 523.002C515.7 524.108 513.51 525.193 511.309 526.238C510.959 526.401 510.619 526.565 510.279 526.719C499.011 532.055 487.397 536.592 475.521 540.297C473.201 541.014 470.89 541.71 468.55 542.356C466.109 543.052 463.668 543.707 461.198 544.322C442.819 548.941 424.012 551.546 405.095 552.094C402.544 552.176 399.974 552.207 397.393 552.207C396.113 552.207 394.853 552.196 393.572 552.186C393.182 552.186 392.792 552.176 392.402 552.166C391.272 552.135 390.102 552.114 388.921 552.084C366.095 551.355 343.455 547.628 321.556 540.994L320.626 540.717C319.185 540.267 317.755 539.826 316.325 539.355C309.723 537.215 303.218 534.819 296.81 532.167C291.919 530.149 287.085 527.985 282.307 525.674C282.263 525.662 282.222 525.641 282.187 525.613C281.187 525.142 280.176 524.65 279.176 524.149C279.046 524.077 278.906 524.005 278.766 523.934C275.035 522.07 271.344 520.117 267.694 518.076C264.623 510.857 260.302 509.474 257.621 503.126C256.841 501.239 256.277 499.267 255.941 497.248C255.941 497.227 255.931 497.207 255.931 497.176C256.211 500.985 254.741 490.418 255.921 497.135C255.911 497.012 255.901 496.879 255.891 496.725C255.861 496.357 255.821 495.906 255.761 495.343C252.33 461.049 252.55 421.829 251.06 389.511C250.96 387.422 250.856 385.422 250.75 383.51C250.72 382.876 250.68 382.251 250.64 381.637C250.71 381.452 250.79 381.258 250.88 381.073C250.899 381.02 250.922 380.969 250.95 380.92C250.979 380.856 251.013 380.795 251.05 380.735C251.07 380.705 251.1 380.664 251.12 380.633C251.134 380.598 251.151 380.564 251.17 380.531C251.26 380.387 251.36 380.234 251.47 380.09C251.52 380.029 251.56 379.978 251.61 379.926C251.644 379.874 251.685 379.826 251.73 379.783C251.761 379.734 251.798 379.689 251.84 379.65C251.88 379.609 251.92 379.558 251.97 379.507C251.991 379.474 252.018 379.447 252.05 379.425C252.129 379.332 252.216 379.246 252.31 379.169C252.667 378.833 253.048 378.524 253.45 378.247C253.59 378.155 253.74 378.063 253.88 377.96C254.888 377.343 255.95 376.822 257.051 376.404C257.431 376.261 257.811 376.127 258.221 375.984C258.371 375.943 258.511 375.892 258.661 375.841C258.882 375.769 259.102 375.697 259.332 375.646C260.472 375.298 261.702 375.001 263.032 374.724C263.193 374.694 263.363 374.663 263.533 374.622C263.773 374.571 264.023 374.53 264.273 374.489C264.613 374.428 264.963 374.366 265.313 374.305C268.284 373.823 271.654 373.465 275.375 373.229C275.725 373.209 276.075 373.189 276.426 373.168C276.836 373.148 277.246 373.127 277.666 373.107C278.016 373.086 278.376 373.076 278.736 373.066C279.086 373.045 279.446 373.035 279.816 373.025C280.827 372.994 281.867 372.963 282.927 372.943C285.948 372.881 289.128 372.902 292.469 372.973C294.02 373.014 295.6 373.055 297.22 373.127C297.33 373.127 297.43 373.137 297.53 373.137C298.941 373.188 300.361 373.25 301.821 373.332C302.842 373.383 303.872 373.434 304.902 373.496C305.872 373.557 306.852 373.619 307.843 373.69C308.613 373.731 309.383 373.793 310.163 373.844C310.823 373.895 311.484 373.946 312.144 373.987L313.044 374.049C313.534 374.09 314.024 374.12 314.524 374.172C315.624 374.264 316.725 374.356 317.845 374.448C318.955 374.55 320.085 374.653 321.216 374.755C322.346 374.858 323.486 374.97 324.627 375.083C324.747 375.093 324.857 375.103 324.967 375.114C326.007 375.226 327.047 375.329 328.097 375.441C328.337 375.462 328.587 375.482 328.827 375.513C329.829 375.616 330.85 375.737 331.86 375.847C332.17 375.881 332.479 375.914 332.79 375.949C333.581 376.037 334.362 376.114 335.159 376.209C336.209 376.332 337.279 376.445 338.32 376.588C339.13 376.68 339.94 376.773 340.75 376.875C342.02 377.029 343.311 377.192 344.601 377.366C345.091 377.428 345.581 377.489 346.071 377.561C349.752 378.032 353.473 378.554 357.254 379.097C362.985 379.926 368.807 380.828 374.668 381.8C380.539 382.773 386.444 383.801 392.382 384.883C393.882 385.159 395.383 385.436 396.893 385.722C397.573 385.855 398.253 385.989 398.933 386.122C400.094 386.337 401.254 386.562 402.414 386.787C403.574 387.013 404.735 387.238 405.895 387.473C407.275 387.75 408.666 388.026 410.046 388.303C419.138 390.146 428.18 392.112 437.002 394.171C438.452 394.508 439.903 394.857 441.343 395.195C444.224 395.881 447.078 396.577 449.905 397.283C450.685 397.468 451.455 397.662 452.226 397.857C454.146 398.348 456.066 398.84 457.957 399.342L458.287 399.434C459.677 399.782 461.038 400.141 462.398 400.509C465.609 401.369 468.766 402.24 471.87 403.12C473.931 403.704 475.968 404.295 477.982 404.892C480.992 405.783 483.943 406.684 486.814 407.595C487.524 407.821 488.234 408.046 488.934 408.261C491.034 408.926 493.105 409.602 495.115 410.278C496.716 410.811 498.276 411.353 499.816 411.896C501.357 412.439 502.867 412.982 504.348 413.524C505.298 413.872 506.238 414.241 507.178 414.589C508.528 415.101 509.859 415.613 511.159 416.125C511.559 416.279 511.949 416.443 512.339 416.596C512.589 416.709 512.829 416.801 513.07 416.904C513.54 417.098 514.02 417.282 514.48 417.477C514.95 417.661 515.41 417.856 515.87 418.061C516.32 418.245 516.78 418.44 517.22 418.634C517.671 418.818 518.111 419.013 518.551 419.218C518.921 419.371 519.281 419.535 519.631 419.699C520.341 420.017 521.051 420.334 521.742 420.662C522.082 420.826 522.422 420.979 522.762 421.143L523.542 421.512C523.652 421.573 523.762 421.624 523.872 421.676C524.122 421.798 524.382 421.932 524.632 422.054C525.212 422.331 525.782 422.628 526.343 422.904C527.093 423.293 527.823 423.683 528.523 424.061C529.233 424.451 529.923 424.84 530.584 425.219C530.694 425.28 530.794 425.341 530.904 425.403C531.054 425.485 531.204 425.577 531.354 425.659C531.864 425.956 532.354 426.263 532.844 426.56C533.804 427.164 534.714 427.758 535.565 428.352C535.755 428.485 535.935 428.618 536.125 428.741C536.755 429.202 537.355 429.653 537.915 430.113C537.915 430.124 537.915 430.124 537.925 430.124C538.115 430.267 538.295 430.421 538.475 430.564C538.625 430.707 538.785 430.83 538.935 430.974C539.456 431.434 539.936 431.875 540.376 432.325C540.523 432.464 540.664 432.611 540.796 432.766C540.854 432.815 540.908 432.87 540.956 432.929C541.156 433.134 541.336 433.339 541.506 433.544C541.532 433.572 541.556 433.603 541.576 433.636C541.816 433.923 542.036 434.209 542.246 434.496C542.346 434.639 542.456 434.783 542.546 434.926C542.666 435.1 542.786 435.285 542.886 435.459C542.976 435.602 543.056 435.756 543.136 435.899C543.349 436.268 543.529 436.655 543.677 437.056C543.789 437.328 543.879 437.609 543.947 437.896C544.022 438.168 544.079 438.445 544.117 438.725Z" fill="#2F2E41"/>
<path opacity="0.2" d="M544.117 438.725C544.107 440.517 544.087 443.026 544.007 446.129C543.997 446.559 543.977 446.999 543.967 447.45C543.867 451.802 543.717 457.178 543.507 463.25C543.497 463.619 543.487 463.978 543.467 464.346C543.187 471.76 542.746 480.392 541.986 494.063C540.576 519.315 538.115 497.534 535.645 506.392C528.783 502.071 521.262 497.545 513.22 492.896C511.769 492.056 510.306 491.213 508.829 490.366C492.745 481.181 474.781 471.555 456.027 462.022C455.286 461.643 454.536 461.264 453.796 460.895C410.836 439.155 363.946 418.01 325.957 403.899C318.625 401.175 311.624 398.717 305.042 396.556C291.179 392.02 279.196 388.846 269.974 387.473C260.372 386.04 253.74 386.552 251.06 389.511C250.96 387.422 250.856 385.422 250.75 383.51C250.71 382.876 250.67 382.251 250.63 381.637C250.691 381.468 250.772 381.307 250.849 381.145C250.86 381.121 250.868 381.097 250.88 381.073C250.899 381.02 250.922 380.969 250.95 380.92C250.979 380.856 251.013 380.795 251.05 380.735C251.082 380.663 251.123 380.594 251.17 380.531C251.26 380.387 251.36 380.234 251.47 380.09C251.551 379.983 251.638 379.88 251.73 379.783C251.761 379.734 251.798 379.689 251.84 379.65C251.88 379.609 251.92 379.558 251.97 379.507C251.991 379.474 252.018 379.447 252.05 379.425C252.129 379.332 252.216 379.246 252.31 379.169C252.667 378.833 253.048 378.524 253.45 378.247C253.59 378.155 253.74 378.063 253.88 377.96C254.888 377.343 255.95 376.822 257.051 376.404C257.431 376.26 257.811 376.127 258.221 375.984C258.371 375.943 258.511 375.892 258.661 375.841C258.882 375.769 259.102 375.697 259.332 375.646C260.472 375.298 261.702 375.001 263.032 374.724C263.433 374.643 263.853 374.561 264.273 374.489C264.613 374.427 264.963 374.366 265.313 374.305C268.284 373.823 271.654 373.465 275.375 373.229C275.725 373.209 276.075 373.188 276.426 373.168C276.836 373.147 277.246 373.127 277.666 373.106C278.016 373.086 278.376 373.076 278.736 373.066C279.086 373.045 279.446 373.035 279.816 373.025C280.827 372.994 281.867 372.963 282.927 372.943C285.948 372.891 289.128 372.912 292.469 372.984C294.02 373.014 295.6 373.066 297.22 373.137C297.32 373.137 297.43 373.147 297.53 373.147C298.941 373.188 300.371 373.26 301.821 373.332C302.842 373.383 303.872 373.434 304.902 373.496C305.872 373.557 306.852 373.618 307.843 373.69C308.613 373.731 309.383 373.793 310.163 373.844C310.823 373.895 311.484 373.946 312.144 373.987C312.934 374.049 313.724 374.11 314.524 374.171C315.624 374.264 316.725 374.356 317.845 374.448C318.955 374.55 320.086 374.653 321.216 374.755C322.346 374.858 323.486 374.97 324.627 375.083C324.747 375.093 324.857 375.103 324.967 375.114C326.007 375.226 327.047 375.329 328.097 375.441C333.919 376.045 339.91 376.752 346.071 377.561C349.752 378.042 353.48 378.558 357.254 379.107C362.985 379.937 368.807 380.838 374.668 381.8C380.539 382.773 386.444 383.801 392.382 384.883C393.882 385.159 395.383 385.436 396.893 385.722C398.733 386.07 400.574 386.425 402.414 386.787C403.575 387.013 404.735 387.238 405.895 387.473C407.275 387.75 408.666 388.026 410.046 388.303C419.138 390.146 428.18 392.112 437.002 394.17C438.453 394.508 439.903 394.857 441.343 395.194C444.224 395.881 447.078 396.577 449.905 397.283C450.685 397.478 451.456 397.673 452.226 397.867C454.156 398.359 456.067 398.85 457.957 399.342V399.352C458.067 399.372 458.177 399.403 458.287 399.434C459.667 399.792 461.038 400.151 462.398 400.519C465.609 401.38 468.766 402.247 471.87 403.12C473.931 403.714 475.971 404.298 477.982 404.892C480.992 405.793 483.943 406.694 486.814 407.595C487.524 407.821 488.234 408.046 488.934 408.261C491.035 408.937 493.095 409.609 495.116 410.278C496.716 410.811 498.276 411.353 499.817 411.896C501.357 412.439 502.867 412.982 504.348 413.524C505.308 413.873 506.248 414.231 507.178 414.579C508.539 415.091 509.859 415.603 511.159 416.125C511.559 416.279 511.949 416.443 512.339 416.596C513.07 416.883 513.78 417.18 514.48 417.477C514.95 417.661 515.41 417.856 515.87 418.061C516.32 418.245 516.78 418.44 517.221 418.634C517.671 418.818 518.111 419.013 518.551 419.218C518.921 419.371 519.281 419.535 519.631 419.699C520.341 420.017 521.051 420.334 521.742 420.662C522.082 420.826 522.422 420.979 522.762 421.143L523.542 421.512C523.652 421.573 523.762 421.624 523.872 421.675C524.722 422.085 525.542 422.495 526.343 422.904C527.093 423.293 527.823 423.683 528.523 424.061C529.353 424.512 530.143 424.952 530.904 425.403C531.054 425.485 531.204 425.577 531.354 425.659C531.864 425.956 532.354 426.263 532.844 426.56C533.804 427.164 534.715 427.758 535.565 428.352C536.405 428.946 537.185 429.53 537.915 430.113C537.915 430.124 537.915 430.124 537.925 430.124C538.275 430.41 538.615 430.697 538.936 430.973C539.456 431.434 539.936 431.875 540.376 432.325C540.523 432.464 540.664 432.611 540.796 432.765C540.854 432.815 540.908 432.87 540.956 432.929C541.166 433.165 541.376 433.4 541.576 433.636C541.816 433.923 542.036 434.209 542.246 434.496C542.346 434.639 542.456 434.783 542.546 434.926C542.666 435.1 542.786 435.285 542.887 435.459C542.977 435.602 543.057 435.756 543.137 435.899C543.349 436.268 543.53 436.655 543.677 437.056C543.786 437.329 543.876 437.61 543.947 437.896C544.023 438.168 544.079 438.445 544.117 438.725Z" fill="black"/>
</g>
<defs>
<clipPath id="clip0_592_191">
<rect width="787" height="586" fill="white"/>
</clipPath>
</defs>
</svg>
