<svg width="231" height="180" viewBox="0 0 231 180" fill="none" xmlns="http://www.w3.org/2000/svg">
<g clip-path="url(#clip0_592_305)">
<path d="M47.9555 118.398C37.5116 108.104 33.1006 97.3644 35.5347 88.1585C38.6584 76.3446 52.5355 68.1764 73.6077 65.7481L73.6855 66.4258C52.9066 68.8201 39.2412 76.805 36.1932 88.333C33.8243 97.2921 38.1713 107.797 48.4334 117.912L47.9555 118.398Z" fill="#F0F0F0"/>
<path d="M148.721 154.938C135.687 154.938 121.522 152.999 107.453 149.269C90.0545 144.658 74.1019 137.697 61.3198 129.139L61.6983 128.572C74.4188 137.089 90.3008 144.018 107.627 148.61C123.285 152.761 139.06 154.684 153.242 154.176L153.266 154.858C151.769 154.912 150.254 154.938 148.721 154.938Z" fill="#F0F0F0"/>
<path d="M178.624 150.649L178.406 150.003C190.064 146.057 197.355 139.7 199.492 131.618C202.209 121.345 196.307 109.423 182.876 98.0497C169.375 86.6182 149.908 77.1329 128.058 71.3414L128.232 70.6821C150.178 76.499 169.74 86.0334 183.315 97.5291C196.959 109.082 202.938 121.251 200.151 131.793C197.953 140.106 190.509 146.626 178.624 150.649Z" fill="#F0F0F0"/>
<path d="M71.5798 155.223C45.9675 143.85 26.2313 129.094 16.0071 113.674L16.5745 113.297C26.728 128.61 46.3606 143.278 71.8558 154.6L71.5798 155.223Z" fill="#F0F0F0"/>
<path d="M161.631 174.927C158.989 174.927 156.302 174.868 153.57 174.75L153.599 174.068C173.987 174.952 191.976 172.509 205.625 167.002L205.879 167.635C193.973 172.438 178.799 174.927 161.631 174.927Z" fill="#F0F0F0"/>
<path d="M146.77 66.3597C142.537 64.9797 138.182 63.6948 133.828 62.5406C108.771 55.8988 84.1391 53.5407 62.5951 55.7223L62.5266 55.0437C84.151 52.8548 108.867 55.2187 134.002 61.8813C138.369 63.0388 142.736 64.3274 146.981 65.7113L146.77 66.3597Z" fill="#F0F0F0"/>
<path d="M31.9484 119.421C21.5045 109.127 17.0935 98.3874 19.5276 89.1815C22.6513 77.3677 36.5284 69.1994 57.6006 66.7711L57.6784 67.4488C36.8996 69.8431 23.2342 77.828 20.1861 89.356C17.8172 98.3151 22.1642 108.82 32.4263 118.935L31.9484 119.421Z" fill="#F0F0F0"/>
<path d="M132.715 155.961C119.68 155.961 105.516 154.022 91.4462 150.292C74.0476 145.681 58.095 138.72 45.313 130.162L45.6915 129.595C58.412 138.112 74.2939 145.041 91.6205 149.633C107.278 153.784 123.053 155.707 137.235 155.199L137.259 155.881C135.762 155.935 134.247 155.961 132.715 155.961Z" fill="#F0F0F0"/>
<path d="M162.618 151.672L162.399 151.026C174.057 147.08 181.349 140.723 183.485 132.641C186.202 122.368 180.301 110.446 166.869 99.0727C153.369 87.6412 133.901 78.1559 112.051 72.3644L112.226 71.7051C134.171 77.522 153.733 87.0564 167.308 98.5521C180.952 110.105 186.931 122.274 184.144 132.816C181.946 141.129 174.502 147.649 162.618 151.672Z" fill="#F0F0F0"/>
<path d="M55.5727 156.246C29.9604 144.873 10.2242 130.117 0 114.697L0.567407 114.32C10.721 129.633 30.3536 144.301 55.8488 155.623L55.5727 156.246Z" fill="#F0F0F0"/>
<path d="M145.623 175.95C142.982 175.95 140.295 175.891 137.563 175.773L137.592 175.091C157.98 175.975 175.969 173.532 189.617 168.025L189.872 168.658C177.966 173.461 162.792 175.95 145.623 175.95Z" fill="#F0F0F0"/>
<path d="M130.763 67.3827C126.53 66.0027 122.175 64.7178 117.821 63.5636C92.7637 56.9219 68.132 54.5637 46.588 56.7454L46.5195 56.0667C68.1439 53.8779 92.8598 56.2417 117.995 62.9043C122.362 64.0618 126.729 65.3504 130.974 66.7343L130.763 67.3827Z" fill="#F0F0F0"/>
<path d="M11.6098 101.154C16.5047 95.659 24.3128 92.3101 31.3886 94.3148C24.8608 98.9401 20.1774 105.728 18.1671 113.478C17.4026 116.47 16.8634 119.877 14.3785 121.706C12.8324 122.844 10.7837 123.116 8.88228 122.857C6.98077 122.597 5.18283 121.857 3.40916 121.123L2.93188 121.165C4.30409 113.931 6.71501 106.649 11.6098 101.154Z" fill="#F2F2F2"/>
<path d="M31.367 94.4678C25.4511 95.9019 20.1369 99.166 16.1793 103.796C15.3096 104.778 14.5999 105.891 14.0763 107.094C13.6041 108.282 13.4583 109.575 13.6541 110.839C13.8131 112.021 14.1123 113.212 13.9815 114.412C13.9054 115.025 13.7007 115.615 13.3808 116.144C13.0609 116.673 12.633 117.127 12.1252 117.479C10.8826 118.387 9.38815 118.795 7.91286 119.142C6.27482 119.528 4.56731 119.902 3.23205 120.992C3.07026 121.124 2.87506 120.865 3.0366 120.733C5.35973 118.837 8.58835 119.081 11.1587 117.703C12.358 117.061 13.3712 116.052 13.6175 114.668C13.8329 113.458 13.5254 112.23 13.3542 111.035C13.1451 109.804 13.24 108.542 13.6307 107.357C14.0914 106.131 14.7571 104.993 15.5993 103.991C17.4593 101.704 19.6668 99.7251 22.1409 98.1254C24.9544 96.2839 28.0619 94.9378 31.3288 94.1455C31.531 94.0965 31.5679 94.4191 31.367 94.4678Z" fill="white"/>
<path d="M17.3659 102.23C16.6801 101.46 16.2902 100.471 16.2656 99.4391C16.2411 98.4075 16.5836 97.4008 17.232 96.5987C17.3638 96.4368 17.6211 96.6342 17.4892 96.7963C16.8841 97.5421 16.5651 98.4799 16.5899 99.4404C16.6147 100.401 16.9816 101.321 17.6244 102.035C17.7639 102.19 17.5046 102.385 17.3659 102.23Z" fill="white"/>
<path d="M13.4948 110.25C15.5969 110.39 17.6744 109.731 19.3131 108.406C19.4753 108.274 19.6706 108.533 19.5085 108.665C17.8007 110.041 15.6373 110.722 13.4501 110.572C13.2417 110.557 13.2874 110.236 13.4948 110.25Z" fill="white"/>
<path d="M25.0273 96.7079C25.2306 97.0613 25.5184 97.3586 25.8648 97.5731C26.2113 97.7877 26.6055 97.9127 27.0121 97.9369C27.2206 97.9488 27.1747 98.2701 26.9675 98.2584C26.5184 98.2295 26.0832 98.0909 25.6999 97.8547C25.3166 97.6185 24.9969 97.292 24.7688 96.9036C24.7442 96.8688 24.7338 96.8259 24.7396 96.7837C24.7455 96.7415 24.7672 96.7031 24.8003 96.6763C24.8347 96.6506 24.8778 96.6395 24.9203 96.6454C24.9628 96.6513 25.0012 96.6738 25.0273 96.7079Z" fill="white"/>
<path d="M41.433 117.126C41.3026 117.122 41.1721 117.118 41.04 117.117C39.2863 117.077 37.5322 117.179 35.795 117.423C35.6604 117.44 35.5242 117.459 35.3903 117.479C31.2113 118.112 27.186 119.517 23.519 121.621C22.0606 122.46 20.668 123.408 19.3533 124.458C17.5378 125.909 15.6845 127.626 13.559 128.37C13.3381 128.45 13.1125 128.516 12.8834 128.568L3.01937 121.744C3.00472 121.718 2.98842 121.693 2.97366 121.666L2.56738 121.412C2.63141 121.353 2.69908 121.293 2.7631 121.234C2.8001 121.2 2.83931 121.167 2.87629 121.133C2.90165 121.11 2.92714 121.088 2.94874 121.066C2.95716 121.059 2.96568 121.051 2.97255 121.046C2.99416 121.025 3.01652 121.007 3.03657 120.987C3.41391 120.652 3.79424 120.32 4.17759 119.989C4.17915 119.987 4.17915 119.987 4.18291 119.986C7.11024 117.474 10.2728 115.184 13.6819 113.448C13.7845 113.396 13.8885 113.341 13.9956 113.292C15.5366 112.518 17.1382 111.871 18.7844 111.358C19.6867 111.08 20.6025 110.848 21.5283 110.663C23.9212 110.189 26.3737 110.095 28.7958 110.384C33.6243 110.961 38.2146 113.078 41.2072 116.836C41.2837 116.932 41.3581 117.027 41.433 117.126Z" fill="#F2F2F2"/>
<path d="M41.3242 117.236C35.7383 114.815 29.5325 114.217 23.5882 115.528C22.3035 115.788 21.0677 116.249 19.9263 116.894C18.8348 117.558 17.9407 118.502 17.3371 119.63C16.7532 120.669 16.2761 121.8 15.45 122.68C15.0205 123.123 14.5021 123.471 13.9288 123.7C13.3555 123.93 12.7403 124.035 12.1236 124.009C10.5852 123.986 9.14706 123.41 7.76021 122.798C6.22038 122.119 4.63172 121.388 2.91018 121.454C2.70159 121.462 2.70152 121.137 2.90979 121.129C5.90497 121.016 8.33644 123.156 11.217 123.606C12.561 123.816 13.9764 123.621 15.0053 122.665C15.9049 121.828 16.3978 120.662 16.98 119.605C17.5527 118.497 18.3878 117.546 19.4122 116.835C20.5171 116.134 21.7331 115.627 23.0081 115.334C25.8681 114.63 28.8208 114.38 31.7583 114.594C35.1121 114.82 38.4026 115.619 41.4875 116.955C41.6784 117.038 41.5139 117.318 41.3242 117.236Z" fill="white"/>
<path d="M25.4775 114.993C25.3931 113.965 25.6766 112.94 26.2774 112.102C26.8781 111.263 27.757 110.666 28.757 110.416C28.9595 110.366 29.0463 110.679 28.8435 110.729C27.9119 110.96 27.0933 111.516 26.5355 112.298C25.9777 113.08 25.7174 114.036 25.8016 114.993C25.8196 115.201 25.4954 115.2 25.4775 114.993Z" fill="white"/>
<path d="M17.5639 119.063C19.1583 120.442 21.2131 121.169 23.3187 121.098C23.5273 121.091 23.5274 121.415 23.3191 121.422C21.1278 121.492 18.991 120.732 17.335 119.293C17.1772 119.156 17.407 118.927 17.5639 119.063Z" fill="white"/>
<path d="M34.9154 115.203C34.8652 115.607 34.9162 116.018 35.0638 116.398C35.2114 116.778 35.451 117.116 35.7611 117.38C35.9205 117.515 35.6905 117.744 35.5322 117.61C35.191 117.316 34.9268 116.943 34.7628 116.524C34.5988 116.104 34.5399 115.651 34.5913 115.203C34.5926 115.16 34.61 115.12 34.6401 115.09C34.6702 115.059 34.7106 115.042 34.7531 115.04C34.796 115.041 34.8371 115.058 34.8675 115.088C34.8979 115.118 34.9151 115.16 34.9154 115.203Z" fill="white"/>
<path d="M203.407 146.198C200.641 139.376 194.411 133.594 187.074 133.101C191.67 139.654 193.802 147.623 193.094 155.599C192.81 158.674 192.174 162.064 193.9 164.623C194.974 166.215 196.812 167.16 198.69 167.556C200.568 167.952 202.51 167.86 204.427 167.766L204.862 167.965C205.998 160.691 206.172 153.021 203.407 146.198Z" fill="#F2F2F2"/>
<path d="M187.043 133.252C192.133 136.594 196.043 141.456 198.216 147.149C198.705 148.366 199 149.653 199.09 150.962C199.135 152.24 198.839 153.508 198.23 154.632C197.684 155.692 197.002 156.712 196.722 157.887C196.588 158.49 196.583 159.115 196.707 159.72C196.831 160.326 197.081 160.898 197.441 161.4C198.306 162.674 199.577 163.56 200.85 164.384C202.263 165.298 203.746 166.226 204.637 167.702C204.746 167.881 205.016 167.702 204.908 167.524C203.357 164.956 200.235 164.099 198.276 161.937C197.362 160.928 196.747 159.637 196.979 158.251C197.182 157.038 197.884 155.985 198.447 154.917C199.057 153.829 199.391 152.608 199.421 151.36C199.398 150.051 199.154 148.755 198.697 147.528C197.713 144.748 196.298 142.141 194.505 139.802C192.473 137.121 189.998 134.807 187.187 132.962C187.013 132.848 186.87 133.139 187.043 133.252Z" fill="white"/>
<path d="M197.624 145.275C198.529 144.78 199.228 143.98 199.597 143.016C199.967 142.053 199.982 140.99 199.641 140.016C199.571 139.819 199.262 139.919 199.332 140.116C199.652 141.022 199.637 142.012 199.292 142.909C198.946 143.805 198.291 144.548 197.446 145.004C197.263 145.103 197.442 145.374 197.624 145.275Z" fill="white"/>
<path d="M198.578 154.131C196.551 153.555 194.816 152.236 193.717 150.436C193.609 150.257 193.338 150.436 193.446 150.614C194.593 152.485 196.402 153.854 198.512 154.449C198.713 154.505 198.778 154.187 198.578 154.131Z" fill="white"/>
<path d="M192.262 137.496C191.952 137.76 191.581 137.943 191.183 138.029C190.785 138.114 190.371 138.099 189.98 137.985C189.78 137.926 189.715 138.244 189.914 138.303C190.347 138.427 190.804 138.443 191.244 138.349C191.684 138.256 192.095 138.056 192.44 137.767C192.475 137.743 192.499 137.706 192.508 137.664C192.516 137.622 192.509 137.579 192.487 137.542C192.463 137.507 192.426 137.482 192.384 137.473C192.342 137.464 192.298 137.472 192.262 137.496Z" fill="white"/>
<path d="M169.957 151.205C170.081 151.245 170.205 151.286 170.33 151.329C171.995 151.881 173.613 152.568 175.167 153.382C175.288 153.443 175.41 153.507 175.529 153.572C179.253 155.574 182.573 158.251 185.32 161.467C186.412 162.748 187.405 164.11 188.291 165.541C189.514 167.518 190.683 169.759 192.435 171.175C192.616 171.324 192.807 171.463 193.005 171.589L204.586 168.482C204.608 168.461 204.632 168.444 204.655 168.423L205.123 168.321C205.082 168.244 205.039 168.165 204.998 168.087C204.975 168.043 204.949 167.999 204.926 167.954C204.909 167.924 204.893 167.895 204.88 167.867C204.874 167.857 204.869 167.847 204.864 167.84C204.851 167.812 204.836 167.788 204.823 167.763C204.58 167.321 204.334 166.879 204.084 166.439C204.083 166.436 204.083 166.436 204.08 166.434C202.166 163.083 199.956 159.862 197.328 157.08C197.249 156.996 197.17 156.91 197.085 156.827C195.894 155.58 194.602 154.432 193.224 153.395C192.468 152.829 191.683 152.303 190.873 151.817C188.779 150.565 186.5 149.651 184.122 149.108C179.381 148.027 174.347 148.476 170.267 151.008C170.163 151.073 170.061 151.137 169.957 151.205Z" fill="#F2F2F2"/>
<path d="M170.022 151.345C176.096 150.944 182.142 152.47 187.3 155.706C188.423 156.382 189.432 157.232 190.29 158.224C191.096 159.216 191.62 160.407 191.811 161.672C192.012 162.847 192.081 164.073 192.564 165.179C192.82 165.742 193.191 166.244 193.654 166.653C194.117 167.062 194.661 167.368 195.251 167.551C196.707 168.047 198.255 167.988 199.767 167.879C201.445 167.757 203.186 167.604 204.786 168.245C204.98 168.322 205.089 168.017 204.895 167.939C202.112 166.824 199.104 168.022 196.24 167.476C194.904 167.222 193.636 166.562 192.988 165.315C192.421 164.225 192.348 162.961 192.155 161.769C191.988 160.532 191.521 159.356 190.794 158.342C189.989 157.31 189.014 156.422 187.911 155.718C185.454 154.092 182.757 152.863 179.919 152.076C176.684 151.16 173.317 150.805 169.963 151.026C169.755 151.04 169.816 151.359 170.022 151.345Z" fill="white"/>
<path d="M185.7 154.566C186.125 153.626 186.202 152.565 185.917 151.573C185.633 150.581 185.006 149.723 184.148 149.151C183.974 149.036 183.787 149.302 183.961 149.417C184.761 149.948 185.345 150.747 185.608 151.671C185.871 152.596 185.796 153.583 185.395 154.457C185.308 154.646 185.614 154.755 185.7 154.566Z" fill="white"/>
<path d="M191.787 161.062C189.823 161.824 187.644 161.817 185.684 161.042C185.49 160.965 185.381 161.27 185.575 161.347C187.615 162.15 189.883 162.153 191.926 161.356C192.12 161.279 191.981 160.986 191.787 161.062Z" fill="white"/>
<path d="M176.741 151.587C176.653 151.985 176.467 152.355 176.2 152.663C175.933 152.971 175.594 153.209 175.214 153.353C175.018 153.427 175.158 153.72 175.352 153.647C175.772 153.485 176.146 153.222 176.441 152.882C176.737 152.542 176.944 152.135 177.046 151.696C177.059 151.656 177.056 151.612 177.038 151.573C177.02 151.535 176.988 151.505 176.948 151.489C176.908 151.475 176.863 151.477 176.825 151.495C176.786 151.514 176.756 151.547 176.741 151.587Z" fill="white"/>
<path d="M149.753 169.429C151.258 169.429 152.478 168.208 152.478 166.701C152.478 165.195 151.258 163.973 149.753 163.973C148.249 163.973 147.029 165.195 147.029 166.701C147.029 168.208 148.249 169.429 149.753 169.429Z" fill="#FD6584"/>
<path d="M159.404 122.966C160.909 122.966 162.129 121.745 162.129 120.238C162.129 118.731 160.909 117.51 159.404 117.51C157.9 117.51 156.68 118.731 156.68 120.238C156.68 121.745 157.9 122.966 159.404 122.966Z" fill="#E6E6E6"/>
<path d="M108.706 47.2973C110.211 47.2973 111.431 46.0759 111.431 44.5693C111.431 43.0627 110.211 41.8413 108.706 41.8413C107.201 41.8413 105.981 43.0627 105.981 44.5693C105.981 46.0759 107.201 47.2973 108.706 47.2973Z" fill="#E6E6E6"/>
<path d="M51.6106 149.214C51.6106 149.908 51.6335 150.603 51.682 151.291C51.7334 152.115 51.8218 152.932 51.9417 153.743C52.3446 156.476 53.1146 159.142 54.2308 161.668C54.2878 161.794 54.3449 161.919 54.402 162.045L54.4876 162.234C54.5162 162.297 54.5476 162.359 54.5761 162.419C54.6161 162.502 54.6532 162.582 54.6931 162.662C54.7416 162.762 54.7902 162.862 54.8415 162.962C54.8472 162.974 54.853 162.988 54.8615 163.002C54.9043 163.088 54.9443 163.171 54.99 163.257C54.9984 163.275 55.0079 163.294 55.0185 163.311C55.067 163.408 55.1184 163.508 55.1698 163.605C55.2269 163.708 55.2811 163.814 55.3382 163.917C55.4752 164.171 55.6179 164.423 55.7634 164.674C55.8063 164.748 55.8491 164.823 55.8947 164.897C55.9347 164.966 55.9747 165.034 56.0175 165.103C56.046 165.149 56.0745 165.197 56.1031 165.243C56.1488 165.32 56.1944 165.394 56.2429 165.471C56.3485 165.64 56.457 165.809 56.5626 165.977H56.5655C56.614 166.054 56.6654 166.132 56.7167 166.206V166.209C56.868 166.437 57.025 166.666 57.182 166.892L57.1831 166.892L57.184 166.893L57.1846 166.893L57.1848 166.895C57.3104 167.077 57.4417 167.255 57.5701 167.432V167.435C57.6558 167.546 57.7385 167.66 57.8242 167.772C57.8927 167.863 57.964 167.958 58.0354 168.049C58.0496 168.069 58.0668 168.086 58.081 168.106V168.109C58.101 168.135 58.121 168.158 58.141 168.183C58.4435 168.572 58.7556 168.952 59.0771 169.324L59.1285 169.384C59.1456 169.404 59.1656 169.424 59.1827 169.446C59.2113 169.478 59.237 169.509 59.2655 169.541C59.2912 169.572 59.3197 169.604 59.3483 169.635C61.0246 171.526 62.9252 173.204 65.0081 174.633C65.285 174.825 65.5675 175.01 65.8501 175.19C65.9214 175.236 65.9928 175.282 66.0641 175.325C66.0841 175.339 66.107 175.353 66.1269 175.368C66.1669 175.391 66.204 175.413 66.244 175.439C66.2811 175.462 66.3182 175.485 66.3581 175.508C66.5094 175.602 66.6635 175.693 66.8176 175.785C66.8548 175.808 66.8947 175.831 66.9347 175.853C66.9718 175.873 67.0117 175.896 67.0517 175.919C67.0517 175.922 67.0517 175.922 67.0545 175.922H67.0574V175.925H67.0602C67.2515 176.036 67.4456 176.145 67.6425 176.251C67.7481 176.308 67.8566 176.368 67.965 176.422C68.2105 176.556 68.4588 176.685 68.7071 176.808C68.7956 176.851 68.8869 176.894 68.9754 176.939C69.0496 176.974 69.1238 177.011 69.198 177.045C69.2209 177.057 69.2408 177.065 69.2608 177.077C69.3236 177.105 69.3835 177.134 69.4463 177.162C69.5148 177.194 69.5833 177.225 69.649 177.257C69.726 177.291 69.8003 177.325 69.8773 177.357C70.1627 177.485 70.451 177.608 70.7393 177.725C71.7724 178.149 72.8281 178.516 73.9017 178.823C73.9502 178.837 74.0016 178.851 74.053 178.865C74.5125 178.994 74.9749 179.111 75.4401 179.217C76.2536 179.406 77.0746 179.56 77.9033 179.68H77.909C78.0089 179.694 78.1059 179.709 78.2058 179.723C78.2144 179.723 78.2229 179.726 78.2343 179.726C78.2343 179.729 78.2343 179.729 78.2372 179.726C78.3457 179.74 78.457 179.754 78.5654 179.769C78.5728 179.771 78.5805 179.772 78.5883 179.771C78.691 179.786 78.7966 179.797 78.8994 179.809C79.0107 179.82 79.122 179.831 79.2333 179.843C79.3189 179.851 79.4046 179.86 79.4902 179.869C79.4975 179.871 79.5053 179.872 79.513 179.871C79.5901 179.877 79.6671 179.886 79.7442 179.891H79.7556C79.8213 179.897 79.8898 179.903 79.9554 179.909C80.7517 179.971 81.5509 180 82.3615 180C83.2377 180 84.1082 179.966 84.9673 179.891H84.9759C85.1614 179.874 85.3441 179.857 85.5268 179.84C85.5753 179.834 85.6209 179.831 85.6695 179.826C85.678 179.826 85.6894 179.823 85.698 179.823C85.7123 179.82 85.7265 179.82 85.7437 179.817C85.7514 179.817 85.7591 179.816 85.7665 179.814C85.8293 179.809 85.8921 179.8 85.9577 179.794L86.1718 179.769C86.2431 179.76 86.3145 179.749 86.3859 179.74C86.403 179.737 86.4173 179.737 86.4344 179.734C86.4858 179.729 86.5371 179.72 86.5885 179.711C86.6142 179.709 86.6399 179.706 86.6627 179.703C86.7141 179.694 86.7626 179.689 86.814 179.68H86.8168C88.383 179.454 89.929 179.105 91.4406 178.637C91.5205 178.611 91.6004 178.588 91.6803 178.563C91.6832 178.563 91.686 178.56 91.6889 178.56C91.7117 178.551 91.7374 178.545 91.7603 178.537C91.9743 178.468 92.1855 178.397 92.3967 178.323C92.6879 178.225 92.9761 178.12 93.2644 178.011C93.3415 177.98 93.4185 177.951 93.4956 177.92C93.6526 177.86 93.8067 177.797 93.9608 177.734C94.2234 177.628 94.486 177.517 94.7457 177.402C94.9883 177.294 95.2281 177.185 95.4678 177.071C95.4735 177.068 95.4821 177.068 95.4878 177.062C95.542 177.037 95.5963 177.011 95.6476 176.985H95.6505C96.9649 176.354 98.2325 175.629 99.4437 174.816C99.8319 174.556 100.214 174.287 100.591 174.01C100.894 173.785 101.19 173.556 101.487 173.322C102.952 172.155 104.307 170.858 105.537 169.446V169.444C105.626 169.346 105.709 169.246 105.794 169.146C105.808 169.132 105.82 169.118 105.831 169.106C105.886 169.041 105.937 168.978 105.991 168.915V168.912C106.063 168.829 106.134 168.743 106.202 168.658C106.219 168.638 106.234 168.621 106.248 168.603V168.601C106.305 168.532 106.359 168.463 106.416 168.392C106.445 168.358 106.471 168.323 106.499 168.289V168.286C106.668 168.075 106.83 167.863 106.993 167.646C107.036 167.589 107.079 167.529 107.124 167.469C107.33 167.192 107.53 166.909 107.724 166.626V166.623C107.798 166.517 107.869 166.409 107.943 166.303C108.015 166.194 108.086 166.086 108.157 165.977C108.229 165.863 108.303 165.751 108.374 165.637L108.383 165.62C108.454 165.511 108.526 165.397 108.594 165.286C108.648 165.194 108.703 165.106 108.757 165.017C108.791 164.957 108.828 164.897 108.862 164.834C108.876 164.815 108.888 164.795 108.9 164.774C108.979 164.634 109.059 164.494 109.139 164.354C109.233 164.191 109.325 164.025 109.416 163.86C109.45 163.791 109.488 163.723 109.525 163.654C109.539 163.631 109.55 163.608 109.562 163.585C109.605 163.505 109.647 163.423 109.687 163.34C109.73 163.26 109.773 163.177 109.816 163.094C109.856 163.014 109.899 162.931 109.938 162.848C109.97 162.785 109.998 162.722 110.03 162.659C110.032 162.654 110.035 162.65 110.038 162.645C110.053 162.614 110.067 162.585 110.078 162.557C110.082 162.552 110.085 162.547 110.087 162.542C110.118 162.479 110.147 162.414 110.178 162.351C110.218 162.268 110.255 162.182 110.295 162.099C110.321 162.042 110.349 161.982 110.375 161.922C110.412 161.839 110.452 161.756 110.486 161.671C110.526 161.585 110.564 161.499 110.601 161.411C110.611 161.389 110.621 161.367 110.629 161.345C110.649 161.305 110.663 161.265 110.681 161.225C110.726 161.119 110.772 161.011 110.815 160.905C110.866 160.785 110.915 160.662 110.96 160.542C111.006 160.43 111.049 160.316 111.092 160.202L111.109 160.162C111.774 158.408 112.278 156.597 112.616 154.752V154.749C112.806 153.696 112.942 152.633 113.024 151.566C113.027 151.506 113.032 151.449 113.035 151.392C113.087 150.669 113.109 149.943 113.109 149.214C113.109 148.891 113.104 148.571 113.095 148.251C112.896 141.557 110.512 135.113 106.308 129.904C106.217 129.79 106.125 129.676 106.031 129.562C105.937 129.447 105.84 129.336 105.746 129.224C102.617 125.556 98.6708 122.674 94.2258 120.813C89.7807 118.951 84.961 118.161 80.1551 118.507C75.3492 118.853 70.6917 120.324 66.558 122.803C62.4243 125.281 58.9301 128.698 56.3571 132.776C56.2173 132.999 56.0774 133.225 55.9433 133.451C55.8063 133.679 55.675 133.908 55.5437 134.14C52.958 138.741 51.6032 143.934 51.6106 149.214Z" fill="#F2F2F2"/>
<path d="M81.1394 129.077C86.1958 130.376 91.3774 131.125 96.5942 131.31C97.3831 131.353 98.1739 131.348 98.9621 131.294C100.694 131.148 102.178 130.603 103.831 130.305C104.625 130.162 105.51 130.058 106.31 129.904C106.125 129.674 105.937 129.447 105.745 129.223C104.021 129.369 102.269 129.847 100.524 130.069C97.5573 130.446 94.2333 130.025 91.9842 128.985C90.8931 128.481 90.0573 127.851 88.97 127.345C88.8221 127.269 88.6619 127.219 88.4968 127.2C88.1833 127.19 87.8737 127.271 87.6043 127.431C85.7801 128.353 83.1316 129.103 80.6732 128.691C80.4899 128.834 80.8381 128.998 81.1394 129.077Z" fill="white"/>
<path d="M70.2608 132.322C70.2383 132.318 70.2158 132.314 70.1934 132.31C70.2878 132.252 70.3767 132.185 70.459 132.11L70.2608 132.322Z" fill="white"/>
<path d="M55.5444 134.141C56.5712 134.223 57.6033 134.284 58.6408 134.324C59.4297 134.367 60.2204 134.362 61.0086 134.308C62.7408 134.161 64.2246 133.617 65.8771 133.319C67.3915 133.047 69.2318 132.915 70.1934 132.31C67.7082 131.88 65.1333 132.756 62.5706 133.083C60.4977 133.338 58.3965 133.234 56.3588 132.776C56.0751 133.223 55.8036 133.678 55.5444 134.141Z" fill="white"/>
<path d="M67.9648 176.422C68.2103 176.556 68.4586 176.685 68.7069 176.808C68.7954 176.851 68.8867 176.894 68.9752 176.939C69.0494 176.974 69.1236 177.011 69.1978 177.045C69.2207 177.057 69.2407 177.065 69.2606 177.077C69.3234 177.105 69.3834 177.134 69.4462 177.162C69.5147 177.194 69.5832 177.225 69.6488 177.257C69.7259 177.291 69.8001 177.325 69.8771 177.357C70.1626 177.485 70.4508 177.608 70.7391 177.725C71.7722 178.149 72.8279 178.516 73.9015 178.823C73.95 178.837 74.0014 178.851 74.0528 178.866C74.5123 178.994 74.9747 179.111 75.4399 179.217C76.2534 179.406 77.0744 179.56 77.9031 179.68H77.9088C78.0087 179.694 78.1057 179.709 78.2056 179.723C78.2142 179.723 78.2228 179.726 78.2342 179.726C78.2342 179.729 78.2342 179.729 78.237 179.726C78.3455 179.74 78.4568 179.754 78.5652 179.769C78.5727 179.771 78.5804 179.772 78.5881 179.771C78.6908 179.786 78.7964 179.797 78.8992 179.809C79.0105 179.82 79.1218 179.831 79.2331 179.843C79.3188 179.851 79.4044 179.86 79.49 179.869C79.4973 179.871 79.5051 179.872 79.5128 179.871C79.5899 179.877 79.667 179.886 79.744 179.891H79.7554C79.8211 179.897 79.8896 179.903 79.9552 179.909C80.7516 179.971 81.5507 180 82.3613 180C83.2375 180 84.1081 179.966 84.9672 179.891H84.9757C85.1612 179.874 85.3439 179.857 85.5266 179.84C85.5751 179.834 85.6208 179.831 85.6693 179.826C85.6778 179.826 85.6893 179.823 85.6978 179.823C85.7121 179.82 85.7264 179.82 85.7435 179.817C85.7512 179.817 85.7589 179.816 85.7663 179.814C85.8291 179.809 85.8919 179.8 85.9576 179.794L86.1716 179.769C86.243 179.76 86.3143 179.749 86.3857 179.74C86.4028 179.737 86.4171 179.737 86.4342 179.734C86.4856 179.729 86.537 179.72 86.5883 179.711C86.614 179.709 86.6397 179.706 86.6625 179.703C86.7139 179.694 86.7624 179.689 86.8138 179.68H86.8167C88.3828 179.454 89.9289 179.105 91.4404 178.637C91.5203 178.611 91.6003 178.588 91.6802 178.563C91.3117 176.842 90.5529 175.229 89.4627 173.848C88.3724 172.468 86.9798 171.357 85.3924 170.601C85.7851 170.227 86.0565 169.743 86.1716 169.212C86.2457 168.87 86.2516 168.517 86.1889 168.173C86.1262 167.828 85.9962 167.5 85.8063 167.206C85.4359 166.637 84.8548 166.238 84.1908 166.097L79.9609 165.211C79.28 165.078 78.5742 165.22 77.997 165.605C77.4198 165.991 77.0178 166.589 76.8784 167.269C76.8353 167.478 76.8161 167.69 76.8214 167.903C72.7484 170.618 69.8172 173.433 67.9648 176.422Z" fill="#6C63FF"/>
<path d="M80.4547 163.539C85.3217 163.539 89.2672 159.588 89.2672 154.715C89.2672 149.842 85.3217 145.892 80.4547 145.892C75.5878 145.892 71.6423 149.842 71.6423 154.715C71.6423 159.588 75.5878 163.539 80.4547 163.539Z" fill="#FFB8B8"/>
<path d="M74.9618 162.322C74.022 161.68 73.0624 160.445 72.4217 159.519C71.5728 158.302 70.9886 156.92 70.7072 155.463C70.4257 154.006 70.4531 152.506 70.7878 151.06C70.8945 150.482 71.1568 149.944 71.5464 149.504C71.9614 149.093 72.6393 148.898 73.1459 149.188C73.0077 148.818 72.9468 148.423 72.967 148.027C72.9872 147.632 73.088 147.246 73.2633 146.891C73.6194 146.183 74.1353 145.568 74.7702 145.094C75.9843 144.158 77.4289 143.568 78.9507 143.388C80.4725 143.208 82.0147 143.443 83.4136 144.069C83.964 144.325 83.0599 142.352 83.6361 142.543C84.2084 142.765 84.8448 142.753 85.409 142.511C85.9509 142.238 87.7471 143.861 87.5393 143.29C87.9505 143.477 88.3078 143.765 88.5779 144.128C88.848 144.49 89.022 144.915 89.0839 145.363C89.1458 145.811 89.0934 146.267 88.9317 146.69C88.77 147.112 88.5042 147.486 88.1591 147.778C87.7043 148.162 87.1365 148.384 86.6385 148.71C85.766 149.325 85.1484 150.238 84.9023 151.277C84.6563 152.316 84.7988 153.41 85.303 154.351C84.7791 154.014 84.2042 153.764 83.6006 153.611C83.2978 153.537 82.9817 153.536 82.6786 153.609C82.3756 153.682 82.0943 153.826 81.8582 154.03C81.6609 154.256 81.5119 154.52 81.4203 154.806C81.3286 155.092 81.2963 155.393 81.3253 155.692C81.345 156.291 81.4873 156.881 81.5033 157.48C81.5501 159.237 82.4901 162.578 81.1293 163.512C80.0554 164.249 76.2449 163.2 74.9618 162.322Z" fill="#2F2E41"/>
<path d="M86.5139 110.552C86.3283 110.552 86.1446 110.515 85.9734 110.443C85.7179 110.34 85.4994 110.162 85.3464 109.933C85.1934 109.704 85.1131 109.434 85.1161 109.158V107.762C85.1158 107.469 84.9994 107.188 84.7925 106.981C84.5857 106.773 84.3052 106.657 84.0126 106.657C83.6443 106.656 83.2912 106.509 83.0308 106.249C82.7704 105.988 82.6239 105.635 82.6235 105.266V86.132C82.6239 85.7633 82.7704 85.4098 83.0308 85.1491C83.2912 84.8884 83.6442 84.7417 84.0124 84.7412H147.326C147.694 84.7417 148.047 84.8883 148.307 85.149C148.568 85.4098 148.714 85.7633 148.715 86.132V105.266C148.714 105.635 148.568 105.988 148.307 106.249C148.047 106.509 147.694 106.656 147.326 106.657H91.4251C91.2801 106.656 91.1364 106.685 91.0025 106.74C90.8685 106.796 90.7469 106.877 90.6446 106.98L87.4873 110.141C87.3603 110.271 87.2089 110.374 87.0418 110.445C86.8747 110.515 86.6952 110.552 86.5139 110.552Z" fill="white"/>
<path d="M86.5139 110.838C86.2908 110.838 86.0699 110.793 85.864 110.707C85.5561 110.583 85.2927 110.369 85.1083 110.092C84.924 109.816 84.8272 109.49 84.8307 109.158V107.762C84.8305 107.544 84.7442 107.336 84.5909 107.183C84.4375 107.029 84.2295 106.943 84.0126 106.942C83.5686 106.942 83.143 106.765 82.8291 106.451C82.5152 106.136 82.3386 105.71 82.3381 105.266V86.132C82.3386 85.6875 82.5152 85.2614 82.8291 84.9471C83.1429 84.6328 83.5685 84.456 84.0125 84.4555H147.326C147.77 84.456 148.195 84.6328 148.509 84.9471C148.823 85.2614 149 85.6875 149 86.132V105.266C149 105.71 148.823 106.136 148.509 106.451C148.195 106.765 147.77 106.942 147.326 106.942H91.4251C91.3176 106.942 91.2111 106.963 91.1117 107.004C91.0124 107.045 90.9222 107.106 90.8464 107.182L87.6892 110.343C87.5357 110.5 87.3528 110.624 87.151 110.709C86.9493 110.793 86.7327 110.837 86.5139 110.838ZM84.0125 85.027C83.7199 85.0274 83.4394 85.1439 83.2325 85.3511C83.0256 85.5582 82.9093 85.8391 82.909 86.132V105.266C82.9093 105.559 83.0256 105.84 83.2325 106.047C83.4394 106.254 83.72 106.37 84.0126 106.371C84.3809 106.371 84.7339 106.518 84.9943 106.779C85.2547 107.039 85.4011 107.393 85.4015 107.762V109.158C85.4016 109.377 85.4663 109.59 85.5876 109.772C85.7089 109.954 85.8812 110.095 86.0829 110.179C86.2845 110.262 86.5064 110.284 86.7204 110.242C86.9345 110.199 87.1311 110.094 87.2854 109.939L90.4428 106.778C90.5715 106.649 90.7246 106.546 90.8932 106.476C91.0618 106.406 91.2426 106.37 91.4251 106.371H147.326C147.618 106.37 147.899 106.254 148.106 106.047C148.313 105.84 148.429 105.559 148.429 105.266V86.132C148.429 85.839 148.313 85.5582 148.106 85.351C147.899 85.1438 147.618 85.0273 147.326 85.027L84.0125 85.027Z" fill="#3F3D56"/>
<path d="M141.885 93.4037H90.5446C90.3485 93.4037 90.1604 93.3257 90.0218 93.1868C89.8831 93.048 89.8052 92.8597 89.8052 92.6633C89.8052 92.4669 89.8831 92.2786 90.0218 92.1398C90.1604 92.0009 90.3485 91.9229 90.5446 91.9229H141.885C142.081 91.9229 142.269 92.0009 142.408 92.1398C142.547 92.2786 142.624 92.4669 142.624 92.6633C142.624 92.8597 142.547 93.048 142.408 93.1868C142.269 93.3257 142.081 93.4037 141.885 93.4037Z" fill="#6C63FF"/>
<path d="M141.791 96.5491H90.5446C90.3485 96.5491 90.1604 96.4711 90.0218 96.3322C89.8831 96.1934 89.8052 96.0051 89.8052 95.8087C89.8052 95.6123 89.8831 95.424 90.0218 95.2852C90.1604 95.1463 90.3485 95.0683 90.5446 95.0683H141.791C141.987 95.0683 142.175 95.1463 142.314 95.2852C142.452 95.424 142.53 95.6123 142.53 95.8087C142.53 96.0051 142.452 96.1934 142.314 96.3322C142.175 96.4711 141.987 96.5491 141.791 96.5491Z" fill="#E6E6E6"/>
<path d="M141.74 99.6944H90.5446C90.3485 99.6944 90.1604 99.6164 90.0218 99.4775C89.8831 99.3387 89.8052 99.1504 89.8052 98.954C89.8052 98.7576 89.8831 98.5693 90.0218 98.4305C90.1604 98.2916 90.3485 98.2136 90.5446 98.2136H141.74C141.936 98.2136 142.124 98.2916 142.263 98.4305C142.401 98.5693 142.479 98.7576 142.479 98.954C142.479 99.1504 142.401 99.3387 142.263 99.4775C142.124 99.6164 141.936 99.6944 141.74 99.6944Z" fill="#E6E6E6"/>
<path d="M222.735 81.772C222.735 82.4664 222.713 83.1609 222.664 83.8496C222.613 84.6726 222.524 85.4899 222.404 86.3015C222.001 89.0342 221.231 91.6998 220.115 94.2259C220.058 94.3516 220.001 94.4774 219.944 94.6031L219.858 94.7917C219.83 94.8546 219.798 94.9175 219.77 94.9775C219.73 95.0604 219.693 95.1404 219.653 95.2204C219.604 95.3204 219.556 95.4204 219.504 95.5204C219.499 95.5319 219.493 95.5462 219.485 95.5605C219.442 95.6462 219.402 95.7291 219.356 95.8148C219.348 95.8335 219.338 95.8516 219.328 95.8691C219.279 95.9662 219.228 96.0663 219.176 96.1634C219.119 96.2663 219.065 96.372 219.008 96.4749C218.871 96.7293 218.728 96.9807 218.583 97.2322C218.54 97.3065 218.497 97.3808 218.451 97.4551C218.411 97.5237 218.371 97.5923 218.329 97.6609C218.3 97.7066 218.271 97.7552 218.243 97.8009C218.197 97.8781 218.152 97.9524 218.103 98.0295C217.997 98.1981 217.889 98.3667 217.783 98.5353H217.781C217.732 98.6125 217.681 98.6896 217.629 98.7639V98.7668C217.478 98.9954 217.321 99.224 217.164 99.4498C217.164 99.4498 217.163 99.4498 217.163 99.45C217.163 99.4501 217.162 99.4503 217.162 99.4506C217.162 99.4509 217.162 99.4512 217.161 99.4515C217.161 99.4519 217.161 99.4523 217.161 99.4526C217.036 99.6355 216.904 99.8127 216.776 99.9899V99.9927C216.69 100.104 216.608 100.219 216.522 100.33C216.453 100.421 216.382 100.516 216.311 100.607C216.296 100.627 216.279 100.644 216.265 100.664V100.667C216.245 100.693 216.225 100.716 216.205 100.741C215.903 101.13 215.59 101.51 215.269 101.882L215.218 101.942C215.2 101.962 215.18 101.982 215.163 102.005C215.135 102.036 215.109 102.067 215.081 102.099C215.055 102.13 215.026 102.162 214.998 102.193C213.321 104.084 211.421 105.762 209.338 107.191C209.061 107.383 208.779 107.569 208.496 107.749C208.425 107.794 208.353 107.84 208.282 107.883C208.262 107.897 208.239 107.911 208.219 107.926C208.179 107.949 208.142 107.971 208.102 107.997C208.065 108.02 208.028 108.043 207.988 108.066C207.837 108.16 207.683 108.252 207.528 108.343C207.491 108.366 207.451 108.389 207.411 108.412C207.374 108.432 207.334 108.454 207.294 108.477C207.294 108.48 207.294 108.48 207.291 108.48H207.289V108.483H207.286C207.095 108.594 206.9 108.703 206.704 108.809C206.598 108.866 206.489 108.926 206.381 108.98C206.136 109.115 205.887 109.243 205.639 109.366C205.55 109.409 205.459 109.452 205.371 109.497C205.296 109.532 205.222 109.569 205.148 109.603C205.125 109.615 205.105 109.623 205.085 109.635C205.022 109.663 204.962 109.692 204.9 109.72C204.831 109.752 204.763 109.783 204.697 109.815C204.62 109.849 204.546 109.883 204.469 109.915C204.183 110.043 203.895 110.166 203.607 110.283C202.574 110.707 201.518 111.074 200.444 111.381C200.396 111.395 200.344 111.409 200.293 111.424C199.834 111.552 199.371 111.669 198.906 111.775C198.092 111.964 197.271 112.118 196.443 112.238H196.437C196.337 112.252 196.24 112.267 196.14 112.281C196.132 112.281 196.123 112.284 196.112 112.284C196.112 112.287 196.112 112.287 196.109 112.284C196 112.298 195.889 112.312 195.781 112.327C195.773 112.329 195.765 112.33 195.758 112.329C195.655 112.344 195.549 112.355 195.447 112.367C195.335 112.378 195.224 112.389 195.113 112.401C195.027 112.409 194.941 112.418 194.856 112.427C194.849 112.429 194.841 112.43 194.833 112.429C194.756 112.435 194.679 112.444 194.602 112.449H194.59C194.525 112.455 194.456 112.461 194.391 112.467C193.594 112.53 192.795 112.558 191.985 112.558C191.108 112.558 190.238 112.524 189.379 112.449H189.37C189.185 112.432 189.002 112.415 188.819 112.398C188.771 112.392 188.725 112.389 188.677 112.384C188.668 112.384 188.657 112.381 188.648 112.381C188.634 112.378 188.619 112.378 188.602 112.375C188.595 112.375 188.587 112.375 188.58 112.372C188.517 112.367 188.454 112.358 188.388 112.352L188.174 112.327C188.103 112.318 188.032 112.307 187.96 112.298C187.943 112.295 187.929 112.295 187.912 112.292C187.86 112.287 187.809 112.278 187.758 112.269C187.732 112.267 187.706 112.264 187.683 112.261C187.632 112.252 187.583 112.247 187.532 112.238H187.529C185.963 112.012 184.417 111.664 182.905 111.195C182.826 111.169 182.746 111.146 182.666 111.121C182.663 111.121 182.66 111.118 182.657 111.118C182.634 111.109 182.609 111.104 182.586 111.095C182.372 111.026 182.161 110.955 181.949 110.881C181.658 110.783 181.37 110.678 181.082 110.569C181.005 110.538 180.928 110.509 180.85 110.478C180.693 110.418 180.539 110.355 180.385 110.292C180.123 110.186 179.86 110.075 179.6 109.96C179.358 109.852 179.118 109.743 178.878 109.629C178.872 109.626 178.864 109.626 178.858 109.62C178.804 109.595 178.75 109.569 178.698 109.543H178.696C177.381 108.912 176.114 108.187 174.902 107.374C174.514 107.114 174.132 106.846 173.755 106.568C173.452 106.343 173.156 106.114 172.859 105.88C171.394 104.713 170.039 103.416 168.809 102.005V102.002C168.72 101.905 168.637 101.805 168.552 101.705C168.538 101.69 168.526 101.676 168.515 101.665C168.46 101.599 168.409 101.536 168.355 101.473V101.47C168.284 101.387 168.212 101.302 168.144 101.216C168.127 101.196 168.112 101.179 168.098 101.162V101.159C168.041 101.09 167.987 101.022 167.93 100.95C167.901 100.916 167.875 100.882 167.847 100.847V100.844C167.678 100.633 167.516 100.421 167.353 100.204C167.31 100.147 167.267 100.087 167.222 100.027C167.016 99.7499 166.816 99.4669 166.622 99.184V99.1812C166.548 99.0754 166.477 98.9668 166.403 98.8611C166.331 98.7525 166.26 98.6439 166.189 98.5353C166.117 98.421 166.043 98.3096 165.972 98.1953L165.963 98.1781C165.892 98.0695 165.82 97.9552 165.752 97.8438C165.698 97.7523 165.643 97.6637 165.589 97.5751C165.555 97.5151 165.518 97.4551 165.484 97.3923C165.47 97.3729 165.458 97.3529 165.446 97.3322C165.367 97.1922 165.287 97.0522 165.207 96.9122C165.113 96.7493 165.021 96.5835 164.93 96.4178C164.896 96.3492 164.859 96.2806 164.821 96.212C164.807 96.1892 164.796 96.1663 164.784 96.1434C164.741 96.0634 164.699 95.9806 164.659 95.8977C164.616 95.8177 164.573 95.7348 164.53 95.6519C164.49 95.5719 164.448 95.489 164.408 95.4062C164.376 95.3433 164.348 95.2804 164.316 95.2175C164.314 95.2124 164.311 95.2076 164.308 95.2033C164.293 95.1718 164.279 95.1432 164.268 95.1147C164.264 95.1103 164.261 95.1055 164.259 95.1004C164.228 95.0375 164.199 94.9718 164.168 94.9089C164.128 94.826 164.091 94.7403 164.051 94.6574C164.025 94.6003 163.997 94.5403 163.971 94.4803C163.934 94.3974 163.894 94.3145 163.86 94.2288C163.82 94.143 163.782 94.0573 163.745 93.9687C163.735 93.9474 163.725 93.9254 163.717 93.903C163.697 93.863 163.683 93.823 163.665 93.783C163.62 93.6772 163.574 93.5687 163.531 93.4629C163.48 93.3429 163.431 93.22 163.386 93.1C163.34 92.9885 163.297 92.8742 163.254 92.7599L163.237 92.7199C162.572 90.9661 162.068 89.1555 161.73 87.3103V87.3074C161.54 86.2539 161.404 85.1914 161.322 84.1239C161.319 84.0639 161.314 84.0068 161.311 83.9496C161.259 83.2266 161.237 82.5007 161.237 81.772C161.237 81.4491 161.242 81.1291 161.251 80.809C161.45 74.1152 163.834 67.6711 168.038 62.4625C168.129 62.3482 168.221 62.2339 168.315 62.1196C168.409 62.0053 168.506 61.8938 168.6 61.7824C171.729 58.1137 175.675 55.2324 180.12 53.3708C184.565 51.5093 189.385 50.7195 194.191 51.0651C198.997 51.4108 203.654 52.8822 207.788 55.3608C211.922 57.8393 215.416 61.2557 217.989 65.3345C218.129 65.5574 218.269 65.7832 218.403 66.0089C218.54 66.2376 218.671 66.4662 218.802 66.6976C221.388 71.2995 222.743 76.4919 222.735 81.772Z" fill="#F2F2F2"/>
<path d="M193.207 61.6348C188.15 62.9339 182.969 63.6827 177.752 63.8682C176.963 63.9113 176.172 63.9059 175.384 63.8521C173.652 63.7062 172.168 63.1611 170.516 62.8632C169.721 62.7204 168.836 62.616 168.037 62.4617C168.221 62.2321 168.41 62.0054 168.601 61.7815C170.326 61.9274 172.077 62.4049 173.822 62.6268C176.789 63.0045 180.113 62.583 182.362 61.5435C183.453 61.0391 184.289 60.4095 185.376 59.9028C185.524 59.8268 185.684 59.7777 185.849 59.7577C186.163 59.7483 186.473 59.8287 186.742 59.9896C188.566 60.9116 191.215 61.6609 193.673 61.2487C193.856 61.3922 193.508 61.5558 193.207 61.6348Z" fill="white"/>
<path d="M204.085 64.8797C204.108 64.8756 204.13 64.8724 204.153 64.8685C204.058 64.8099 203.969 64.7428 203.887 64.6681L204.085 64.8797Z" fill="white"/>
<path d="M218.802 66.6989C217.775 66.7811 216.743 66.8422 215.705 66.8824C214.917 66.925 214.126 66.9197 213.338 66.8663C211.605 66.7196 210.122 66.1753 208.469 65.8774C206.955 65.6049 205.114 65.4736 204.153 64.8686C206.638 64.4379 209.213 65.3147 211.776 65.641C213.848 65.8962 215.95 65.7923 217.987 65.3339C218.271 65.7807 218.543 66.2357 218.802 66.6989Z" fill="white"/>
<path d="M188.518 95.2437C193.619 95.2437 197.754 91.0113 197.754 85.7905C197.754 80.5696 193.619 76.3373 188.518 76.3373C183.417 76.3373 179.282 80.5696 179.282 85.7905C179.282 91.0113 183.417 95.2437 188.518 95.2437Z" fill="#FFB6B6"/>
<path d="M206.381 108.98C206.135 109.115 205.887 109.243 205.639 109.366C205.55 109.409 205.459 109.452 205.37 109.498C205.296 109.532 205.222 109.569 205.148 109.603C205.125 109.615 205.105 109.623 205.085 109.635C205.022 109.663 204.962 109.692 204.9 109.72C204.831 109.752 204.763 109.783 204.697 109.815C204.62 109.849 204.546 109.883 204.469 109.915C204.183 110.043 203.895 110.166 203.607 110.283C202.574 110.707 201.518 111.074 200.444 111.381C200.396 111.395 200.344 111.409 200.293 111.424C199.833 111.552 199.371 111.669 198.906 111.775C198.092 111.964 197.271 112.118 196.443 112.238H196.437C196.337 112.252 196.24 112.267 196.14 112.281C196.132 112.281 196.123 112.284 196.112 112.284C196.112 112.287 196.112 112.287 196.109 112.284C196 112.298 195.889 112.312 195.78 112.327C195.773 112.329 195.765 112.33 195.758 112.33C195.655 112.344 195.549 112.355 195.446 112.367C195.335 112.378 195.224 112.39 195.113 112.401C195.027 112.41 194.941 112.418 194.856 112.427C194.848 112.429 194.841 112.43 194.833 112.43C194.756 112.435 194.679 112.444 194.602 112.45H194.59C194.525 112.455 194.456 112.461 194.39 112.467C193.594 112.53 192.795 112.558 191.984 112.558C191.108 112.558 190.238 112.524 189.379 112.45H189.37C189.184 112.432 189.002 112.415 188.819 112.398C188.771 112.392 188.725 112.39 188.676 112.384C188.668 112.384 188.656 112.381 188.648 112.381C188.634 112.378 188.619 112.378 188.602 112.375C188.594 112.376 188.587 112.375 188.579 112.372C188.517 112.367 188.454 112.358 188.388 112.352L188.174 112.327C188.103 112.318 188.031 112.307 187.96 112.298C187.943 112.295 187.929 112.295 187.911 112.292C187.86 112.287 187.809 112.278 187.757 112.27C187.732 112.267 187.706 112.264 187.683 112.261C187.632 112.252 187.583 112.247 187.532 112.238H187.529C185.963 112.012 184.417 111.664 182.905 111.195C182.825 111.169 182.745 111.146 182.666 111.121C183.034 109.4 183.793 107.787 184.883 106.406C185.973 105.026 187.366 103.915 188.953 103.159C188.561 102.785 188.289 102.301 188.174 101.77C188.1 101.428 188.094 101.075 188.157 100.731C188.219 100.386 188.35 100.058 188.539 99.7642C188.91 99.1948 189.491 98.7959 190.155 98.6554L194.385 97.7695C195.066 97.6366 195.771 97.7782 196.349 98.1635C196.926 98.5488 197.328 99.1466 197.467 99.8271C197.51 100.036 197.53 100.249 197.524 100.461C201.597 103.176 204.528 105.991 206.381 108.98Z" fill="#6C63FF"/>
<path d="M213.232 81.6907C211.662 79.8577 210.915 77.4258 209.66 75.3443C208.405 73.2628 206.221 71.3999 203.914 71.8843C202.324 72.2182 201.095 73.6234 200.472 75.19C199.85 76.7566 199.734 78.4843 199.625 80.1768C199.663 76.6986 197.374 73.3267 194.222 72.2169C191.069 71.1071 187.296 72.3451 185.315 75.1393C184.451 74.3371 183.322 73.8803 182.144 73.8555C180.965 73.8307 179.819 74.2397 178.921 75.005C177.15 76.5906 176.757 79.6087 178.061 81.6312C179.364 83.6538 182.186 84.4072 184.257 83.2855L184.989 83.9598C184.577 85.403 185.376 87.1078 186.719 87.651C187.809 88.0916 189.347 88.0183 189.755 89.1629C190.039 89.9627 189.507 90.8164 188.941 91.431C188.374 92.0456 187.702 92.6803 187.634 93.5308C187.531 94.814 188.855 95.7129 190.059 95.9837C192.962 96.6365 196.184 95.2905 197.857 92.7253C197.889 92.6758 197.924 92.6263 197.962 92.5767C198.901 91.3747 199.585 89.9936 199.973 88.5179C200.36 87.0423 200.444 85.5029 200.217 83.994C200.123 83.4011 200.218 82.9601 200.626 82.8197C202.391 82.2128 207.335 83.4866 208.831 84.6378C210.327 85.7889 211.525 87.3124 212.966 88.5379C214.408 89.7634 216.244 90.7087 218.074 90.375C219.54 90.1077 220.787 89.0423 221.625 87.7573C222.464 86.4723 222.947 84.9744 223.379 83.4858C220.138 85.3604 215.703 84.5757 213.232 81.6907Z" fill="#2F2E41"/>
<path d="M23.6399 62.6254C23.6399 63.3198 23.6628 64.0142 23.7113 64.703C23.7627 65.526 23.8511 66.3433 23.971 67.1549C24.3739 69.8876 25.1439 72.5532 26.26 75.0793C26.3171 75.205 26.3742 75.3308 26.4313 75.4565L26.5169 75.6451C26.5455 75.708 26.5769 75.7709 26.6054 75.8309C26.6454 75.9137 26.6825 75.9938 26.7224 76.0738C26.7709 76.1738 26.8195 76.2738 26.8708 76.3738C26.8765 76.3853 26.8823 76.3996 26.8908 76.4138C26.9336 76.4996 26.9736 76.5824 27.0193 76.6682C27.0277 76.6868 27.0372 76.705 27.0478 76.7225C27.0963 76.8196 27.1477 76.9197 27.1991 77.0168C27.2562 77.1197 27.3104 77.2254 27.3675 77.3283C27.5045 77.5826 27.6472 77.8341 27.7927 78.0856C27.8356 78.1599 27.8784 78.2342 27.924 78.3085C27.964 78.3771 28.004 78.4457 28.0468 78.5143C28.0753 78.56 28.1038 78.6086 28.1324 78.6543C28.1781 78.7314 28.2237 78.8057 28.2722 78.8829C28.3778 79.0515 28.4863 79.2201 28.5919 79.3887H28.5948C28.6433 79.4659 28.6947 79.543 28.746 79.6173V79.6202C28.8973 79.8488 29.0543 80.0774 29.2113 80.3032C29.2116 80.3032 29.212 80.3032 29.2124 80.3034C29.2127 80.3035 29.213 80.3037 29.2133 80.304C29.2136 80.3043 29.2138 80.3046 29.2139 80.3049C29.2141 80.3053 29.2141 80.3056 29.2141 80.306C29.3397 80.4889 29.471 80.6661 29.5994 80.8433V80.8461C29.685 80.9576 29.7678 81.0719 29.8534 81.1833C29.9219 81.2748 29.9933 81.3691 30.0647 81.4605C30.0789 81.4805 30.0961 81.4977 30.1103 81.5177V81.5205C30.1303 81.5463 30.1503 81.5691 30.1703 81.5949C30.4728 81.9835 30.7849 82.3636 31.1064 82.7351L31.1578 82.7951C31.1749 82.8151 31.1949 82.8351 31.212 82.858C31.2406 82.8894 31.2663 82.9208 31.2948 82.9523C31.3205 82.9837 31.349 83.0151 31.3776 83.0466C33.0539 84.9372 34.9545 86.6156 37.0374 88.0447C37.3143 88.2362 37.5968 88.4219 37.8794 88.6019C37.9507 88.6477 38.0221 88.6934 38.0934 88.7363C38.1134 88.7505 38.1363 88.7648 38.1562 88.7791C38.1962 88.802 38.2333 88.8249 38.2733 88.8506C38.3104 88.8734 38.3475 88.8963 38.3874 88.9192C38.5387 89.0135 38.6928 89.1049 38.8469 89.1964C38.884 89.2192 38.924 89.2421 38.964 89.265C39.0011 89.2849 39.041 89.3078 39.081 89.3307C39.081 89.3335 39.081 89.3335 39.0838 89.3335H39.0867V89.3364H39.0895C39.2808 89.4478 39.4749 89.5564 39.6718 89.6622C39.7774 89.7193 39.8859 89.7793 39.9943 89.8336C40.2398 89.9679 40.4881 90.0965 40.7364 90.2194C40.8249 90.2623 40.9162 90.3051 41.0047 90.3509C41.0789 90.3852 41.1531 90.4223 41.2273 90.4566C41.2502 90.468 41.2701 90.4766 41.2901 90.488C41.3529 90.5166 41.4128 90.5452 41.4756 90.5738C41.5441 90.6052 41.6126 90.6366 41.6783 90.6681C41.7553 90.7024 41.8296 90.7367 41.9066 90.7681C42.192 90.8967 42.4803 91.0196 42.7686 91.1367C43.8017 91.5607 44.8574 91.9271 45.931 92.2341C45.9795 92.2484 46.0309 92.2627 46.0823 92.277C46.5418 92.4056 47.0042 92.5227 47.4694 92.6285C48.2828 92.8171 49.1039 92.9714 49.9326 93.0914H49.9383C50.0382 93.1057 50.1352 93.12 50.2351 93.1343C50.2437 93.1343 50.2522 93.1371 50.2636 93.1371C50.2636 93.14 50.2636 93.14 50.2665 93.1371C50.375 93.1514 50.4863 93.1657 50.5947 93.18C50.6021 93.1822 50.6098 93.1832 50.6176 93.1829C50.7203 93.1971 50.8259 93.2086 50.9287 93.22C51.04 93.2314 51.1513 93.2429 51.2626 93.2543C51.3482 93.2629 51.4339 93.2714 51.5195 93.28C51.5268 93.2826 51.5346 93.2835 51.5423 93.2829C51.6194 93.2886 51.6964 93.2972 51.7735 93.3029H51.7849C51.8506 93.3086 51.9191 93.3143 51.9847 93.32C52.781 93.3829 53.5802 93.4115 54.3908 93.4115C55.267 93.4115 56.1375 93.3772 56.9966 93.3029H57.0052C57.1907 93.2857 57.3734 93.2686 57.556 93.2514C57.6046 93.2457 57.6502 93.2429 57.6988 93.2372C57.7073 93.2372 57.7187 93.2343 57.7273 93.2343C57.7416 93.2314 57.7558 93.2314 57.773 93.2286C57.7807 93.2289 57.7884 93.2279 57.7958 93.2257C57.8586 93.22 57.9214 93.2114 57.987 93.2057L58.2011 93.18C58.2724 93.1714 58.3438 93.16 58.4151 93.1514C58.4323 93.1486 58.4465 93.1486 58.4637 93.1457C58.515 93.14 58.5664 93.1314 58.6178 93.1229C58.6435 93.12 58.6692 93.1171 58.692 93.1143C58.7434 93.1057 58.7919 93.1 58.8433 93.0914H58.8461C60.4123 92.8657 61.9583 92.5169 63.4699 92.0484C63.5498 92.0226 63.6297 91.9998 63.7096 91.9741C63.7125 91.9741 63.7153 91.9712 63.7182 91.9712C63.741 91.9626 63.7667 91.9569 63.7896 91.9483C64.0036 91.8798 64.2148 91.8083 64.426 91.734C64.7172 91.6369 65.0054 91.5311 65.2937 91.4225C65.3708 91.3911 65.4478 91.3625 65.5249 91.3311C65.6819 91.2711 65.836 91.2082 65.9901 91.1453C66.2527 91.0396 66.5153 90.9281 66.775 90.8138C67.0176 90.7052 67.2574 90.5966 67.4971 90.4823C67.5028 90.4795 67.5114 90.4795 67.5171 90.4738C67.5713 90.448 67.6256 90.4223 67.6769 90.3966H67.6798C68.9942 89.765 70.2618 89.0402 71.473 88.2276C71.8611 87.9676 72.2436 87.6989 72.6204 87.4217C72.9229 87.196 73.2197 86.9674 73.5166 86.733C74.981 85.5668 76.3366 84.2698 77.5666 82.858V82.8551C77.6551 82.758 77.7379 82.6579 77.8235 82.5579C77.8378 82.5436 77.8492 82.5293 77.8606 82.5179C77.9148 82.4522 77.9662 82.3893 78.0204 82.3264V82.3236C78.0918 82.2407 78.1632 82.155 78.2317 82.0692C78.2488 82.0493 78.2631 82.0321 78.2773 82.015V82.0121C78.3344 81.9435 78.3886 81.8749 78.4457 81.8035C78.4743 81.7692 78.4999 81.7349 78.5285 81.7006V81.6977C78.6969 81.4863 78.8596 81.2748 79.0223 81.0576C79.0651 81.0005 79.1079 80.9405 79.1536 80.8804C79.3591 80.6032 79.5588 80.3203 79.7529 80.0374V80.0346C79.8271 79.9288 79.8985 79.8202 79.9727 79.7145C80.0441 79.6059 80.1154 79.4973 80.1868 79.3887C80.2581 79.2744 80.3323 79.163 80.4037 79.0487L80.4122 79.0315C80.4836 78.9229 80.5549 78.8086 80.6235 78.6971C80.6777 78.6057 80.7319 78.5171 80.7861 78.4285C80.8204 78.3685 80.8575 78.3085 80.8917 78.2457C80.9051 78.2263 80.9175 78.2063 80.9288 78.1856C81.0088 78.0456 81.0887 77.9056 81.1686 77.7656C81.2628 77.6027 81.3541 77.4369 81.4455 77.2712C81.4797 77.2026 81.5168 77.134 81.5539 77.0654C81.5682 77.0426 81.5796 77.0197 81.591 76.9968C81.6338 76.9168 81.6766 76.834 81.7166 76.7511C81.7594 76.6711 81.8022 76.5882 81.845 76.5053C81.885 76.4253 81.9278 76.3424 81.9678 76.2595C81.9992 76.1967 82.0277 76.1338 82.0591 76.0709C82.0613 76.0658 82.0642 76.061 82.0677 76.0566C82.0819 76.0252 82.0962 75.9966 82.1076 75.9681C82.1111 75.9637 82.114 75.9589 82.1162 75.9538C82.1476 75.8909 82.1761 75.8252 82.2075 75.7623C82.2475 75.6794 82.2846 75.5937 82.3245 75.5108C82.3502 75.4537 82.3788 75.3937 82.4045 75.3336C82.4416 75.2508 82.4815 75.1679 82.5158 75.0822C82.5557 74.9964 82.5928 74.9107 82.6299 74.8221C82.6406 74.8007 82.6502 74.7788 82.6585 74.7564C82.6785 74.7164 82.6927 74.6764 82.7099 74.6364C82.7555 74.5306 82.8012 74.422 82.844 74.3163C82.8954 74.1963 82.9439 74.0734 82.9896 73.9534C83.0352 73.8419 83.078 73.7276 83.1208 73.6133L83.138 73.5733C83.803 71.8195 84.3074 70.0089 84.645 68.1637V68.1608C84.8354 67.1073 84.9716 66.0448 85.0531 64.9773C85.056 64.9173 85.0617 64.8601 85.0645 64.803C85.1159 64.08 85.1388 63.3541 85.1388 62.6254C85.1388 62.3025 85.133 61.9824 85.1245 61.6624C84.9252 54.9686 82.5413 48.5245 78.3373 43.3159C78.2459 43.2016 78.1546 43.0873 78.0604 42.973C77.9662 42.8587 77.8692 42.7472 77.775 42.6358C74.6462 38.9671 70.7001 36.0858 66.2551 34.2242C61.81 32.3626 56.9903 31.5728 52.1844 31.9185C47.3785 32.2641 42.721 33.7356 38.5873 36.2141C34.4536 38.6927 30.9594 42.1091 28.3864 46.1879C28.2466 46.4108 28.1067 46.6366 27.9726 46.8623C27.8356 47.0909 27.7043 47.3196 27.573 47.551C24.9873 52.1528 23.6325 57.3453 23.6399 62.6254Z" fill="#F2F2F2"/>
<path d="M53.1685 42.4882C58.2248 43.7872 63.4064 44.536 68.6233 44.7216C69.4122 44.7646 70.203 44.7592 70.9912 44.7054C72.7234 44.5596 74.2071 44.0145 75.8596 43.7166C76.654 43.5738 77.5389 43.4694 78.3386 43.315C78.1538 43.0855 77.9657 42.8587 77.7743 42.6348C76.0497 42.7807 74.2984 43.2582 72.5531 43.4801C69.5864 43.8578 66.2623 43.4363 64.0133 42.3968C62.9221 41.8924 62.0863 41.2628 60.999 40.7561C60.8511 40.6801 60.6909 40.631 60.5259 40.611C60.2124 40.6016 59.9027 40.6821 59.6333 40.8429C57.8091 41.765 55.1606 42.5143 52.7023 42.102C52.519 42.2456 52.8671 42.4091 53.1685 42.4882Z" fill="white"/>
<path d="M42.2898 45.7331C42.2674 45.729 42.2449 45.7258 42.2224 45.7219C42.3169 45.6633 42.4058 45.5962 42.4881 45.5215L42.2898 45.7331Z" fill="white"/>
<path d="M27.5735 47.5522C28.6002 47.6344 29.6323 47.6956 30.6698 47.7357C31.4587 47.7784 32.2495 47.773 33.0377 47.7196C34.7699 47.573 36.2537 47.0286 37.9061 46.7307C39.4205 46.4582 41.2608 46.3269 42.2224 45.7219C39.7372 45.2912 37.1623 46.168 34.5997 46.4943C32.5268 46.7495 30.4255 46.6456 28.3878 46.1872C28.1041 46.634 27.8327 47.089 27.5735 47.5522Z" fill="white"/>
<path d="M39.9941 89.8336C40.2396 89.968 40.4879 90.0966 40.7362 90.2194C40.8247 90.2623 40.916 90.3052 41.0045 90.3509C41.0787 90.3852 41.1529 90.4223 41.2271 90.4566C41.25 90.4681 41.27 90.4766 41.2899 90.4881C41.3527 90.5166 41.4127 90.5452 41.4755 90.5738C41.544 90.6052 41.6125 90.6367 41.6781 90.6681C41.7552 90.7024 41.8294 90.7367 41.9064 90.7681C42.1919 90.8967 42.4801 91.0196 42.7684 91.1368C43.8015 91.5608 44.8572 91.9271 45.9308 92.2341C45.9793 92.2484 46.0307 92.2627 46.0821 92.277C46.5416 92.4056 47.004 92.5227 47.4692 92.6285C48.2827 92.8171 49.1037 92.9714 49.9324 93.0914H49.9381C50.038 93.1057 50.135 93.12 50.2349 93.1343C50.2435 93.1343 50.2521 93.1372 50.2635 93.1372C50.2635 93.14 50.2635 93.14 50.2663 93.1372C50.3748 93.1514 50.4861 93.1657 50.5945 93.18C50.6019 93.1822 50.6097 93.1832 50.6174 93.1829C50.7201 93.1972 50.8257 93.2086 50.9285 93.22C51.0398 93.2315 51.1511 93.2429 51.2624 93.2543C51.3481 93.2629 51.4337 93.2715 51.5193 93.28C51.5266 93.2826 51.5344 93.2836 51.5421 93.2829C51.6192 93.2886 51.6963 93.2972 51.7733 93.3029H51.7847C51.8504 93.3086 51.9189 93.3143 51.9845 93.3201C52.7808 93.3829 53.58 93.4115 54.3906 93.4115C55.2668 93.4115 56.1374 93.3772 56.9965 93.3029H57.005C57.1905 93.2858 57.3732 93.2686 57.5559 93.2515C57.6044 93.2457 57.6501 93.2429 57.6986 93.2372C57.7071 93.2372 57.7186 93.2343 57.7271 93.2343C57.7414 93.2315 57.7557 93.2315 57.7728 93.2286C57.7805 93.2289 57.7882 93.2279 57.7956 93.2257C57.8584 93.22 57.9212 93.2115 57.9869 93.2057L58.2009 93.18C58.2723 93.1714 58.3436 93.16 58.415 93.1514C58.4321 93.1486 58.4464 93.1486 58.4635 93.1457C58.5149 93.14 58.5662 93.1314 58.6176 93.1229C58.6433 93.12 58.669 93.1172 58.6918 93.1143C58.7432 93.1057 58.7917 93.1 58.8431 93.0914H58.846C60.4121 92.8657 61.9582 92.5169 63.4697 92.0484C63.5496 92.0227 63.6295 91.9998 63.7095 91.9741C63.3409 90.2533 62.5822 88.6403 61.492 87.2599C60.4017 85.8794 59.0091 84.7683 57.4217 84.0125C57.8144 83.638 58.0858 83.1542 58.2009 82.6236C58.275 82.2817 58.2809 81.9284 58.2182 81.5841C58.1555 81.2398 58.0255 80.9114 57.8356 80.6176C57.4652 80.0481 56.8841 79.6493 56.2201 79.5088L51.9902 78.6229C51.3093 78.49 50.6035 78.6315 50.0263 79.0168C49.4491 79.4021 49.0471 80 48.9077 80.6804C48.8646 80.889 48.8454 81.1019 48.8506 81.3148C44.7777 84.0296 41.8465 86.8445 39.9941 89.8336Z" fill="#6C63FF"/>
<path d="M56.7278 75.7641C62.414 75.7641 67.0237 71.1488 67.0237 65.4554C67.0237 59.7621 62.414 55.1468 56.7278 55.1468C51.0415 55.1468 46.4319 59.7621 46.4319 65.4554C46.4319 71.1488 51.0415 75.7641 56.7278 75.7641Z" fill="#9E616A"/>
<path d="M55.2646 75.2131C52.6871 75.9101 49.8454 74.9834 47.8338 73.2256C45.8223 71.4678 44.564 68.9771 43.839 66.4043C43.308 64.52 43.0562 62.4284 43.8941 60.6595C44.7321 58.8905 46.9872 57.6971 48.7271 58.5906C47.6538 57.3386 48.19 55.2678 49.4435 54.1967C50.6971 53.1256 52.4184 52.8185 54.0578 52.6507C56.437 52.4071 58.8946 52.3798 61.1586 53.1515C63.4226 53.9233 65.4797 55.6105 66.1883 57.8976C66.9119 58.235 67.7269 58.3225 68.5056 58.1465C69.2843 57.9705 69.9827 57.5408 70.4914 56.9249C70.6226 57.6323 70.5172 58.3633 70.1917 59.0047C69.8661 59.6462 69.3385 60.1623 68.6905 60.4733L72.1594 59.3473C72.7559 60.6116 71.7106 62.1764 70.3738 62.5813C69.0371 62.9862 67.5941 62.5437 66.3255 61.9587C65.057 61.3738 63.8277 60.6342 62.4498 60.4061C61.0719 60.178 59.4534 60.6213 58.816 61.8655C58.4822 62.5172 58.4648 63.2804 58.271 63.9866C58.0772 64.6928 57.5862 65.425 56.857 65.4828C56.3963 65.5194 55.9452 65.2737 55.4858 65.3239C55.2039 65.3795 54.9442 65.5162 54.7387 65.7172C54.5331 65.9183 54.3906 66.175 54.3286 66.4559C54.2142 67.0197 54.2128 67.6006 54.3245 68.1649L55.2056 74.9085L55.2646 75.2131Z" fill="#2F2E41"/>
</g>
<defs>
<clipPath id="clip0_592_305">
<rect width="231" height="180" fill="white"/>
</clipPath>
</defs>
</svg>
