<svg width="24" height="24" viewBox="0 0 24 24" fill="none" xmlns="http://www.w3.org/2000/svg">
<path d="M11.9998 0.484619C8.87483 0.484619 8.48188 0.499011 7.25404 0.553711C6.0262 0.611291 5.18988 0.804162 4.45721 1.08917C3.68869 1.37824 2.99257 1.83169 2.41753 2.41779C1.83179 2.99313 1.37842 3.68914 1.08894 4.45746C0.803926 5.18869 0.609599 6.02645 0.553459 7.24997C0.498759 8.48069 0.484375 8.8722 0.484375 12.0015C0.484375 15.128 0.498759 15.5195 0.553459 16.7473C0.611039 17.9737 0.803926 18.8101 1.08894 19.5427C1.38402 20.2999 1.77698 20.9418 2.41753 21.5824C3.05664 22.2229 3.69863 22.6174 4.45577 22.911C5.18988 23.196 6.02475 23.3903 7.25115 23.4465C8.48043 23.5012 8.87195 23.5156 11.9998 23.5156C15.1277 23.5156 15.5178 23.5012 16.7471 23.4465C17.9721 23.3889 18.8112 23.196 19.5439 22.911C20.3119 22.6218 21.0075 22.1684 21.5821 21.5824C22.2227 20.9418 22.6157 20.2999 22.9108 19.5427C23.1943 18.8101 23.3886 17.9737 23.4462 16.7473C23.5009 15.5195 23.5153 15.128 23.5153 12.0001C23.5153 8.8722 23.5009 8.48068 23.4462 7.2514C23.3886 6.02644 23.1943 5.18869 22.9108 4.45746C22.6213 3.68913 22.1679 2.9931 21.5821 2.41779C21.0073 1.83147 20.3111 1.37799 19.5425 1.08917C18.8084 0.804162 17.9706 0.609851 16.7457 0.553711C15.5164 0.499011 15.1263 0.484619 11.997 0.484619H11.9998ZM10.9678 2.56027H12.0013C15.0759 2.56027 15.4401 2.57037 16.6535 2.6265C17.7763 2.67688 18.3866 2.86545 18.7925 3.02234C19.3294 3.23106 19.7138 3.48151 20.1168 3.88455C20.5199 4.28759 20.7689 4.67048 20.9776 5.20883C21.1359 5.61331 21.3231 6.22361 21.3734 7.34637C21.4296 8.55981 21.4411 8.924 21.4411 11.9972C21.4411 15.0704 21.4296 15.436 21.3734 16.6494C21.3231 17.7722 21.1345 18.3811 20.9776 18.787C20.793 19.287 20.4983 19.7391 20.1154 20.1098C19.7123 20.5129 19.3294 20.7619 18.7911 20.9706C18.3881 21.129 17.7777 21.3161 16.6535 21.3679C15.4401 21.4226 15.0759 21.4355 12.0013 21.4355C8.92665 21.4355 8.56104 21.4226 7.3476 21.3679C6.22484 21.3161 5.61595 21.1289 5.21003 20.9706C4.70983 20.7863 4.25731 20.4921 3.88575 20.1098C3.5025 19.7385 3.20738 19.286 3.02209 18.7856C2.86519 18.3811 2.67663 17.7708 2.62625 16.648C2.57155 15.4346 2.56004 15.0704 2.56004 11.9943C2.56004 8.91969 2.57156 8.55695 2.62625 7.34351C2.67807 6.22075 2.8652 5.61042 3.02353 5.2045C3.23225 4.66759 3.48271 4.28326 3.88575 3.88022C4.28879 3.47718 4.67168 3.22816 5.21003 3.01944C5.61595 2.8611 6.22484 2.67398 7.3476 2.62216C8.40989 2.57322 8.82158 2.55883 10.9678 2.5574L10.9678 2.56027ZM18.1477 4.47183C17.3845 4.47183 16.7658 5.09052 16.7658 5.8537C16.7658 6.61688 17.3845 7.23557 18.1477 7.23557C18.9108 7.23557 19.5295 6.61688 19.5295 5.8537C19.5295 5.09052 18.9108 4.47183 18.1477 4.47183ZM12.0013 6.08688C8.73512 6.03592 6.04606 8.64238 5.9951 11.9085C5.94414 15.1747 8.55057 17.8637 11.8167 17.9147C11.8783 17.9157 11.9398 17.9157 12.0013 17.9147C15.2674 17.8637 17.8739 15.1747 17.8229 11.9085C17.7731 8.71419 15.1956 6.13673 12.0013 6.08688ZM12.0013 8.1611C14.1215 8.16021 15.841 9.87823 15.8419 11.9984C15.8428 14.1187 14.1247 15.8382 12.0045 15.8391H12.0013C9.88108 15.8391 8.16232 14.1203 8.16232 12.0001C8.16232 9.87985 9.88107 8.1611 12.0013 8.1611Z" fill="white"/>
</svg>
