<svg width="22" height="22" viewBox="0 0 22 22" fill="none" xmlns="http://www.w3.org/2000/svg">
<path d="M0.433105 1.94682C0.433105 1.11071 1.12788 0.433105 1.98513 0.433105H20.0151C20.8723 0.433105 21.5671 1.11071 21.5671 1.94682V20.0534C21.5671 20.8895 20.8723 21.5671 20.0151 21.5671H1.98513C1.12788 21.5671 0.433105 20.8895 0.433105 20.0534V1.94682ZM6.96219 18.1249V8.58159H3.79078V18.1249H6.96219ZM5.37715 7.27788C6.48272 7.27788 7.17089 6.5461 7.17089 5.62943C7.15108 4.69292 6.48404 3.98097 5.39828 3.98097C4.31252 3.98097 3.6032 4.69424 3.6032 5.62943C3.6032 6.54611 4.29138 7.27788 5.356 7.27788H5.37715ZM11.86 18.1249V12.7952C11.86 12.5099 11.8811 12.2246 11.9657 12.0211C12.1942 11.4518 12.7159 10.8614 13.593 10.8614C14.7408 10.8614 15.1992 11.7358 15.1992 13.0197V18.1249H18.3706V12.6512C18.3706 9.71885 16.8067 8.35571 14.7197 8.35571C13.0369 8.35571 12.2827 9.28033 11.86 9.93153V9.96455H11.8389L11.86 9.93153V8.58159H8.6899C8.72953 9.47714 8.6899 18.1249 8.6899 18.1249H11.86Z" fill="white"/>
</svg>
