<svg width="26" height="18" viewBox="0 0 26 18" fill="none" xmlns="http://www.w3.org/2000/svg">
<path fill-rule="evenodd" clip-rule="evenodd" d="M13.3446 4.10876C14.8217 2.11117 16.4548 0.538574 18.5431 0.538574C22.4858 0.538574 25.7328 5.55722 25.7344 11.5325C25.7344 15.1775 24.165 17.4615 21.3461 17.4615C18.8901 17.4615 17.534 16.0831 15.1003 12.0116L14.0386 10.2241L13.8508 9.91051C13.5739 9.44259 13.2927 8.97727 13.0072 8.5146L11.1322 11.8253C8.46925 16.4811 6.96987 17.4616 4.88792 17.4616C1.99421 17.4616 0.265625 15.2093 0.265625 11.6375C0.265625 5.93126 3.44107 0.538574 7.58427 0.538574C8.09202 0.538574 8.57908 0.600655 9.055 0.732765C9.54843 0.869655 10.0275 1.08293 10.5082 1.38058C11.4266 1.952 12.345 2.83699 13.3446 4.10876ZM15.7576 7.6487C15.3565 6.9961 14.9713 6.39604 14.6005 5.84531L14.5909 5.83257C15.9359 3.7554 17.0469 2.72238 18.3664 2.72238C21.1089 2.72238 23.3039 6.76054 23.3039 11.7203C23.3039 13.6112 22.6831 14.7079 21.4018 14.7079C20.1714 14.7079 19.5841 13.8961 17.2475 10.1397L15.7561 7.6487H15.7576ZM7.979 3.3336C9.13298 3.49277 10.1835 4.34275 11.7036 6.51861C10.8265 7.86164 9.95899 9.21091 9.10114 10.5663C6.9412 13.9503 6.1947 14.7095 4.99297 14.7095C3.75622 14.7095 3.01926 13.624 3.01926 11.6853C3.01926 7.54366 5.08528 3.30656 7.54923 3.30656C7.69407 3.30656 7.83734 3.31611 7.979 3.33521V3.3336Z" fill="white"/>
</svg>
