<svg width="183" height="199" viewBox="0 0 183 199" fill="none" xmlns="http://www.w3.org/2000/svg">
<path d="M90.575 109.909C113.397 109.909 131.898 91.4079 131.898 68.5856C131.898 45.7633 113.397 27.2622 90.575 27.2622C67.7527 27.2622 49.2516 45.7633 49.2516 68.5856C49.2516 91.4079 67.7527 109.909 90.575 109.909Z" fill="#A0616A"/>
<path d="M56.3716 119.162L64.9857 97.1484L109.492 90.4485L114.274 139.179L69.289 140.136L56.3716 119.162Z" fill="#A0616A"/>
<path d="M132.299 76.21C131.762 78.3586 130.678 83.4745 128.985 83.4997C127.602 83.5198 126.278 61.3256 127.66 57.6546C129.247 53.4371 125.076 48.1021 121.934 45.3635C116.285 40.4394 103.746 51.0128 90.9947 46.223C90.6566 46.0962 90.724 46.1105 86.6975 44.5041C74.3077 39.5607 73.6564 39.418 72.9465 39.3475C66.9403 38.7533 59.6104 43.6681 56.6173 49.6607C53.5058 55.8899 56.1055 61.2328 53.1795 76.3032C52.8386 78.0598 52.3031 80.5634 51.4606 80.6003C49.9205 80.6675 48.4167 72.4416 48.0229 70.2871C46.3729 61.2606 44.782 52.5579 48.0229 42.7852C48.3765 41.7193 50.5553 37.7629 54.8984 29.8937C61.1553 18.5574 64.3022 12.8678 65.2116 11.8455C71.7337 4.51098 83.6055 -2.17986 93.573 0.672893C98.6108 2.1148 97.7075 4.43292 103.886 6.68893C114.897 10.7091 124.467 5.79256 126.231 9.26723C127.166 11.1078 124.551 12.6252 124.513 16.1427C124.448 22.1781 132.081 23.9221 136.545 29.8937C138.944 33.104 143.052 33.1384 132.299 76.21Z" fill="#2F2E41"/>
<path d="M183 155.643C181.341 157.527 179.62 159.373 177.837 161.175C153.888 185.382 122.044 198.714 88.175 198.714C58.9009 198.714 31.1428 188.755 8.68544 170.421C8.67112 170.412 8.66158 170.402 8.64739 170.387C5.66802 167.959 2.78396 165.376 0 162.649C0.0523701 162.225 0.109633 161.806 0.171546 161.391C0.562473 158.597 0.99634 155.932 1.48247 153.48C5.46295 133.378 57.8379 112.273 59.2012 111.724C59.2203 111.719 59.2298 111.714 59.2298 111.714C59.2298 111.714 65.9704 136.828 94.8535 136.505C114.527 136.288 110.713 111.714 110.713 111.714C110.713 111.714 110.952 111.762 111.4 111.859C117.082 113.078 156.534 121.838 172.098 133.792C176.841 137.435 180.245 145.193 182.69 154.443C182.795 154.839 182.895 155.243 183 155.643Z" fill="#6C63FF"/>
</svg>
