<svg width="178" height="199" viewBox="0 0 178 199" fill="none" xmlns="http://www.w3.org/2000/svg">
<path d="M110.219 129.842L116.24 91.9607L75.5982 75.2931L69.5771 132.872L110.219 129.842Z" fill="#A0616A"/>
<path d="M151.066 185.824C147.577 187.537 144.021 189.083 140.412 190.454C133.194 193.203 125.743 195.278 118.1 196.663C110.629 198.021 102.959 198.71 95.2887 198.71C84.9267 198.71 74.6246 197.459 64.6615 194.983C60.7601 194.02 56.8253 192.843 52.9571 191.471C52.5516 191.324 52.1396 191.177 51.7341 191.029C46.9354 189.277 42.2163 187.222 37.6768 184.901C37.0652 184.593 36.4538 184.278 35.8424 183.944C35.1644 183.596 34.4931 183.228 33.8152 182.847C32.9511 182.372 32.0937 181.876 31.2362 181.375C28.3651 179.702 25.5403 177.895 22.8418 176.016L22.6623 175.896C22.5028 175.782 22.3433 175.675 22.1904 175.561C22.2901 175.032 22.3832 174.55 22.4695 174.122C22.8019 172.443 23.0212 171.52 23.0212 171.52L41.2193 133.678L46.2907 123.134L48.7632 122.11L67.4399 114.383H113.088L127.491 120.377C127.491 120.377 127.564 120.652 127.71 121.18C129.146 126.365 137.521 155.804 150.515 184.606C150.694 185.007 150.88 185.416 151.066 185.824Z" fill="#6C63FF"/>
<path d="M99.9487 104.138C122.838 104.138 141.394 85.4593 141.394 62.4181C141.394 39.3769 122.838 20.6984 99.9487 20.6984C77.0591 20.6984 58.5034 39.3769 58.5034 62.4181C58.5034 85.4593 77.0591 104.138 99.9487 104.138Z" fill="#A0616A"/>
<path d="M48.8357 121.751L48.7643 122.11L36.1286 182.586L36.0192 183.112L35.8433 183.945C35.1632 183.596 34.4927 183.227 33.8174 182.849C32.9518 182.37 32.0958 181.877 31.235 181.375C28.3674 179.704 25.5425 177.894 22.8413 176.018L22.6606 175.893C22.5037 175.783 22.342 175.673 22.1898 175.563C20.1259 174.113 18.1142 172.6 16.1502 171.039C16.1359 171.03 16.1264 171.02 16.1121 171.006C12.6072 168.162 9.23072 165.103 6.00162 161.853C3.91868 159.756 1.91654 157.597 0 155.381L0.29012 154.155L0.318652 154.031L0.680057 152.47C3.89487 138.803 14.771 128.314 28.472 125.672L46.6766 122.163L48.8357 121.751Z" fill="#6C63FF"/>
<path d="M177.912 168.141C172.548 172.737 166.799 176.899 160.73 180.552C160.139 180.914 159.534 181.268 158.929 181.623C156.35 183.121 153.725 184.52 151.066 185.824C147.577 187.537 144.021 189.083 140.412 190.454L140.133 189.129L125.863 120.826L127.711 121.18L146.228 124.753C159.926 127.396 170.807 137.886 174.017 151.555L177.559 166.656L177.912 168.141Z" fill="#6C63FF"/>
<path d="M147.677 73.5705C146.6 77.6116 141.183 95.6695 127.312 99.4695C124.587 100.219 118.086 101.082 119.808 99.4695C120.2 99.1016 120.579 98.7403 120.958 98.3855C136.012 84.1348 142.153 75.4241 139.348 56.0882C137.567 43.7774 117.282 32.5976 105.87 31.4869C101.058 31.019 94.9165 32.6577 90.8622 36.8798C84.1692 43.8375 85.2724 65.1943 81.5638 77.739C80.5668 81.0973 79.2309 83.8271 77.3099 85.4795C76.1135 86.5099 75.3492 85.1985 74.7842 83.0509C73.5813 78.4878 73.269 70.1318 71.5608 72.4931C66.6225 79.3378 71.3281 88.4099 72.7505 91.9093C73.0429 92.6254 73.342 93.3141 73.641 93.97V93.9766C73.8139 94.351 73.9933 94.726 74.1661 95.0808V95.0873C78.9117 104.828 84.6144 108.314 89.6392 114.383C91.6132 116.758 93.4809 119.521 95.1492 123.214C96.2924 125.743 97.1166 128.286 97.6816 130.781C100.559 143.292 97.1432 154.66 96.2192 157.751C94.2851 164.187 90.9619 175.246 81.2115 181.488C68.9685 189.33 57.7959 182.419 52.452 189.865C52.3855 189.952 52.3257 190.039 52.2659 190.126C52.0665 190.427 51.887 190.728 51.7342 191.029C46.9354 189.277 42.2163 187.222 37.6769 184.901C37.0653 184.593 36.4539 184.278 35.8424 183.944C35.1645 183.596 34.4932 183.228 33.8152 182.847C33.7886 182.325 33.762 181.803 33.742 181.275C33.35 172.222 33.9415 162.273 36.1814 152.351C37.617 146.016 39.0395 139.733 41.2194 133.678C42.6418 129.731 44.3831 125.877 46.6761 122.164C48.5107 119.18 50.6906 116.283 53.3359 113.499C59.1451 107.391 64.3095 104.842 65.127 98.392C66.2966 89.186 56.7723 86.4164 53.3359 72.493C50.9898 62.9728 48.5372 49.2507 50.9167 40.0041C53.1633 31.2666 55.1173 23.6862 61.6376 16.2593C63.206 14.4796 76.0804 2.10209 90.9951 0.0681477C97.8675 -0.861599 103.996 7.99681 112.304 9.90335C121.855 12.0915 127.325 13.3427 132.669 17.457C141.701 24.4016 144.247 34.7857 146.606 44.4334C148.454 51.9805 150.847 61.7419 147.677 73.5705Z" fill="#2F2E41"/>
</svg>
