<svg width="24" height="20" viewBox="0 0 24 20" fill="none" xmlns="http://www.w3.org/2000/svg">
<path d="M7.64246 19.5243C16.4894 19.5243 21.329 12.1938 21.329 5.84805C21.329 5.64292 21.3289 5.43486 21.3202 5.22973C22.2624 4.54766 23.0756 3.70322 23.7216 2.73596C22.8415 3.12402 21.9088 3.37977 20.9539 3.49493C21.9598 2.89367 22.7132 1.94763 23.074 0.832653C22.1289 1.39254 21.0945 1.78558 20.0161 1.99456C18.196 0.0561037 15.149 -0.039794 13.2105 1.78038C11.9587 2.95579 11.4277 4.70892 11.8168 6.38139C7.94914 6.18745 4.34543 4.36137 1.90177 1.3572C0.628711 3.55595 1.28138 6.36538 3.39335 7.77774C2.63077 7.75183 1.88495 7.54705 1.21605 7.17993V7.24586C1.21876 9.5339 2.83043 11.5044 5.07247 11.9609C4.65967 12.0746 4.23324 12.1313 3.80507 12.1294C3.50321 12.1303 3.20196 12.1023 2.90543 12.0459C3.53562 14.0046 5.3419 15.3457 7.39922 15.3822C5.69453 16.7211 3.58881 17.4472 1.42118 17.4437C1.03923 17.4453 0.65755 17.4233 0.27832 17.3778C2.47835 18.7803 5.03336 19.5251 7.64246 19.5243Z" fill="white"/>
</svg>
