<svg width="60" height="60" viewBox="0 0 60 60" fill="none" xmlns="http://www.w3.org/2000/svg">
<g clip-path="url(#clip0_593_688)">
<mask id="mask0_593_688" style="mask-type:luminance" maskUnits="userSpaceOnUse" x="-52" y="-45" width="163" height="147">
<path d="M-51.1234 101.735H110.78V-44.0905H-51.1234V101.735Z" fill="white"/>
</mask>
<g mask="url(#mask0_593_688)">
<path d="M59.6132 2.25364V2.25C50.6155 1.01777 40.5806 0.329777 29.9981 0.329777C19.4157 0.329777 9.38061 1.01777 0.383057 2.25V2.29382L0.383825 24.5096C0.389595 43.3237 12.5014 53.9047 29.5165 59.5299L30.0002 59.6697L30.0017 59.6702L30.4846 59.5299C47.5001 53.9047 59.6106 43.3237 59.6169 24.5096V2.2985V2.25364H59.6132ZM30.0002 28.9698L29.994 28.9643L30.0323 28.9987L30.0002 28.9698Z" fill="#2DAFE5"/>
<path d="M57.5679 4.09561V4.09215C49.1919 2.94514 39.8497 2.3046 29.9983 2.3046C20.1467 2.3046 10.8047 2.94514 2.42871 4.09215V4.13303L2.42948 25.1864C2.43467 42.701 13.7101 52.5514 29.5498 57.7881L30.0002 57.9182L30.0016 57.9187L30.4512 57.7881C46.2915 52.5514 57.5654 42.701 57.5714 25.1864V4.13753V4.09561H57.5679Z" fill="#7C2C3B"/>
<path d="M43.6072 48.255C44.0436 48.6488 44.7422 48.232 45.4586 47.5871C46.1745 46.9421 46.637 46.3128 46.2003 45.9191L18.8605 21.9139C18.4238 21.52 17.643 21.5858 17.1168 22.0597C16.5907 22.5336 16.518 23.2367 16.9545 23.6301L43.6072 48.255Z" fill="#D6A93A"/>
<path d="M19.7085 21.5469L21.9447 19.1779C21.9447 19.1779 22.1558 18.9245 21.8274 18.5645C20.9648 17.619 19.2354 16.2395 19.2354 16.2395C18.9858 16.0708 18.8158 16.1118 18.5389 16.3514C17.1698 17.5336 13.6861 20.566 13.4765 20.7626C13.2131 21.007 13.0923 21.1717 13.1765 21.5907C13.2611 22.0132 13.511 22.7155 13.0796 23.3971L10.7256 26.7341C10.4307 27.1413 10.3448 27.5014 10.5673 27.6969C10.6863 27.8019 10.9854 27.9235 11.5932 27.5435C11.8842 27.3619 15.085 25.4211 16.105 24.6654C16.7025 24.2227 17.1585 23.8199 17.1585 23.8199L19.0902 22.1136C19.0902 22.1136 19.4968 21.754 19.7085 21.5469Z" fill="#F8D742"/>
<path d="M11.6085 27.3297C10.9401 27.7376 10.942 27.7973 11.0353 27.7861C11.1828 27.7568 11.3664 27.6854 11.5934 27.5434C11.8839 27.3619 15.0849 25.4212 16.1049 24.6653C16.5263 24.3534 16.8763 24.0615 17.0465 23.9162C16.5201 24.0168 15.8491 24.2475 15.442 24.5538C14.8957 24.965 12.5651 26.7456 11.6085 27.3297Z" fill="#D6A93A"/>
<path d="M19.7083 21.5469L21.9447 19.1779C21.9447 19.1779 22.0745 19.0202 21.9699 18.7778C21.9699 18.7778 21.7856 18.5903 21.141 19.2678C20.5989 19.8371 20.3428 20.0593 19.886 20.5513C19.5337 20.9308 19.2727 21.564 19.1674 22.045C19.2954 21.9309 19.5537 21.6984 19.7083 21.5469Z" fill="#D6A93A"/>
<path d="M16.4526 48.255C16.0164 48.6488 15.3176 48.232 14.601 47.5871C13.8853 46.9421 13.4228 46.3128 13.8595 45.9191L41.2097 21.9045C41.6462 21.5108 42.427 21.5765 42.9533 22.0504C43.4795 22.5245 43.5522 23.2275 43.1155 23.6207L16.4526 48.255Z" fill="#D6A93A"/>
<path d="M16.1867 48.0184L41.7052 24.4148C42.1419 24.0214 42.0692 23.3184 41.543 22.8446C41.2679 22.5966 40.9234 22.4617 40.5946 22.4443L13.8594 45.9192C13.4429 46.2947 13.8448 46.8847 14.5042 47.4982C15.1602 48.0559 15.785 48.3811 16.1867 48.0184Z" fill="#F8D742"/>
<path d="M40.3616 21.5376L38.1256 19.1686C38.1256 19.1686 37.9144 18.9152 38.2425 18.5552C39.1052 17.6097 40.8345 16.2302 40.8345 16.2302C41.0845 16.0615 41.2547 16.1025 41.5312 16.3421C42.9002 17.5243 46.3837 20.5567 46.5935 20.7533C46.857 20.9977 46.978 21.1624 46.8933 21.5814C46.8089 22.0039 46.5589 22.7062 46.9905 23.3878L49.3445 26.7247C49.6391 27.132 49.7253 27.4921 49.503 27.6876C49.3837 27.7926 49.0851 27.9142 48.4768 27.5342C48.186 27.3526 44.9853 25.4118 43.9651 24.6561C43.3676 24.2134 42.9116 23.8106 42.9116 23.8106L40.98 22.1043C40.98 22.1043 40.5733 21.7447 40.3616 21.5376Z" fill="#F8D742"/>
<path d="M48.4616 27.3203C49.1299 27.7282 49.1281 27.788 49.0347 27.7767C48.8872 27.7475 48.7035 27.6761 48.4768 27.5341C48.1862 27.3525 44.9852 25.4117 43.9652 24.656C43.5439 24.344 43.1937 24.0522 43.0237 23.9068C43.55 24.0075 44.2208 24.2382 44.6281 24.5444C45.1743 24.9556 47.5049 26.7362 48.4616 27.3203Z" fill="#D6A93A"/>
<path d="M40.3616 21.5376L38.1257 19.1686C38.1257 19.1686 37.9957 19.011 38.1003 18.7685C38.1003 18.7685 38.2845 18.5811 38.9291 19.2585C39.4711 19.8278 39.7276 20.0501 40.184 20.542C40.5365 20.9215 40.7974 21.5548 40.903 22.0358C40.7747 21.9216 40.5165 21.6892 40.3616 21.5376Z" fill="#D6A93A"/>
<path d="M44.6689 22.2242C44.4582 22.4138 44.1166 22.4138 43.9059 22.2242L42.7605 21.192C42.5497 21.0027 42.5497 20.6949 42.7607 20.5054C42.9714 20.3152 43.3128 20.3152 43.5236 20.505L44.6689 21.5369C44.8799 21.7264 44.8799 22.0342 44.6689 22.2242Z" fill="#D6A93A"/>
<path d="M42.9143 21.1921C42.7037 21.0026 42.7037 20.695 42.9145 20.5053C43.0001 20.4279 43.1078 20.3827 43.2189 20.3683C43.0566 20.3473 42.8855 20.3925 42.7607 20.5053C42.5497 20.695 42.5497 21.0026 42.7605 21.1921L43.9059 22.2242C44.0311 22.3368 44.2018 22.382 44.3643 22.3611C44.253 22.3465 44.1455 22.3013 44.0597 22.2242L42.9143 21.1921Z" fill="#CDA938"/>
<path d="M43.4181 21.5708C43.3952 21.5909 43.3585 21.5913 43.3356 21.5708C43.3129 21.55 43.3129 21.517 43.3356 21.4963L43.8608 21.0233C43.8839 21.0027 43.9206 21.0025 43.9433 21.023C43.966 21.0437 43.966 21.0767 43.9433 21.0974L43.4181 21.5708Z" fill="#D6A93A"/>
<path d="M43.5916 21.728C43.5695 21.7484 43.5331 21.7486 43.5103 21.728C43.4878 21.708 43.4881 21.675 43.5103 21.6549C43.5328 21.6349 43.5693 21.6346 43.5918 21.6549C43.6143 21.6751 43.6143 21.708 43.5916 21.728Z" fill="#D6A93A"/>
<path d="M43.2309 21.4034C43.209 21.4233 43.1721 21.4235 43.15 21.4034C43.1277 21.3831 43.1277 21.3502 43.1496 21.3303C43.1721 21.31 43.2088 21.31 43.2309 21.3303C43.2536 21.3502 43.2534 21.3831 43.2309 21.4034Z" fill="#D6A93A"/>
<path d="M43.6546 20.7628L43.4746 20.6005C43.4517 20.58 43.4146 20.5802 43.3919 20.6008C43.369 20.6216 43.369 20.6545 43.3919 20.6751L43.4205 20.7011C43.4309 20.7108 43.4313 20.7257 43.4217 20.7359L42.9565 21.1548C42.9338 21.1755 42.9338 21.209 42.9565 21.2291C42.9794 21.2497 43.0165 21.2497 43.0392 21.2294L43.5059 20.8089C43.5171 20.8018 43.5324 20.8024 43.5426 20.8111L43.5717 20.8373C43.5947 20.8579 43.6319 20.8575 43.6546 20.8373C43.6772 20.8166 43.6776 20.7837 43.6546 20.7628Z" fill="#D6A93A"/>
<path d="M44.6161 21.6358C44.5974 21.6123 44.5607 21.6071 44.5343 21.6242L44.2297 21.8229C44.2174 21.8317 44.1993 21.8308 44.188 21.8203C44.178 21.8114 44.1761 21.7979 44.182 21.7872L44.2443 21.6746C44.2547 21.6561 44.2513 21.6342 44.2378 21.6187C44.2374 21.6185 44.2372 21.6181 44.2372 21.6181C44.2363 21.6173 44.2357 21.6159 44.2345 21.6154C44.2339 21.6149 44.2334 21.6142 44.233 21.6136C44.2322 21.6131 44.2316 21.6126 44.2313 21.6121C44.2303 21.6117 44.2295 21.6107 44.2282 21.61C44.2282 21.61 44.2276 21.6098 44.2274 21.6095C44.2101 21.5975 44.1863 21.5944 44.1653 21.6038L44.0407 21.6595C44.0286 21.6653 44.0134 21.6633 44.0036 21.6543C43.9922 21.6438 43.9913 21.6278 44.0005 21.6168L44.2214 21.3422C44.2405 21.3185 44.2345 21.2859 44.2086 21.2686C44.1822 21.2515 44.1459 21.2568 44.1272 21.2804L43.6911 21.8222C43.6743 21.843 43.6772 21.8712 43.6961 21.889C43.6968 21.8897 43.6978 21.8906 43.6986 21.8916C43.6986 21.8916 43.6991 21.8918 43.6997 21.892C43.7168 21.9064 43.7424 21.9105 43.7649 21.9003L43.9788 21.8045C43.9907 21.7997 44.0049 21.8016 44.0145 21.8104C44.0249 21.8198 44.0264 21.8336 44.0197 21.8445L43.9147 22.0354C43.9034 22.0553 43.9082 22.0785 43.9238 22.0943C43.9239 22.0946 43.9247 22.0952 43.9247 22.0952C43.9255 22.0959 43.9264 22.0964 43.927 22.0972C43.947 22.1146 43.9786 22.117 44.0018 22.1016L44.6032 21.7091C44.6291 21.6923 44.6351 21.6592 44.6161 21.6358Z" fill="#D6A93A"/>
<path d="M19.6303 22.5896C19.2986 22.5832 18.9397 22.7104 18.6586 22.9634C18.1695 23.4041 18.1018 24.0578 18.5078 24.4234L29.433 34.507L31.2921 32.8325L19.6303 22.5896Z" fill="#F8D742"/>
<path d="M46.2004 45.9191L32.4182 33.821C32.2018 33.9079 31.9991 34.0309 31.8214 34.1908C31.1041 34.8369 31.0481 35.8527 31.6528 36.557L43.98 47.9414C44.3855 48.3075 45.035 47.9199 45.7011 47.3206C45.8136 47.2191 45.9192 47.1183 46.0152 47.0187C46.3704 46.5868 46.5063 46.1952 46.2004 45.9191Z" fill="#F8D742"/>
<path d="M43.3929 21.548C43.3702 21.5681 43.3334 21.5685 43.3104 21.548C43.2877 21.5272 43.2877 21.494 43.3104 21.4736L43.8355 21.0005C43.8586 20.9799 43.8954 20.9797 43.9182 21.0002C43.9409 21.0208 43.9409 21.0539 43.9182 21.0746L43.3929 21.548Z" fill="#F8D742"/>
<path d="M43.5663 21.7052C43.5442 21.7253 43.5078 21.7258 43.4851 21.7052C43.4626 21.6851 43.463 21.6522 43.4851 21.632C43.5076 21.612 43.544 21.6119 43.5665 21.632C43.589 21.6524 43.589 21.6851 43.5663 21.7052Z" fill="#F8D742"/>
<path d="M43.2057 21.3805C43.1836 21.4003 43.147 21.4006 43.1247 21.3805C43.1024 21.3603 43.1026 21.3274 43.1245 21.3073C43.147 21.2872 43.1836 21.2872 43.2057 21.3073C43.2284 21.3274 43.2282 21.3603 43.2057 21.3805Z" fill="#F8D742"/>
<path d="M43.6293 20.7399L43.4495 20.5776C43.4266 20.5574 43.3893 20.5575 43.3666 20.578C43.3437 20.5988 43.3437 20.6317 43.3666 20.6523L43.3952 20.6783C43.4056 20.6881 43.406 20.7029 43.3964 20.7131L42.9312 21.1321C42.9087 21.1527 42.9087 21.1861 42.9312 21.2064C42.9541 21.2268 42.9912 21.2268 43.0141 21.2066L43.4806 20.786C43.492 20.7789 43.5073 20.7796 43.5175 20.7883L43.5466 20.8144C43.5695 20.835 43.6066 20.8347 43.6293 20.8144C43.6521 20.794 43.6523 20.7609 43.6293 20.7399Z" fill="#F8D742"/>
<path d="M44.5907 21.613C44.5721 21.5896 44.5355 21.5843 44.5092 21.6014L44.2046 21.8001C44.1921 21.8089 44.174 21.8081 44.1628 21.7975C44.1526 21.7888 44.1507 21.7751 44.1569 21.7644L44.219 21.6518C44.2294 21.6333 44.2259 21.6115 44.2126 21.596C44.2123 21.5959 44.2119 21.5954 44.2119 21.5954C44.2109 21.5943 44.2103 21.5933 44.2092 21.5926C44.2088 21.5919 44.2082 21.5914 44.2076 21.5908C44.2069 21.5905 44.2065 21.5902 44.2059 21.5895C44.2049 21.5889 44.2042 21.5879 44.2028 21.5872C44.2028 21.5872 44.2023 21.587 44.2021 21.5867C44.1848 21.5747 44.1609 21.5716 44.1399 21.581L44.0153 21.6369C44.0032 21.6426 43.9882 21.6406 43.9784 21.6316C43.9671 21.6212 43.9661 21.6051 43.9751 21.5941L44.1961 21.3194C44.2151 21.296 44.2092 21.263 44.1834 21.2458C44.1571 21.2288 44.1205 21.234 44.1021 21.2576L43.6657 21.7996C43.6492 21.8202 43.6519 21.8484 43.6707 21.8663C43.6715 21.8669 43.6724 21.8678 43.6734 21.8689C43.6734 21.8689 43.6738 21.869 43.6744 21.8694C43.6915 21.8837 43.7172 21.8877 43.7396 21.8775L43.9536 21.7817C43.9653 21.777 43.9798 21.779 43.9894 21.7878C43.9996 21.797 44.0013 21.8108 43.9946 21.8219L43.8894 22.0128C43.8782 22.0325 43.8828 22.0557 43.8986 22.0715C43.8988 22.072 43.8994 22.0722 43.8994 22.0725C43.9001 22.0732 43.9011 22.0736 43.9019 22.0745C43.9219 22.0919 43.9534 22.0942 43.9765 22.0791L44.578 21.6865C44.604 21.6695 44.6098 21.6364 44.5907 21.613Z" fill="#F8D742"/>
<path d="M17.3096 20.5145C17.5202 20.7044 17.5202 21.012 17.3096 21.2018L16.1638 22.2335C15.9535 22.4233 15.6117 22.4233 15.4013 22.2333C15.1902 22.0435 15.1902 21.736 15.4009 21.5462L16.5465 20.5145C16.7569 20.3245 17.0987 20.3245 17.3096 20.5145Z" fill="#D6A93A"/>
<path d="M15.4971 21.6327L16.6427 20.601C16.8371 20.4259 17.1425 20.4128 17.3544 20.5609C17.3406 20.5448 17.3261 20.5292 17.3098 20.5143C17.0988 20.3246 16.7573 20.3246 16.5465 20.5143L15.4009 21.5461C15.1903 21.7359 15.1903 22.0436 15.4013 22.2334C15.4175 22.2479 15.4348 22.2609 15.4525 22.2734C15.288 22.0829 15.3027 21.8078 15.4971 21.6327Z" fill="#CDA938"/>
<path d="M16.559 21.7157C16.5817 21.7361 16.5817 21.7694 16.559 21.79C16.5363 21.8104 16.4992 21.8104 16.4763 21.7898L15.9511 21.3168C15.9282 21.2962 15.9282 21.2629 15.9511 21.2425C15.9738 21.2219 16.0107 21.2219 16.0336 21.2425L16.559 21.7157Z" fill="#D6A93A"/>
<path d="M16.7337 21.5594C16.7558 21.5794 16.7564 21.6123 16.7337 21.6327C16.7112 21.6526 16.6745 21.6525 16.6527 21.6327C16.6302 21.6124 16.63 21.5795 16.6524 21.5594C16.675 21.539 16.7114 21.5392 16.7337 21.5594Z" fill="#D6A93A"/>
<path d="M16.3732 21.8843C16.3953 21.9042 16.3957 21.9371 16.3732 21.9572C16.3509 21.9775 16.3141 21.9773 16.292 21.9576C16.2697 21.9371 16.2697 21.9042 16.2918 21.8843C16.3143 21.8637 16.3509 21.8642 16.3732 21.8843Z" fill="#D6A93A"/>
<path d="M15.662 21.5029L15.482 21.6647C15.4591 21.6856 15.4591 21.7189 15.4822 21.7393C15.5051 21.7598 15.5418 21.7599 15.5647 21.7393L15.5935 21.7133C15.6043 21.7042 15.621 21.7038 15.6326 21.7125L16.0974 22.1313C16.1203 22.1517 16.1572 22.1517 16.1799 22.1313C16.2028 22.1109 16.2029 22.0774 16.1801 22.0568L15.7133 21.6366C15.7053 21.6266 15.7058 21.6125 15.7156 21.6034L15.7447 21.5774C15.7676 21.5566 15.7674 21.5232 15.7447 21.5029C15.722 21.4821 15.6851 21.4821 15.662 21.5029Z" fill="#D6A93A"/>
<path d="M16.6314 20.6368C16.6052 20.6536 16.5993 20.6868 16.6183 20.7102L16.8393 20.9844C16.8485 20.9958 16.8477 21.0123 16.8364 21.0223C16.8264 21.0313 16.8112 21.0329 16.7995 21.0275L16.6745 20.9718C16.6535 20.9622 16.6297 20.9654 16.6126 20.9773C16.6122 20.9775 16.6118 20.978 16.6114 20.9782C16.6106 20.9787 16.6095 20.9794 16.6087 20.9804C16.6079 20.9809 16.6074 20.9813 16.607 20.9818C16.6064 20.9823 16.6056 20.9828 16.6052 20.9834C16.6043 20.9842 16.6035 20.9851 16.6026 20.9861C16.6026 20.9861 16.6022 20.9867 16.602 20.987C16.5887 21.0022 16.5854 21.0237 16.5958 21.0426L16.6577 21.155C16.6637 21.1658 16.6618 21.1794 16.6518 21.1883C16.6404 21.1988 16.6226 21.1994 16.6101 21.1912L16.3052 20.9922C16.2791 20.9749 16.2426 20.9804 16.2239 21.0035C16.2047 21.0272 16.2108 21.0601 16.2368 21.0771L16.8381 21.4699C16.8614 21.485 16.8926 21.4826 16.9127 21.4654C16.9133 21.4646 16.9145 21.4639 16.9149 21.463C16.9149 21.463 16.9156 21.4625 16.9162 21.462C16.9316 21.4467 16.9362 21.4235 16.9251 21.4034L16.8187 21.2106C16.8135 21.2001 16.8154 21.1872 16.8252 21.1788C16.8354 21.1692 16.8512 21.1677 16.8631 21.1737L17.0751 21.2681C17.0972 21.2783 17.1229 21.2744 17.1404 21.2603C17.1406 21.26 17.1408 21.2596 17.1412 21.2595C17.1422 21.2586 17.1427 21.2581 17.1437 21.257C17.1629 21.2392 17.1656 21.2108 17.1489 21.1902L16.7126 20.6482C16.6941 20.625 16.6574 20.6198 16.6314 20.6368Z" fill="#D6A93A"/>
<path d="M16.559 21.6637C16.5817 21.6842 16.5817 21.7172 16.559 21.7382C16.5363 21.7585 16.4992 21.7585 16.4763 21.7379L15.9511 21.265C15.9282 21.2442 15.9282 21.2108 15.9511 21.1905C15.9738 21.1701 16.0107 21.1701 16.0336 21.1905L16.559 21.6637Z" fill="#F8D742"/>
<path d="M16.7337 21.5074C16.7558 21.5275 16.7564 21.5604 16.7337 21.5807C16.7112 21.6008 16.6745 21.6006 16.6527 21.5807C16.6302 21.5604 16.63 21.5277 16.6524 21.5073C16.675 21.487 16.7114 21.4873 16.7337 21.5074Z" fill="#F8D742"/>
<path d="M16.3732 21.8322C16.3953 21.852 16.3957 21.8852 16.3732 21.9053C16.3509 21.9256 16.3141 21.9252 16.292 21.9055C16.2697 21.8852 16.2697 21.8523 16.2918 21.8322C16.3143 21.8118 16.3509 21.8121 16.3732 21.8322Z" fill="#F8D742"/>
<path d="M15.662 21.4508L15.482 21.6128C15.4591 21.6336 15.4591 21.6668 15.4822 21.6872C15.5051 21.7077 15.5418 21.7079 15.5647 21.6872L15.5935 21.6614C15.6043 21.6521 15.621 21.6519 15.6326 21.6604L16.0974 22.0794C16.1203 22.0998 16.1572 22.0998 16.1799 22.0794C16.2028 22.0588 16.2029 22.0255 16.1801 22.0051L15.7133 21.5845C15.7053 21.5747 15.7058 21.5606 15.7156 21.5514L15.7447 21.5255C15.7676 21.5045 15.7674 21.4713 15.7447 21.4508C15.722 21.43 15.6851 21.43 15.662 21.4508Z" fill="#F8D742"/>
<path d="M16.6314 20.5847C16.6052 20.6017 16.5993 20.6349 16.6183 20.6581L16.8393 20.9325C16.8485 20.9439 16.8477 20.9602 16.8364 20.9704C16.8264 20.9793 16.8112 20.981 16.7995 20.9754L16.6745 20.9197C16.6535 20.9101 16.6297 20.9134 16.6126 20.9254C16.6122 20.9256 16.6118 20.9259 16.6114 20.9261C16.6106 20.9266 16.6095 20.9273 16.6087 20.9283C16.6079 20.9289 16.6074 20.9292 16.607 20.9297C16.6064 20.9302 16.6056 20.9308 16.6052 20.9315C16.6043 20.9321 16.6035 20.9332 16.6026 20.9341C16.6026 20.9341 16.6022 20.9347 16.602 20.9351C16.5887 20.9505 16.5854 20.9718 16.5958 20.9905L16.6577 21.1029C16.6637 21.114 16.6618 21.1274 16.6518 21.1364C16.6404 21.1468 16.6226 21.1473 16.6101 21.1395L16.3052 20.9401C16.2791 20.923 16.2426 20.9283 16.2239 20.9515C16.2047 20.9753 16.2108 21.0082 16.2368 21.025L16.8381 21.4178C16.8614 21.4331 16.8926 21.4305 16.9127 21.4135C16.9133 21.4126 16.9145 21.4118 16.9149 21.4111C16.9152 21.4109 16.9156 21.4106 16.9162 21.41C16.9316 21.3948 16.9362 21.3714 16.9251 21.3515L16.8187 21.1587C16.8135 21.148 16.8154 21.1351 16.8252 21.1267C16.8354 21.1173 16.8512 21.1156 16.8631 21.1216L17.0751 21.2162C17.0972 21.2264 17.1229 21.2223 17.1404 21.2082C17.1406 21.2079 17.1408 21.2076 17.1412 21.2076C17.1422 21.2067 17.1427 21.2058 17.1437 21.205C17.1629 21.1871 17.1656 21.1589 17.1489 21.1381L16.7126 20.5963C16.6941 20.5729 16.6574 20.5677 16.6314 20.5847Z" fill="#F8D742"/>
<path d="M19.2491 14.6073C18.2159 14.6955 17.2326 14.0712 17.2037 13.0931C17.1724 12.1924 17.1408 11.2919 17.1095 10.3914C17.5785 10.3583 17.8133 10.3425 18.2828 10.3125C18.3112 11.2132 18.3399 12.1139 18.3684 13.0146C18.3826 13.4629 18.7157 13.6808 19.2143 13.6512C19.2835 13.647 19.3182 13.645 19.3874 13.641C19.8861 13.6119 20.2055 13.3557 20.1936 12.9073C20.1693 12.0064 20.1453 11.1057 20.1212 10.205C20.5911 10.1799 20.8261 10.1681 21.2961 10.1461C21.3172 11.0468 21.3386 11.9477 21.3597 12.8485C21.3768 13.8315 20.4749 14.5528 19.4218 14.5971C19.3528 14.6013 19.3182 14.6032 19.2491 14.6073Z" fill="white"/>
<path d="M22.1936 10.1139C22.739 10.0905 23.0119 10.08 23.5577 10.0607C24.1707 10.9493 24.7796 11.8403 25.3842 12.7336C25.3896 12.7336 25.3923 12.7334 25.3975 12.7332C25.3877 11.8244 25.3777 10.9154 25.3679 10.0064C25.8382 9.99458 26.0736 9.98938 26.5442 9.98072C26.5577 11.4061 26.5709 12.8313 26.5844 14.2566C26.0473 14.2665 25.7788 14.2726 25.2419 14.2866C24.6373 13.3959 24.0282 12.5075 23.415 11.6216C23.4096 11.6217 23.4069 11.6219 23.4017 11.6221C23.4163 12.529 23.4311 13.4359 23.4459 14.3429C22.9811 14.3599 22.7486 14.369 22.284 14.3891C22.2538 12.9641 22.2238 11.5389 22.1936 10.1139Z" fill="white"/>
<path d="M27.4089 9.96854C27.8795 9.96179 28.1149 9.95919 28.5857 9.95555C28.5913 11.3809 28.5966 12.8063 28.6022 14.2316C28.137 14.2351 27.9043 14.2377 27.4391 14.2444C27.4291 12.8191 27.4189 11.3939 27.4089 9.96854Z" fill="white"/>
<path d="M30.9531 10.8496C30.3476 10.8466 30.0449 10.8465 29.4393 10.8485C29.4387 10.4898 29.4383 10.3104 29.4377 9.95148C30.8422 9.95061 32.2455 9.96204 33.6495 9.98595C33.646 10.3447 33.6443 10.5241 33.6407 10.883C33.0353 10.8709 32.7326 10.8662 32.127 10.8591C32.1206 11.9855 32.1141 13.1117 32.1078 14.2379C31.6426 14.2326 31.4099 14.2307 30.9447 14.2284C30.9474 13.1022 30.9503 11.9758 30.9531 10.8496Z" fill="white"/>
<path d="M34.5014 10.002C35.5636 10.0308 36.6251 10.0656 37.6868 10.107C37.6793 10.4657 37.6757 10.6451 37.6682 11.0039C36.8668 10.9703 36.4659 10.9557 35.6639 10.9311C35.6591 11.242 35.6568 11.3976 35.652 11.7085C36.3051 11.7286 36.6316 11.74 37.2843 11.7662C37.2772 12.1249 37.2738 12.3043 37.2666 12.6631C36.6155 12.6371 36.2899 12.6255 35.6384 12.6056C35.6334 12.9284 35.6311 13.0899 35.6261 13.4127C36.4599 13.4384 36.8766 13.4538 37.7101 13.4893C37.7026 13.848 37.6988 14.0274 37.6913 14.3862C36.6109 14.3434 35.5307 14.3072 34.4497 14.2777C34.467 12.8526 34.4841 11.4272 34.5014 10.002Z" fill="white"/>
<path d="M38.5802 10.1382C39.3325 10.1727 39.7084 10.1919 40.46 10.2344C41.8248 10.2803 42.8979 11.2856 42.8604 12.5192C42.8237 13.7296 41.6735 14.6248 40.3394 14.5089C39.5965 14.4668 39.225 14.4476 38.4813 14.4133C38.5144 12.9883 38.5473 11.5632 38.5802 10.1382ZM40.3183 13.6096C41.1229 13.655 41.6281 13.2571 41.6538 12.4381C41.6796 11.6251 41.1777 11.173 40.3879 11.1285C40.1254 11.1138 39.994 11.1067 39.7315 11.0928C39.7098 11.9199 39.6881 12.747 39.6663 13.5741C39.9271 13.5877 40.0575 13.5948 40.3183 13.6096Z" fill="white"/>
<path d="M7.26843 5.13627C7.87998 5.06664 8.18594 5.03304 8.79806 4.96843C9.07268 6.1823 9.3471 7.39617 9.62172 8.61021C9.62826 8.60951 9.63172 8.60917 9.63826 8.60847C9.95249 7.33502 10.2667 6.06157 10.5813 4.78812C11.1086 4.73719 11.3725 4.71277 11.9 4.66548C12.2065 5.88126 12.5129 7.09686 12.819 8.31263C12.8258 8.31194 12.829 8.31176 12.8358 8.31107C13.1327 7.0442 13.43 5.77733 13.7275 4.51063C14.331 4.46231 14.6329 4.43927 15.2368 4.39579C14.7331 6.22491 14.23 8.05437 13.7275 9.88383C13.0194 9.94047 12.6656 9.97044 11.9581 10.0335C11.7175 9.00599 11.4771 7.9785 11.2365 6.95084C11.2298 6.95153 11.2265 6.95188 11.2198 6.9524C10.9792 8.02475 10.7388 9.09693 10.4986 10.1693C9.7848 10.2386 9.42806 10.2748 8.71498 10.3505C8.23305 8.61228 7.75074 6.87428 7.26843 5.13627Z" fill="white"/>
<path d="M45.6924 4.4718C46.3494 4.52272 46.6778 4.54957 47.3344 4.60604C47.7682 5.75928 48.2015 6.9127 48.6344 8.06646C48.6411 8.06698 48.6444 8.06733 48.6511 8.06785C49.0838 6.9948 49.5169 5.92176 49.9504 4.84888C50.5994 4.91349 50.9238 4.94727 51.5725 5.01742C51.93 6.84809 52.2871 8.67877 52.6442 10.5096C52.0425 10.441 51.7415 10.4079 51.1394 10.3442C50.9631 9.14869 50.7867 7.95318 50.6104 6.7575C50.6036 6.75681 50.6004 6.75646 50.5936 6.75577C50.1669 7.89031 49.7406 9.02502 49.3144 10.1597C48.7871 10.109 48.5234 10.0846 47.9957 10.0373C47.5609 8.82253 47.1257 7.60797 46.69 6.39341C46.6834 6.39289 46.68 6.39272 46.6734 6.39202C46.5188 7.5567 46.3644 8.7212 46.21 9.88588C45.5965 9.83669 45.2898 9.8133 44.6759 9.76896C45.0146 8.00324 45.3534 6.23752 45.6924 4.4718Z" fill="white"/>
<path d="M15.8197 4.36499C17.162 4.27423 18.5047 4.1942 19.8488 4.12527C19.8197 4.57752 19.8051 4.80374 19.7761 5.25599C18.9438 5.29912 18.1116 5.34572 17.2797 5.3956C17.2797 5.78654 17.2797 5.98192 17.2797 6.37269C18.0943 6.32176 18.5018 6.29855 19.3168 6.25629V7.38355C18.5018 7.42581 18.0943 7.44902 17.2797 7.49995C17.2797 7.90561 17.2797 8.10861 17.2797 8.51445C18.1505 8.46006 19.0216 8.41156 19.893 8.36912C19.893 8.81999 19.893 9.04534 19.8932 9.49621C18.5343 9.56584 17.1768 9.64639 15.8197 9.73819C15.8197 7.94718 15.8197 6.156 15.8197 4.36499Z" fill="white"/>
<path d="M26.7169 5.04105C25.9623 5.05265 25.585 5.0601 24.8306 5.07898C24.8306 4.62811 24.8306 4.40259 24.8306 3.95172C26.576 3.91188 28.3208 3.89179 30.0666 3.89127C30.0666 4.34231 30.0666 4.56766 30.0666 5.01871C29.3119 5.01715 28.9344 5.01836 28.1798 5.02425C28.1798 6.43956 28.1798 7.85487 28.1798 9.27019C27.5946 9.27469 27.3021 9.27798 26.7169 9.28699C26.7169 7.87167 26.7169 6.45636 26.7169 5.04105Z" fill="white"/>
<path d="M32.4962 3.90259C33.0814 3.909 33.3739 3.91333 33.9591 3.92407V6.07328C34.8045 6.09095 35.6495 6.11191 36.4947 6.13668V3.98747C37.0797 4.00583 37.3722 4.01605 37.957 4.03891V9.41211C37.3722 9.38942 37.0797 9.37903 36.4947 9.36067V7.25649C35.6495 7.23172 34.8045 7.21059 33.9591 7.19309V9.29727C33.3739 9.28653 33.0814 9.2822 32.4962 9.27579C32.4962 7.48478 32.4962 5.6936 32.4962 3.90259Z" fill="white"/>
<path d="M42.3337 8.50052C41.5313 8.45133 41.13 8.42898 40.3271 8.38811C40.1835 8.8317 40.1117 9.05359 39.9681 9.49735C39.3667 9.46791 39.0661 9.4544 38.4646 9.42963C39.0681 7.66599 39.6721 5.90269 40.2767 4.13957C41.0652 4.17941 41.4594 4.20141 42.2475 4.24921C42.9002 6.08301 43.5519 7.91697 44.2025 9.75128C43.6019 9.70867 43.3017 9.68858 42.701 9.65065C42.554 9.19042 42.4806 8.9604 42.3337 8.50052ZM41.3263 5.42047C41.1073 6.06482 40.8883 6.70917 40.6694 7.35369C41.1985 7.38157 41.4627 7.3963 41.9915 7.42782C41.7754 6.75888 41.5594 6.09011 41.3431 5.42134C41.3363 5.42099 41.3331 5.42082 41.3263 5.42047Z" fill="white"/>
<path d="M22.6141 3.9216C21.5248 3.95642 20.2902 4.56058 20.2821 5.66359C20.2696 7.34738 23.077 6.89548 23.2502 7.81558C23.2983 8.0702 22.9799 8.28394 22.5768 8.28342C21.826 8.28273 21.2339 8.15091 20.6204 7.86737C20.5906 8.3314 20.566 8.57545 20.546 8.99671C21.1791 9.37898 21.8333 9.46126 22.5404 9.47789C23.5904 9.50231 24.8533 8.84653 24.8639 7.74057C24.8799 6.06978 22.0968 6.4479 21.895 5.57907C21.8433 5.35649 22.145 5.13738 22.5956 5.11417C23.2839 5.07883 23.7789 5.23247 24.1558 5.37208C24.1858 4.83772 24.1949 4.76133 24.2283 4.24118C23.8968 4.06987 23.3747 3.89718 22.6141 3.9216Z" fill="white"/>
</g>
<path d="M21.3632 48.3131L22.0738 48.5927L21.0717 50.6591L22.2575 51.1258L21.9913 51.6743L20.095 50.9283L21.3632 48.3131Z" fill="white"/>
<mask id="mask1_593_688" style="mask-type:luminance" maskUnits="userSpaceOnUse" x="-22" y="-45" width="163" height="147">
<path d="M-21.1234 101.735H140.78V-44.0905H-21.1234V101.735Z" fill="white"/>
</mask>
<g mask="url(#mask1_593_688)">
<path d="M24.8716 49.4409C25.7945 49.6692 26.2818 50.4519 26.0412 51.2409C25.7947 52.0491 24.9272 52.5131 24.0043 52.2847C23.0814 52.0564 22.5987 51.2582 22.8452 50.4502C23.0858 49.6612 23.9487 49.2126 24.8716 49.4409ZM24.192 51.6691C24.6493 51.7822 25.1247 51.5191 25.2677 51.0495C25.4051 50.5993 25.141 50.1697 24.6839 50.0566C24.2266 49.9435 23.756 50.1912 23.6185 50.6414C23.4754 51.111 23.7349 51.556 24.192 51.6691Z" fill="white"/>
<path d="M26.7836 49.9119L27.564 49.9835L28.2871 51.3898C28.3894 51.5878 28.4967 51.8985 28.4967 51.8985L28.5055 51.8994C28.5055 51.8994 28.5048 51.5903 28.525 51.4116L28.675 50.0853L29.4465 50.1562L29.1255 52.9953L28.3496 52.9241L27.6217 51.5214C27.5194 51.3234 27.4121 51.0127 27.4121 51.0127L27.4032 51.0118C27.4032 51.0118 27.4038 51.3208 27.3836 51.4996L27.2342 52.8219L26.4626 52.751L26.7836 49.9119Z" fill="white"/>
<path d="M29.9932 50.1637L31.1172 50.1092C32.1128 50.0609 32.7813 50.5521 32.8349 51.449C32.8884 52.3457 32.2832 52.9107 31.2874 52.959L30.1635 53.0134L29.9932 50.1637ZM31.2209 52.3627C31.7563 52.3367 32.0664 52.0339 32.0339 51.4878C32.0014 50.9458 31.6441 50.6832 31.1218 50.7087L30.8034 50.7241L30.9022 52.3781L31.2209 52.3627Z" fill="white"/>
<path d="M34.4904 49.6602C35.4252 49.475 36.2614 49.9633 36.4565 50.7623C36.6564 51.5809 36.1287 52.3557 35.1938 52.541C34.259 52.7262 33.419 52.2223 33.2192 51.4037C33.024 50.6045 33.5556 49.8453 34.4904 49.6602ZM35.0415 51.9173C35.5046 51.8255 35.7892 51.3932 35.6731 50.9175C35.5617 50.4615 35.1058 50.1921 34.6427 50.2839C34.1796 50.3755 33.8911 50.7925 34.0025 51.2485C34.1186 51.724 34.5785 52.0089 35.0415 51.9173Z" fill="white"/>
<path d="M36.4237 49.2769L37.151 49.0125L38.5181 49.9529C38.7112 50.0851 38.967 50.3148 38.967 50.3148L38.9751 50.3118C38.9751 50.3118 38.8147 50.0388 38.7401 49.8722L38.1864 48.6363L38.9053 48.375L40.0907 51.0209L39.3676 51.2837L37.9979 50.3485C37.8049 50.2165 37.5491 49.9867 37.5491 49.9867L37.5408 49.9896C37.5408 49.9896 37.7014 50.2626 37.776 50.4292L38.3281 51.6615L37.6091 51.9229L36.4237 49.2769Z" fill="white"/>
</g>
</g>
<defs>
<clipPath id="clip0_593_688">
<rect width="60" height="60" fill="white"/>
</clipPath>
</defs>
</svg>
